%TF.GenerationSoftware,KiCad,Pcbnew,9.0.6*%
%TF.CreationDate,2026-09-18T05:17:12+03:00*%
%TF.ProjectId,evasdrop,65766173-6472-46f7-902e-6b696361645f,rev?*%
%TF.SameCoordinates,Original*%
%TF.FileFunction,Paste,Top*%
%TF.FilePolarity,Positive*%
%FSLAX46Y46*%
G04 Gerber Fmt 4.6, Leading zero omitted, Abs format (unit mm)*
G04 Created by KiCad (PCBNEW 9.0.6) date 2026-09-18 05:17:12*
%MOMM*%
%LPD*%
G01*
G04 APERTURE LIST*
G04 Aperture macros list*
%AMRoundRect*
0 Rectangle with rounded corners*
0 $1 Rounding radius*
0 $2 $3 $4 $5 $6 $7 $8 $9 X,Y pos of 4 corners*
0 Add a 4 corners polygon primitive as box body*
4,1,4,$2,$3,$4,$5,$6,$7,$8,$9,$2,$3,0*
0 Add four circle primitives for the rounded corners*
1,1,$1+$1,$2,$3*
1,1,$1+$1,$4,$5*
1,1,$1+$1,$6,$7*
1,1,$1+$1,$8,$9*
0 Add four rect primitives between the rounded corners*
20,1,$1+$1,$2,$3,$4,$5,0*
20,1,$1+$1,$4,$5,$6,$7,0*
20,1,$1+$1,$6,$7,$8,$9,0*
20,1,$1+$1,$8,$9,$2,$3,0*%
G04 Aperture macros list end*
%ADD10RoundRect,0.250000X-0.457500X-0.445000X0.457500X-0.445000X0.457500X0.445000X-0.457500X0.445000X0*%
%ADD11RoundRect,0.225000X0.250000X-0.225000X0.250000X0.225000X-0.250000X0.225000X-0.250000X-0.225000X0*%
%ADD12RoundRect,0.140000X-0.170000X0.140000X-0.170000X-0.140000X0.170000X-0.140000X0.170000X0.140000X0*%
%ADD13RoundRect,0.200000X0.275000X-0.200000X0.275000X0.200000X-0.275000X0.200000X-0.275000X-0.200000X0*%
%ADD14R,1.200000X1.200000*%
%ADD15R,1.500000X1.600000*%
%ADD16RoundRect,0.218750X-0.218750X-0.381250X0.218750X-0.381250X0.218750X0.381250X-0.218750X0.381250X0*%
%ADD17RoundRect,0.200000X0.200000X0.275000X-0.200000X0.275000X-0.200000X-0.275000X0.200000X-0.275000X0*%
%ADD18RoundRect,0.250000X-1.100000X0.325000X-1.100000X-0.325000X1.100000X-0.325000X1.100000X0.325000X0*%
%ADD19RoundRect,0.200000X-0.200000X-0.275000X0.200000X-0.275000X0.200000X0.275000X-0.200000X0.275000X0*%
%ADD20RoundRect,0.225000X-0.225000X-0.250000X0.225000X-0.250000X0.225000X0.250000X-0.225000X0.250000X0*%
%ADD21RoundRect,0.250000X0.750000X-0.650000X0.750000X0.650000X-0.750000X0.650000X-0.750000X-0.650000X0*%
%ADD22RoundRect,0.150000X0.825000X0.150000X-0.825000X0.150000X-0.825000X-0.150000X0.825000X-0.150000X0*%
%ADD23RoundRect,0.225000X0.225000X0.250000X-0.225000X0.250000X-0.225000X-0.250000X0.225000X-0.250000X0*%
%ADD24RoundRect,0.140000X0.170000X-0.140000X0.170000X0.140000X-0.170000X0.140000X-0.170000X-0.140000X0*%
%ADD25RoundRect,0.312500X0.962500X-0.312500X0.962500X0.312500X-0.962500X0.312500X-0.962500X-0.312500X0*%
%ADD26RoundRect,0.150000X-0.825000X-0.150000X0.825000X-0.150000X0.825000X0.150000X-0.825000X0.150000X0*%
G04 APERTURE END LIST*
D10*
%TO.C,C42*%
X161322500Y-98500000D03*
X164027500Y-98500000D03*
%TD*%
D11*
%TO.C,C14*%
X179500000Y-103500000D03*
X179500000Y-101950000D03*
%TD*%
D12*
%TO.C,C3*%
X144500000Y-72520000D03*
X144500000Y-73480000D03*
%TD*%
D11*
%TO.C,C6*%
X171500000Y-92775000D03*
X171500000Y-91225000D03*
%TD*%
D13*
%TO.C,R2*%
X165500000Y-83650000D03*
X165500000Y-82000000D03*
%TD*%
D14*
%TO.C,RV6*%
X166800000Y-91500000D03*
D15*
X163550000Y-90500000D03*
D14*
X166800000Y-89500000D03*
%TD*%
D16*
%TO.C,L1*%
X153437500Y-73500000D03*
X155562500Y-73500000D03*
%TD*%
D11*
%TO.C,C23*%
X168000000Y-72275000D03*
X168000000Y-70725000D03*
%TD*%
D17*
%TO.C,R5*%
X150975000Y-102000000D03*
X149325000Y-102000000D03*
%TD*%
%TO.C,R1*%
X123000000Y-103500000D03*
X121350000Y-103500000D03*
%TD*%
%TO.C,R20*%
X154475000Y-102000000D03*
X152825000Y-102000000D03*
%TD*%
D18*
%TO.C,C11*%
X136000000Y-71550000D03*
X136000000Y-74500000D03*
%TD*%
D19*
%TO.C,R25*%
X168350000Y-105030000D03*
X170000000Y-105030000D03*
%TD*%
D20*
%TO.C,C24*%
X159725000Y-68500000D03*
X161275000Y-68500000D03*
%TD*%
D12*
%TO.C,C1*%
X150000000Y-72520000D03*
X150000000Y-73480000D03*
%TD*%
%TO.C,C2*%
X147500000Y-72520000D03*
X147500000Y-73480000D03*
%TD*%
D19*
%TO.C,R22*%
X168350000Y-97500000D03*
X170000000Y-97500000D03*
%TD*%
D10*
%TO.C,C46*%
X161322500Y-104800000D03*
X164027500Y-104800000D03*
%TD*%
%TO.C,C45*%
X161322500Y-101650000D03*
X164027500Y-101650000D03*
%TD*%
D21*
%TO.C,Y1*%
X176600000Y-84540000D03*
X176600000Y-79460000D03*
X172400000Y-79460000D03*
X172400000Y-84540000D03*
%TD*%
D22*
%TO.C,U8*%
X164975000Y-73905000D03*
X164975000Y-72635000D03*
X164975000Y-71365000D03*
X164975000Y-70095000D03*
X160025000Y-70095000D03*
X160025000Y-71365000D03*
X160025000Y-72635000D03*
X160025000Y-73905000D03*
%TD*%
D17*
%TO.C,R21*%
X147650000Y-102000000D03*
X146000000Y-102000000D03*
%TD*%
D19*
%TO.C,R23*%
X168350000Y-100010000D03*
X170000000Y-100010000D03*
%TD*%
D23*
%TO.C,CY4*%
X119275000Y-103500000D03*
X117725000Y-103500000D03*
%TD*%
D19*
%TO.C,R24*%
X168350000Y-102520000D03*
X170000000Y-102520000D03*
%TD*%
D24*
%TO.C,C44*%
X150000000Y-105460000D03*
X150000000Y-104500000D03*
%TD*%
D25*
%TO.C,T1*%
X138825000Y-103500000D03*
X138825000Y-108500000D03*
X126175000Y-108500000D03*
X126175000Y-103500000D03*
%TD*%
D26*
%TO.C,U18*%
X158025000Y-109595000D03*
X158025000Y-110865000D03*
X158025000Y-112135000D03*
X158025000Y-113405000D03*
X162975000Y-113405000D03*
X162975000Y-112135000D03*
X162975000Y-110865000D03*
X162975000Y-109595000D03*
%TD*%
D24*
%TO.C,C43*%
X148030000Y-105460000D03*
X148030000Y-104500000D03*
%TD*%
M02*
