M48
; DRILL file {KiCad 9.0.6} date 2026-09-18T05:17:09+0300
; FORMAT={-:-/ absolute / metric / decimal}
; #@! TF.CreationDate,2026-09-18T05:17:09+03:00
; #@! TF.GenerationSoftware,Kicad,Pcbnew,9.0.6
; #@! TF.FileFunction,Plated,1,2,PTH
FMAT,2
METRIC
; #@! TA.AperFunction,Plated,PTH,ViaDrill
T1C0.300
; #@! TA.AperFunction,Plated,PTH,ComponentDrill
T2C1.000
%
G90
G05
T1
X136.0Y-71.55
X141.5Y-96.0
X142.5Y-93.5
X143.5Y-103.5
X144.5Y-72.52
X144.5Y-101.0
X147.5Y-72.52
X147.5Y-73.48
X147.65Y-102.0
X148.03Y-105.46
X148.5Y-98.0
X148.5Y-102.9
X149.325Y-102.0
X150.0Y-72.52
X150.0Y-105.46
X152.5Y-78.0
X152.825Y-102.0
X153.5Y-90.5
X154.5Y-99.0
X154.5Y-110.0
X155.0Y-111.5
X157.0Y-89.5
X157.0Y-102.4
X157.0Y-104.0
X157.5Y-82.5
X160.5Y-106.0
X160.5Y-113.5
X161.275Y-68.5
X161.322Y-98.5
X161.322Y-101.65
X161.322Y-104.8
X161.5Y-86.0
X162.975Y-113.405
X163.0Y-109.0
X163.5Y-87.5
X163.55Y-90.5
X164.0Y-80.5
X164.5Y-103.5
X164.975Y-71.365
X165.0Y-110.5
X165.0Y-112.5
X165.5Y-85.5
X166.1Y-87.0
X166.447Y-97.1
X167.0Y-97.1
X167.0Y-98.5
X168.35Y-97.5
X168.35Y-105.03
X169.5Y-85.14
X170.0Y-83.94
X171.0Y-75.5
X171.5Y-94.0
X171.5Y-96.5
X176.5Y-96.0
X176.77Y-100.77
T2
X115.5Y-86.96
X115.5Y-89.5
X123.212Y-85.0
X123.212Y-90.0
X152.292Y-80.0
X152.292Y-95.0
X159.375Y-80.72
X159.375Y-83.0
X159.375Y-85.28
X178.5Y-96.5
X178.5Y-99.04
M30
