%TF.GenerationSoftware,KiCad,Pcbnew,9.0.6*%
%TF.CreationDate,2026-09-18T05:17:12+03:00*%
%TF.ProjectId,evasdrop,65766173-6472-46f7-902e-6b696361645f,rev?*%
%TF.SameCoordinates,Original*%
%TF.FileFunction,Copper,L1,Top*%
%TF.FilePolarity,Positive*%
%FSLAX46Y46*%
G04 Gerber Fmt 4.6, Leading zero omitted, Abs format (unit mm)*
G04 Created by KiCad (PCBNEW 9.0.6) date 2026-09-18 05:17:12*
%MOMM*%
%LPD*%
G01*
G04 APERTURE LIST*
G04 Aperture macros list*
%AMRoundRect*
0 Rectangle with rounded corners*
0 $1 Rounding radius*
0 $2 $3 $4 $5 $6 $7 $8 $9 X,Y pos of 4 corners*
0 Add a 4 corners polygon primitive as box body*
4,1,4,$2,$3,$4,$5,$6,$7,$8,$9,$2,$3,0*
0 Add four circle primitives for the rounded corners*
1,1,$1+$1,$2,$3*
1,1,$1+$1,$4,$5*
1,1,$1+$1,$6,$7*
1,1,$1+$1,$8,$9*
0 Add four rect primitives between the rounded corners*
20,1,$1+$1,$2,$3,$4,$5,0*
20,1,$1+$1,$4,$5,$6,$7,0*
20,1,$1+$1,$6,$7,$8,$9,0*
20,1,$1+$1,$8,$9,$2,$3,0*%
G04 Aperture macros list end*
%TA.AperFunction,SMDPad,CuDef*%
%ADD10RoundRect,0.250000X-0.457500X-0.445000X0.457500X-0.445000X0.457500X0.445000X-0.457500X0.445000X0*%
%TD*%
%TA.AperFunction,SMDPad,CuDef*%
%ADD11RoundRect,0.225000X0.250000X-0.225000X0.250000X0.225000X-0.250000X0.225000X-0.250000X-0.225000X0*%
%TD*%
%TA.AperFunction,SMDPad,CuDef*%
%ADD12RoundRect,0.140000X-0.170000X0.140000X-0.170000X-0.140000X0.170000X-0.140000X0.170000X0.140000X0*%
%TD*%
%TA.AperFunction,SMDPad,CuDef*%
%ADD13RoundRect,0.200000X0.275000X-0.200000X0.275000X0.200000X-0.275000X0.200000X-0.275000X-0.200000X0*%
%TD*%
%TA.AperFunction,SMDPad,CuDef*%
%ADD14R,1.200000X1.200000*%
%TD*%
%TA.AperFunction,SMDPad,CuDef*%
%ADD15R,1.500000X1.600000*%
%TD*%
%TA.AperFunction,SMDPad,CuDef*%
%ADD16RoundRect,0.218750X-0.218750X-0.381250X0.218750X-0.381250X0.218750X0.381250X-0.218750X0.381250X0*%
%TD*%
%TA.AperFunction,SMDPad,CuDef*%
%ADD17RoundRect,0.200000X0.200000X0.275000X-0.200000X0.275000X-0.200000X-0.275000X0.200000X-0.275000X0*%
%TD*%
%TA.AperFunction,ComponentPad*%
%ADD18RoundRect,0.250000X-0.600000X-0.750000X0.600000X-0.750000X0.600000X0.750000X-0.600000X0.750000X0*%
%TD*%
%TA.AperFunction,ComponentPad*%
%ADD19O,1.700000X2.000000*%
%TD*%
%TA.AperFunction,SMDPad,CuDef*%
%ADD20RoundRect,0.250000X-1.100000X0.325000X-1.100000X-0.325000X1.100000X-0.325000X1.100000X0.325000X0*%
%TD*%
%TA.AperFunction,SMDPad,CuDef*%
%ADD21RoundRect,0.200000X-0.200000X-0.275000X0.200000X-0.275000X0.200000X0.275000X-0.200000X0.275000X0*%
%TD*%
%TA.AperFunction,SMDPad,CuDef*%
%ADD22RoundRect,0.225000X-0.225000X-0.250000X0.225000X-0.250000X0.225000X0.250000X-0.225000X0.250000X0*%
%TD*%
%TA.AperFunction,ComponentPad*%
%ADD23R,1.700000X1.700000*%
%TD*%
%TA.AperFunction,ComponentPad*%
%ADD24C,1.700000*%
%TD*%
%TA.AperFunction,ComponentPad*%
%ADD25R,1.800000X1.710000*%
%TD*%
%TA.AperFunction,ComponentPad*%
%ADD26O,1.800000X1.710000*%
%TD*%
%TA.AperFunction,SMDPad,CuDef*%
%ADD27RoundRect,0.250000X0.750000X-0.650000X0.750000X0.650000X-0.750000X0.650000X-0.750000X-0.650000X0*%
%TD*%
%TA.AperFunction,SMDPad,CuDef*%
%ADD28RoundRect,0.150000X0.825000X0.150000X-0.825000X0.150000X-0.825000X-0.150000X0.825000X-0.150000X0*%
%TD*%
%TA.AperFunction,SMDPad,CuDef*%
%ADD29RoundRect,0.225000X0.225000X0.250000X-0.225000X0.250000X-0.225000X-0.250000X0.225000X-0.250000X0*%
%TD*%
%TA.AperFunction,SMDPad,CuDef*%
%ADD30RoundRect,0.140000X0.170000X-0.140000X0.170000X0.140000X-0.170000X0.140000X-0.170000X-0.140000X0*%
%TD*%
%TA.AperFunction,SMDPad,CuDef*%
%ADD31RoundRect,0.312500X0.962500X-0.312500X0.962500X0.312500X-0.962500X0.312500X-0.962500X-0.312500X0*%
%TD*%
%TA.AperFunction,SMDPad,CuDef*%
%ADD32RoundRect,0.150000X-0.825000X-0.150000X0.825000X-0.150000X0.825000X0.150000X-0.825000X0.150000X0*%
%TD*%
%TA.AperFunction,ViaPad*%
%ADD33C,0.600000*%
%TD*%
%TA.AperFunction,Conductor*%
%ADD34C,0.200000*%
%TD*%
%TA.AperFunction,Conductor*%
%ADD35C,0.400000*%
%TD*%
G04 APERTURE END LIST*
D10*
%TO.P,C42,1*%
%TO.N,Net-(C42-Pad1)*%
X161322500Y-98500000D03*
%TO.P,C42,2*%
%TO.N,Net-(C42-Pad2)*%
X164027500Y-98500000D03*
%TD*%
D11*
%TO.P,C14,1*%
%TO.N,Net-(C14-Pad1)*%
X179500000Y-103500000D03*
%TO.P,C14,2*%
%TO.N,Net-(MK2-+)*%
X179500000Y-101950000D03*
%TD*%
D12*
%TO.P,C3,1*%
%TO.N,GND*%
X144500000Y-72520000D03*
%TO.P,C3,2*%
%TO.N,/VCC*%
X144500000Y-73480000D03*
%TD*%
D11*
%TO.P,C6,1*%
%TO.N,/OUTPUTMIC*%
X171500000Y-92775000D03*
%TO.P,C6,2*%
%TO.N,Net-(C6-Pad2)*%
X171500000Y-91225000D03*
%TD*%
D13*
%TO.P,R2,1*%
%TO.N,Net-(Q1-B)*%
X165500000Y-83650000D03*
%TO.P,R2,2*%
%TO.N,/VCC*%
X165500000Y-82000000D03*
%TD*%
D14*
%TO.P,RV6,1,1*%
%TO.N,Net-(Q1-B)*%
X166800000Y-91500000D03*
D15*
%TO.P,RV6,2,2*%
%TO.N,GND*%
X163550000Y-90500000D03*
D14*
%TO.P,RV6,3,3*%
%TO.N,Net-(C6-Pad2)*%
X166800000Y-89500000D03*
%TD*%
D16*
%TO.P,L1,1,1*%
%TO.N,Net-(PS1-+Vout)*%
X153437500Y-73500000D03*
%TO.P,L1,2,2*%
%TO.N,/VCC*%
X155562500Y-73500000D03*
%TD*%
D11*
%TO.P,C23,1*%
%TO.N,Net-(U8-CAP+)*%
X168000000Y-72275000D03*
%TO.P,C23,2*%
%TO.N,Net-(U8-CAP-)*%
X168000000Y-70725000D03*
%TD*%
D17*
%TO.P,R5,1*%
%TO.N,Net-(MK2-+)*%
X150975000Y-102000000D03*
%TO.P,R5,2*%
%TO.N,/VCC*%
X149325000Y-102000000D03*
%TD*%
D18*
%TO.P,PS1,1,AC/L*%
%TO.N,/AC_HOT*%
X123212500Y-85000000D03*
D19*
%TO.P,PS1,2,AC/N*%
%TO.N,/AC_NEUTRAL*%
X123212500Y-90000000D03*
%TO.P,PS1,3,-Vout*%
%TO.N,GND*%
X152292500Y-80000000D03*
%TO.P,PS1,4,+Vout*%
%TO.N,Net-(PS1-+Vout)*%
X152292500Y-95000000D03*
%TD*%
D17*
%TO.P,R1,1*%
%TO.N,Net-(R1-Pad1)*%
X123000000Y-103500000D03*
%TO.P,R1,2*%
%TO.N,Net-(CY4-Pad1)*%
X121350000Y-103500000D03*
%TD*%
%TO.P,R20,1*%
%TO.N,Net-(C14-Pad1)*%
X154475000Y-102000000D03*
%TO.P,R20,2*%
%TO.N,Net-(U18A-+)*%
X152825000Y-102000000D03*
%TD*%
D20*
%TO.P,C11,1*%
%TO.N,GND*%
X136000000Y-71550000D03*
%TO.P,C11,2*%
%TO.N,Net-(PS1-+Vout)*%
X136000000Y-74500000D03*
%TD*%
D21*
%TO.P,R25,1*%
%TO.N,GND*%
X168350000Y-105030000D03*
%TO.P,R25,2*%
%TO.N,Net-(C42-Pad2)*%
X170000000Y-105030000D03*
%TD*%
D22*
%TO.P,C24,1*%
%TO.N,/N5V*%
X159725000Y-68500000D03*
%TO.P,C24,2*%
%TO.N,GND*%
X161275000Y-68500000D03*
%TD*%
D12*
%TO.P,C1,1*%
%TO.N,GND*%
X150000000Y-72520000D03*
%TO.P,C1,2*%
%TO.N,Net-(PS1-+Vout)*%
X150000000Y-73480000D03*
%TD*%
%TO.P,C2,1*%
%TO.N,GND*%
X147500000Y-72520000D03*
%TO.P,C2,2*%
%TO.N,/VCC*%
X147500000Y-73480000D03*
%TD*%
D21*
%TO.P,R22,1*%
%TO.N,GND*%
X168350000Y-97500000D03*
%TO.P,R22,2*%
%TO.N,Net-(U18A--)*%
X170000000Y-97500000D03*
%TD*%
D10*
%TO.P,C46,1*%
%TO.N,/VCC*%
X161322500Y-104800000D03*
%TO.P,C46,2*%
%TO.N,GND*%
X164027500Y-104800000D03*
%TD*%
D23*
%TO.P,N AC,1,Pin_1*%
%TO.N,/AC_NEUTRAL*%
X115500000Y-86960000D03*
D24*
%TO.P,N AC,2,Pin_2*%
%TO.N,/AC_HOT*%
X115500000Y-89500000D03*
%TD*%
D25*
%TO.P,Q1,1,E*%
%TO.N,Net-(Q1-E)*%
X159375000Y-85280000D03*
D26*
%TO.P,Q1,2,C*%
%TO.N,/VCC*%
X159375000Y-83000000D03*
%TO.P,Q1,3,B*%
%TO.N,Net-(Q1-B)*%
X159375000Y-80720000D03*
%TD*%
D10*
%TO.P,C45,1*%
%TO.N,GND*%
X161322500Y-101650000D03*
%TO.P,C45,2*%
%TO.N,/N5V*%
X164027500Y-101650000D03*
%TD*%
D27*
%TO.P,Y1,1,EN*%
%TO.N,unconnected-(Y1-EN-Pad1)*%
X176600000Y-84540000D03*
%TO.P,Y1,2,GND*%
%TO.N,GND*%
X176600000Y-79460000D03*
%TO.P,Y1,3,Output*%
%TO.N,/RDY*%
X172400000Y-79460000D03*
%TO.P,Y1,4,+Vs*%
%TO.N,Net-(Q1-E)*%
X172400000Y-84540000D03*
%TD*%
D28*
%TO.P,U8,1,NC*%
%TO.N,unconnected-(U8-NC-Pad1)*%
X164975000Y-73905000D03*
%TO.P,U8,2,CAP+*%
%TO.N,Net-(U8-CAP+)*%
X164975000Y-72635000D03*
%TO.P,U8,3,GND*%
%TO.N,GND*%
X164975000Y-71365000D03*
%TO.P,U8,4,CAP-*%
%TO.N,Net-(U8-CAP-)*%
X164975000Y-70095000D03*
%TO.P,U8,5,VOUT*%
%TO.N,/N5V*%
X160025000Y-70095000D03*
%TO.P,U8,6,LV*%
%TO.N,unconnected-(U8-LV-Pad6)*%
X160025000Y-71365000D03*
%TO.P,U8,7,OSC*%
%TO.N,unconnected-(U8-OSC-Pad7)*%
X160025000Y-72635000D03*
%TO.P,U8,8,V+*%
%TO.N,/VCC*%
X160025000Y-73905000D03*
%TD*%
D17*
%TO.P,R21,1*%
%TO.N,GND*%
X147650000Y-102000000D03*
%TO.P,R21,2*%
%TO.N,Net-(C14-Pad1)*%
X146000000Y-102000000D03*
%TD*%
D23*
%TO.P,MK2,1,-*%
%TO.N,GND*%
X178500000Y-96500000D03*
D24*
%TO.P,MK2,2,+*%
%TO.N,Net-(MK2-+)*%
X178500000Y-99040000D03*
%TD*%
D21*
%TO.P,R23,1*%
%TO.N,Net-(U18A--)*%
X168350000Y-100010000D03*
%TO.P,R23,2*%
%TO.N,Net-(C42-Pad1)*%
X170000000Y-100010000D03*
%TD*%
D29*
%TO.P,CY4,1*%
%TO.N,Net-(CY4-Pad1)*%
X119275000Y-103500000D03*
%TO.P,CY4,2*%
%TO.N,/AC_HOT*%
X117725000Y-103500000D03*
%TD*%
D21*
%TO.P,R24,1*%
%TO.N,Net-(C42-Pad2)*%
X168350000Y-102520000D03*
%TO.P,R24,2*%
%TO.N,/OUTPUTMIC*%
X170000000Y-102520000D03*
%TD*%
D30*
%TO.P,C44,1*%
%TO.N,GND*%
X150000000Y-105460000D03*
%TO.P,C44,2*%
%TO.N,/N5V*%
X150000000Y-104500000D03*
%TD*%
D31*
%TO.P,T1,1*%
%TO.N,/RDY*%
X138825000Y-103500000D03*
%TO.P,T1,2*%
%TO.N,GND*%
X138825000Y-108500000D03*
%TO.P,T1,3*%
%TO.N,/AC_NEUTRAL*%
X126175000Y-108500000D03*
%TO.P,T1,4*%
%TO.N,Net-(R1-Pad1)*%
X126175000Y-103500000D03*
%TD*%
D32*
%TO.P,U18,1*%
%TO.N,Net-(C42-Pad1)*%
X158025000Y-109595000D03*
%TO.P,U18,2,-*%
%TO.N,Net-(U18A--)*%
X158025000Y-110865000D03*
%TO.P,U18,3,+*%
%TO.N,Net-(U18A-+)*%
X158025000Y-112135000D03*
%TO.P,U18,4,V-*%
%TO.N,/N5V*%
X158025000Y-113405000D03*
%TO.P,U18,5,+*%
%TO.N,GND*%
X162975000Y-113405000D03*
%TO.P,U18,6,-*%
%TO.N,Net-(U18B--)*%
X162975000Y-112135000D03*
%TO.P,U18,7*%
X162975000Y-110865000D03*
%TO.P,U18,8,V+*%
%TO.N,/VCC*%
X162975000Y-109595000D03*
%TD*%
D30*
%TO.P,C43,1*%
%TO.N,/VCC*%
X148030000Y-105460000D03*
%TO.P,C43,2*%
%TO.N,GND*%
X148030000Y-104500000D03*
%TD*%
D33*
%TO.N,GND*%
X165000000Y-110500000D03*
X143500000Y-103500000D03*
X150000000Y-105460000D03*
X161322500Y-101650000D03*
X144500000Y-72520000D03*
X176500000Y-96000000D03*
X163550000Y-90500000D03*
X166447213Y-97099999D03*
X147500000Y-72520000D03*
X162975000Y-113405000D03*
X150000000Y-72520000D03*
X168350000Y-97500000D03*
X167000000Y-97100000D03*
X152500000Y-78000000D03*
X168350000Y-105030000D03*
X164500000Y-103500000D03*
X136000000Y-71550000D03*
X147650000Y-102000000D03*
X164975000Y-71365000D03*
X171000000Y-75500000D03*
X161275000Y-68500000D03*
X165000000Y-112500000D03*
X160500000Y-113500000D03*
%TO.N,/VCC*%
X147500000Y-73480000D03*
X148030000Y-105460000D03*
X157500000Y-82500000D03*
X149325000Y-102000000D03*
X164000000Y-80500000D03*
X148500000Y-98000000D03*
X161322500Y-104800000D03*
X160500000Y-106000000D03*
X148500000Y-102900000D03*
X163000000Y-109000000D03*
%TO.N,/OUTPUTMIC*%
X171500000Y-94000000D03*
X171500000Y-96500000D03*
%TO.N,Net-(MK2-+)*%
X176770000Y-100770000D03*
X155000000Y-111500000D03*
%TO.N,Net-(C14-Pad1)*%
X144500000Y-101000000D03*
X154500000Y-99000000D03*
%TO.N,Net-(C42-Pad1)*%
X161322500Y-98500000D03*
X167000000Y-98500000D03*
%TO.N,Net-(Q1-E)*%
X165500000Y-85500000D03*
X161500000Y-86000000D03*
%TO.N,Net-(U18A-+)*%
X157000000Y-104000000D03*
X154500000Y-110000000D03*
X157000000Y-102400000D03*
X152825000Y-102000000D03*
%TO.N,/RDY*%
X142500000Y-93500000D03*
X166100000Y-87000000D03*
X169500000Y-85140000D03*
X163500000Y-87500000D03*
X170000000Y-83940000D03*
X153500000Y-90500000D03*
X157000000Y-89500000D03*
X141500000Y-96000000D03*
%TD*%
D34*
%TO.N,Net-(PS1-+Vout)*%
X148500000Y-79500000D02*
X153437500Y-74562500D01*
X146480000Y-77000000D02*
X140500000Y-77000000D01*
X139500000Y-95000000D02*
X136000000Y-91500000D01*
X136000000Y-85000000D02*
X138000000Y-85000000D01*
X138000000Y-85000000D02*
X140500000Y-85000000D01*
X140500000Y-77000000D02*
X140500000Y-85000000D01*
X138000000Y-76500000D02*
X138000000Y-85000000D01*
X153437500Y-74562500D02*
X153437500Y-73500000D01*
X136000000Y-91500000D02*
X136000000Y-85000000D01*
X150000000Y-73480000D02*
X146480000Y-77000000D01*
X152292500Y-95000000D02*
X139500000Y-95000000D01*
X140500000Y-85000000D02*
X151000000Y-85000000D01*
X151000000Y-85000000D02*
X148500000Y-82500000D01*
X136000000Y-74500000D02*
X138000000Y-76500000D01*
X148500000Y-82500000D02*
X148500000Y-79500000D01*
%TO.N,GND*%
X142825000Y-104500000D02*
X138825000Y-108500000D01*
X160595000Y-113405000D02*
X160500000Y-113500000D01*
X165000000Y-110500000D02*
X165000000Y-112500000D01*
X178500000Y-96500000D02*
X177000000Y-96500000D01*
X152292500Y-80000000D02*
X152292500Y-78207500D01*
X148030000Y-104500000D02*
X146000000Y-104500000D01*
X144500000Y-104500000D02*
X143500000Y-103500000D01*
X174960000Y-79460000D02*
X171000000Y-75500000D01*
X168350000Y-97500000D02*
X167400000Y-97500000D01*
X152292500Y-78207500D02*
X152500000Y-78000000D01*
X146000000Y-104500000D02*
X144500000Y-104500000D01*
X162975000Y-113405000D02*
X160595000Y-113405000D01*
X167000000Y-97100000D02*
X166447213Y-97099999D01*
X167400000Y-97500000D02*
X167000000Y-97100000D01*
X146000000Y-104500000D02*
X142825000Y-104500000D01*
X161322500Y-102095000D02*
X164027500Y-104800000D01*
X176600000Y-79460000D02*
X174960000Y-79460000D01*
X148990000Y-105460000D02*
X148030000Y-104500000D01*
X177000000Y-96500000D02*
X176500000Y-96000000D01*
X150000000Y-105460000D02*
X148990000Y-105460000D01*
X164027500Y-104800000D02*
X164027500Y-103972500D01*
X164027500Y-103972500D02*
X164500000Y-103500000D01*
X161322500Y-101650000D02*
X161322500Y-102095000D01*
%TO.N,/VCC*%
X155562500Y-71000000D02*
X155562500Y-69500000D01*
X159050001Y-73905000D02*
X157500000Y-72354999D01*
X150000000Y-70500000D02*
X155062500Y-70500000D01*
X165500000Y-82000000D02*
X164000000Y-80500000D01*
X161322500Y-105177500D02*
X160500000Y-106000000D01*
X158000000Y-83000000D02*
X157500000Y-82500000D01*
X162975000Y-109595000D02*
X162975000Y-109025000D01*
X155062500Y-70500000D02*
X155562500Y-71000000D01*
X145020000Y-73480000D02*
X149000000Y-69500000D01*
X150000000Y-70980000D02*
X150000000Y-70500000D01*
X144500000Y-73480000D02*
X145020000Y-73480000D01*
X149325000Y-101325000D02*
X148500000Y-100500000D01*
X155625000Y-68000000D02*
X155562500Y-68062500D01*
X162975000Y-109025000D02*
X163000000Y-109000000D01*
X157000000Y-68000000D02*
X155625000Y-68000000D01*
X161322500Y-104800000D02*
X161322500Y-105177500D01*
X149325000Y-102000000D02*
X149325000Y-101325000D01*
X149000000Y-69500000D02*
X155562500Y-69500000D01*
X157500000Y-68500000D02*
X157000000Y-68000000D01*
X147500000Y-73480000D02*
X150000000Y-70980000D01*
X155562500Y-73500000D02*
X155562500Y-71000000D01*
X149325000Y-102075000D02*
X148500000Y-102900000D01*
X157500000Y-72354999D02*
X157500000Y-68500000D01*
X155562500Y-68062500D02*
X155500000Y-68000000D01*
X155562500Y-69500000D02*
X155562500Y-68062500D01*
X149325000Y-102000000D02*
X149325000Y-102075000D01*
X160025000Y-73905000D02*
X159050001Y-73905000D01*
X148500000Y-100500000D02*
X148500000Y-98000000D01*
X159375000Y-83000000D02*
X158000000Y-83000000D01*
%TO.N,Net-(C6-Pad2)*%
X170000000Y-89725000D02*
X170000000Y-89500000D01*
X170000000Y-89500000D02*
X166800000Y-89500000D01*
X171500000Y-91225000D02*
X170000000Y-89725000D01*
%TO.N,/OUTPUTMIC*%
X171500000Y-99500000D02*
X171500000Y-96500000D01*
X171500000Y-94000000D02*
X171500000Y-93000000D01*
X170000000Y-102520000D02*
X171500000Y-101020000D01*
X171500000Y-101020000D02*
X171500000Y-99500000D01*
%TO.N,Net-(MK2-+)*%
X177950000Y-101950000D02*
X176770000Y-100770000D01*
X153500000Y-104525000D02*
X153500000Y-110000000D01*
X150975000Y-102000000D02*
X153500000Y-104525000D01*
X153500000Y-110000000D02*
X155000000Y-111500000D01*
X179500000Y-101950000D02*
X177950000Y-101950000D01*
%TO.N,Net-(C14-Pad1)*%
X154500000Y-98000000D02*
X154500000Y-99000000D01*
X155500000Y-96500000D02*
X155500000Y-97000000D01*
X179500000Y-103500000D02*
X178500000Y-103500000D01*
X157500000Y-94500000D02*
X155500000Y-96500000D01*
X146000000Y-102000000D02*
X145500000Y-102000000D01*
X178500000Y-103500000D02*
X175500000Y-100500000D01*
X155500000Y-97000000D02*
X154500000Y-98000000D01*
X154475000Y-99025000D02*
X154475000Y-102000000D01*
X159500000Y-95000000D02*
X159000000Y-94500000D01*
X159000000Y-94500000D02*
X157500000Y-94500000D01*
X175500000Y-95000000D02*
X159500000Y-95000000D01*
X175500000Y-100500000D02*
X175500000Y-95000000D01*
X145500000Y-102000000D02*
X144500000Y-101000000D01*
X154500000Y-99000000D02*
X154475000Y-99025000D01*
%TO.N,Net-(U8-CAP+)*%
X168000000Y-72275000D02*
X167225000Y-72275000D01*
X166865000Y-72635000D02*
X164975000Y-72635000D01*
X167225000Y-72275000D02*
X166865000Y-72635000D01*
%TO.N,Net-(U8-CAP-)*%
X168500000Y-70725000D02*
X168225000Y-70725000D01*
X166905000Y-70095000D02*
X164975000Y-70095000D01*
X168000000Y-70725000D02*
X168000000Y-70000000D01*
X168000000Y-70000000D02*
X167500000Y-69500000D01*
X167500000Y-69500000D02*
X166905000Y-70095000D01*
%TO.N,/N5V*%
X144500000Y-97000000D02*
X154500000Y-97000000D01*
X166000000Y-104516160D02*
X162516160Y-108000000D01*
X172000000Y-69500000D02*
X171500000Y-69000000D01*
X159500000Y-76000000D02*
X160500000Y-77000000D01*
X151000000Y-104500000D02*
X150000000Y-104500000D01*
X160500000Y-111904999D02*
X158999999Y-113405000D01*
X171500000Y-69000000D02*
X169000000Y-69000000D01*
X155000000Y-96500000D02*
X155000000Y-80500000D01*
X172000000Y-73000000D02*
X172000000Y-69500000D01*
X144500000Y-99500000D02*
X144500000Y-97000000D01*
X160025000Y-70095000D02*
X160025000Y-68800000D01*
X154500000Y-97000000D02*
X155000000Y-96500000D01*
X159500000Y-67000000D02*
X159725000Y-67225000D01*
X145500000Y-103500000D02*
X143000000Y-101000000D01*
X162516160Y-108000000D02*
X162500000Y-108000000D01*
X149000000Y-103500000D02*
X145500000Y-103500000D01*
X151000000Y-108500000D02*
X151000000Y-104500000D01*
X160500000Y-110000000D02*
X160500000Y-111904999D01*
X162000000Y-67500000D02*
X160500000Y-66000000D01*
X155905000Y-113405000D02*
X151000000Y-108500000D01*
X155000000Y-80500000D02*
X159500000Y-76000000D01*
X167500000Y-67500000D02*
X162000000Y-67500000D01*
X164027500Y-101650000D02*
X166000000Y-103622500D01*
X158999999Y-113405000D02*
X158025000Y-113405000D01*
X160500000Y-66000000D02*
X159500000Y-67000000D01*
X166000000Y-103622500D02*
X166000000Y-104516160D01*
X158025000Y-113405000D02*
X155905000Y-113405000D01*
X168000000Y-77000000D02*
X172000000Y-73000000D01*
X160500000Y-77000000D02*
X168000000Y-77000000D01*
X150000000Y-104500000D02*
X149000000Y-103500000D01*
X160025000Y-68800000D02*
X159725000Y-68500000D01*
X143000000Y-101000000D02*
X144500000Y-99500000D01*
X169000000Y-69000000D02*
X167500000Y-67500000D01*
X159725000Y-67225000D02*
X159725000Y-68500000D01*
X162500000Y-108000000D02*
X160500000Y-110000000D01*
%TO.N,Net-(C42-Pad1)*%
X168500000Y-98510000D02*
X168500000Y-98500000D01*
X156000000Y-100500000D02*
X156500000Y-100000000D01*
X156500000Y-100000000D02*
X160500000Y-100000000D01*
X160500000Y-99322500D02*
X161322500Y-98500000D01*
X158025000Y-109595000D02*
X156000000Y-107570000D01*
X156000000Y-107570000D02*
X156000000Y-100500000D01*
X160500000Y-100000000D02*
X160500000Y-99322500D01*
X168500000Y-98500000D02*
X167000000Y-98500000D01*
X170000000Y-100010000D02*
X168500000Y-98510000D01*
%TO.N,Net-(C42-Pad2)*%
X167000000Y-104000000D02*
X166500000Y-103500000D01*
X168350000Y-102520000D02*
X168350000Y-102850000D01*
X166500000Y-103500000D02*
X166915000Y-103085000D01*
X170000000Y-105030000D02*
X170000000Y-104500000D01*
X170000000Y-104500000D02*
X169500000Y-104000000D01*
X166915000Y-101085000D02*
X168350000Y-102520000D01*
X164027500Y-98500000D02*
X164330000Y-98500000D01*
X166915000Y-103085000D02*
X166915000Y-101085000D01*
X169500000Y-104000000D02*
X167000000Y-104000000D01*
X164330000Y-98500000D02*
X166915000Y-101085000D01*
D35*
%TO.N,Net-(CY4-Pad1)*%
X121350000Y-103500000D02*
X119275000Y-103500000D01*
D34*
%TO.N,Net-(Q1-E)*%
X165500000Y-85500000D02*
X166460000Y-84540000D01*
X160780000Y-85280000D02*
X161500000Y-86000000D01*
X166460000Y-84540000D02*
X172400000Y-84540000D01*
X159375000Y-85280000D02*
X160780000Y-85280000D01*
%TO.N,Net-(Q1-B)*%
X165500000Y-86845000D02*
X159375000Y-80720000D01*
X165500000Y-90000000D02*
X165500000Y-86845000D01*
X162305000Y-83650000D02*
X159375000Y-80720000D01*
X166800000Y-91300000D02*
X165500000Y-90000000D01*
X166800000Y-91500000D02*
X166800000Y-91300000D01*
X165500000Y-83650000D02*
X162305000Y-83650000D01*
D35*
%TO.N,Net-(R1-Pad1)*%
X126175000Y-103500000D02*
X123000000Y-103500000D01*
D34*
%TO.N,Net-(U18A-+)*%
X157000000Y-104000000D02*
X157000000Y-102400000D01*
X158025000Y-112135000D02*
X156635000Y-112135000D01*
X156635000Y-112135000D02*
X154500000Y-110000000D01*
%TO.N,Net-(U18A--)*%
X166000000Y-97500000D02*
X165000000Y-96500000D01*
X168500000Y-96500000D02*
X165000000Y-96500000D01*
X166000000Y-99000000D02*
X166000000Y-97500000D01*
X169000000Y-96000000D02*
X168500000Y-96500000D01*
X167010000Y-100010000D02*
X166000000Y-99000000D01*
X168350000Y-100010000D02*
X167010000Y-100010000D01*
X155500000Y-109314999D02*
X157050001Y-110865000D01*
X157050001Y-110865000D02*
X158025000Y-110865000D01*
X170000000Y-97500000D02*
X170000000Y-97000000D01*
X155500000Y-98000000D02*
X155500000Y-109314999D01*
X157000000Y-96500000D02*
X155500000Y-98000000D01*
X170000000Y-97000000D02*
X169000000Y-96000000D01*
X165000000Y-96500000D02*
X157000000Y-96500000D01*
%TO.N,/RDY*%
X172500000Y-82000000D02*
X172500000Y-81500000D01*
X172500000Y-81500000D02*
X172400000Y-81400000D01*
X157000000Y-89500000D02*
X161500000Y-89500000D01*
X142500000Y-93500000D02*
X150500000Y-93500000D01*
X161500000Y-89500000D02*
X163500000Y-87500000D01*
X141500000Y-100825000D02*
X141500000Y-96000000D01*
X172400000Y-81400000D02*
X172400000Y-79460000D01*
X166100000Y-87000000D02*
X167960000Y-85140000D01*
X171940000Y-82000000D02*
X172500000Y-82000000D01*
X167960000Y-85140000D02*
X169500000Y-85140000D01*
X150500000Y-93500000D02*
X153500000Y-90500000D01*
X138825000Y-103500000D02*
X141500000Y-100825000D01*
X170000000Y-83940000D02*
X171940000Y-82000000D01*
%TO.N,Net-(U18B--)*%
X162975000Y-112135000D02*
X162975000Y-110865000D01*
D35*
%TO.N,/AC_HOT*%
X117725000Y-89775000D02*
X117725000Y-92126000D01*
X115500000Y-89500000D02*
X117450000Y-89500000D01*
X122500000Y-85000000D02*
X117725000Y-89775000D01*
X117725000Y-103500000D02*
X117725000Y-92126000D01*
X117450000Y-89500000D02*
X117725000Y-89775000D01*
X123212500Y-85000000D02*
X122500000Y-85000000D01*
%TO.N,/AC_NEUTRAL*%
X130000000Y-96787500D02*
X123566760Y-90354260D01*
X125500000Y-82000000D02*
X120460000Y-82000000D01*
X123212500Y-90000000D02*
X123212500Y-88787500D01*
X122712500Y-89500000D02*
X123212500Y-90000000D01*
X123212500Y-88787500D02*
X127000000Y-85000000D01*
X120460000Y-82000000D02*
X115500000Y-86960000D01*
X126175000Y-108500000D02*
X128000000Y-108500000D01*
X125500000Y-83500000D02*
X125500000Y-82000000D01*
X130000000Y-106500000D02*
X130000000Y-96787500D01*
X127000000Y-85000000D02*
X125500000Y-83500000D01*
X128000000Y-108500000D02*
X130000000Y-106500000D01*
%TD*%
M02*
