%TF.GenerationSoftware,KiCad,Pcbnew,9.0.6*%
%TF.CreationDate,2026-09-18T05:16:20+03:00*%
%TF.ProjectId,eavesdrop2,65617665-7364-4726-9f70-322e6b696361,rev?*%
%TF.SameCoordinates,Original*%
%TF.FileFunction,Copper,L2,Bot*%
%TF.FilePolarity,Positive*%
%FSLAX46Y46*%
G04 Gerber Fmt 4.6, Leading zero omitted, Abs format (unit mm)*
G04 Created by KiCad (PCBNEW 9.0.6) date 2026-09-18 05:16:20*
%MOMM*%
%LPD*%
G01*
G04 APERTURE LIST*
G04 Aperture macros list*
%AMRoundRect*
0 Rectangle with rounded corners*
0 $1 Rounding radius*
0 $2 $3 $4 $5 $6 $7 $8 $9 X,Y pos of 4 corners*
0 Add a 4 corners polygon primitive as box body*
4,1,4,$2,$3,$4,$5,$6,$7,$8,$9,$2,$3,0*
0 Add four circle primitives for the rounded corners*
1,1,$1+$1,$2,$3*
1,1,$1+$1,$4,$5*
1,1,$1+$1,$6,$7*
1,1,$1+$1,$8,$9*
0 Add four rect primitives between the rounded corners*
20,1,$1+$1,$2,$3,$4,$5,0*
20,1,$1+$1,$4,$5,$6,$7,0*
20,1,$1+$1,$6,$7,$8,$9,0*
20,1,$1+$1,$8,$9,$2,$3,0*%
G04 Aperture macros list end*
%TA.AperFunction,ComponentPad*%
%ADD10RoundRect,0.250000X-0.600000X-0.750000X0.600000X-0.750000X0.600000X0.750000X-0.600000X0.750000X0*%
%TD*%
%TA.AperFunction,ComponentPad*%
%ADD11O,1.700000X2.000000*%
%TD*%
%TA.AperFunction,ComponentPad*%
%ADD12R,1.700000X1.700000*%
%TD*%
%TA.AperFunction,ComponentPad*%
%ADD13C,1.700000*%
%TD*%
%TA.AperFunction,ComponentPad*%
%ADD14RoundRect,0.250000X0.550000X-0.550000X0.550000X0.550000X-0.550000X0.550000X-0.550000X-0.550000X0*%
%TD*%
%TA.AperFunction,ComponentPad*%
%ADD15C,1.600000*%
%TD*%
%TA.AperFunction,ViaPad*%
%ADD16C,0.600000*%
%TD*%
%TA.AperFunction,Conductor*%
%ADD17C,0.200000*%
%TD*%
%TA.AperFunction,Conductor*%
%ADD18C,0.400000*%
%TD*%
G04 APERTURE END LIST*
D10*
%TO.P,PS1,1,AC/L*%
%TO.N,/AC_HOT*%
X135000000Y-77000000D03*
D11*
%TO.P,PS1,2,AC/N*%
%TO.N,/AC_NEUTRAL*%
X135000000Y-82000000D03*
%TO.P,PS1,3,-Vout*%
%TO.N,GND*%
X164080000Y-72000000D03*
%TO.P,PS1,4,+Vout*%
%TO.N,Net-(PS1-+Vout)*%
X164080000Y-87000000D03*
%TD*%
D12*
%TO.P,J1,1,Pin_1*%
%TO.N,/AC_HOT*%
X128000000Y-79225000D03*
D13*
%TO.P,J1,2,Pin_2*%
%TO.N,/AC_NEUTRAL*%
X128000000Y-81765000D03*
%TD*%
D14*
%TO.P,D1,1,K*%
%TO.N,Net-(D1-K)*%
X162500000Y-104310000D03*
D15*
%TO.P,D1,2,A*%
%TO.N,Net-(D1-A)*%
X162500000Y-96690000D03*
%TD*%
D12*
%TO.P,LS1,1,1*%
%TO.N,GND*%
X181225000Y-96500000D03*
D13*
%TO.P,LS1,2,2*%
%TO.N,Net-(C4-Pad2)*%
X183765000Y-96500000D03*
%TD*%
D16*
%TO.N,Net-(PS1-+Vout)*%
X167500000Y-78500000D03*
X164080000Y-76500000D03*
%TO.N,/VCC*%
X174000000Y-78000000D03*
X184000000Y-72500000D03*
X184000000Y-72500000D03*
%TO.N,Net-(C4-Pad1)*%
X188000000Y-79500000D03*
X182975000Y-80990000D03*
%TO.N,Net-(U3-BYPASS)*%
X189100000Y-81500000D03*
X182975000Y-78450000D03*
%TO.N,/AC_HOT*%
X141000000Y-93000000D03*
X138000000Y-94500000D03*
%TD*%
D17*
%TO.N,Net-(PS1-+Vout)*%
X166080000Y-78500000D02*
X164080000Y-76500000D01*
X167500000Y-78500000D02*
X166080000Y-78500000D01*
%TO.N,/VCC*%
X185500000Y-73500000D02*
X185500000Y-72500000D01*
X185500000Y-72500000D02*
X184000000Y-72500000D01*
X184000000Y-74500000D02*
X185000000Y-73500000D01*
X174000000Y-78000000D02*
X177500000Y-74500000D01*
X177500000Y-74500000D02*
X184000000Y-74500000D01*
X185000000Y-73500000D02*
X185500000Y-73500000D01*
%TO.N,Net-(C4-Pad1)*%
X188000000Y-79500000D02*
X184465000Y-79500000D01*
X184465000Y-79500000D02*
X182975000Y-80990000D01*
%TO.N,Net-(U3-BYPASS)*%
X187799943Y-78450000D02*
X182975000Y-78450000D01*
X189100000Y-81500000D02*
X189100000Y-79750057D01*
X189100000Y-79750057D02*
X187799943Y-78450000D01*
D18*
%TO.N,/AC_HOT*%
X141000000Y-93000000D02*
X139500000Y-93000000D01*
X139500000Y-93000000D02*
X138000000Y-94500000D01*
%TD*%
%TA.AperFunction,Conductor*%
%TO.N,GND*%
G36*
X188445131Y-61495488D02*
G01*
X188512006Y-61515717D01*
X188531802Y-61531803D01*
X188999999Y-61999999D01*
X189000000Y-62000000D01*
X190657217Y-62451968D01*
X190716712Y-62488597D01*
X190746961Y-62551580D01*
X190738358Y-62620918D01*
X190693633Y-62674597D01*
X190662906Y-62689529D01*
X190481585Y-62748444D01*
X190292179Y-62844951D01*
X190120213Y-62969890D01*
X189969890Y-63120213D01*
X189844951Y-63292179D01*
X189748444Y-63481585D01*
X189682753Y-63683760D01*
X189649500Y-63893713D01*
X189649500Y-64106286D01*
X189682753Y-64316239D01*
X189748444Y-64518414D01*
X189844951Y-64707820D01*
X189969890Y-64879786D01*
X190120213Y-65030109D01*
X190292179Y-65155048D01*
X190292181Y-65155049D01*
X190292184Y-65155051D01*
X190481588Y-65251557D01*
X190683757Y-65317246D01*
X190893713Y-65350500D01*
X190893714Y-65350500D01*
X191106286Y-65350500D01*
X191106287Y-65350500D01*
X191316243Y-65317246D01*
X191518412Y-65251557D01*
X191707816Y-65155051D01*
X191729789Y-65139086D01*
X191879786Y-65030109D01*
X191879788Y-65030106D01*
X191879792Y-65030104D01*
X192030104Y-64879792D01*
X192030106Y-64879788D01*
X192030109Y-64879786D01*
X192155048Y-64707820D01*
X192155047Y-64707820D01*
X192155051Y-64707816D01*
X192251557Y-64518412D01*
X192317246Y-64316243D01*
X192350500Y-64106287D01*
X192350500Y-63893713D01*
X192317246Y-63683757D01*
X192251557Y-63481588D01*
X192155051Y-63292184D01*
X192155049Y-63292181D01*
X192155048Y-63292179D01*
X192030109Y-63120213D01*
X191956275Y-63046379D01*
X191922790Y-62985056D01*
X191927774Y-62915364D01*
X191969646Y-62859431D01*
X192035110Y-62835014D01*
X192076576Y-62839066D01*
X194379504Y-63467137D01*
X194395454Y-63476957D01*
X194413449Y-63482154D01*
X194424587Y-63494893D01*
X194438999Y-63503766D01*
X194447107Y-63520649D01*
X194459439Y-63534753D01*
X194468562Y-63565322D01*
X194469248Y-63566749D01*
X194469533Y-63568573D01*
X194481754Y-63650962D01*
X194482947Y-63663071D01*
X194499351Y-63996966D01*
X194499500Y-64003051D01*
X194499500Y-105583843D01*
X194494461Y-105618832D01*
X193751550Y-108144724D01*
X193749167Y-108149507D01*
X193748964Y-108152547D01*
X193732188Y-108183600D01*
X193708778Y-108215166D01*
X193701057Y-108224574D01*
X193478611Y-108470006D01*
X193470006Y-108478611D01*
X193224576Y-108701055D01*
X193215170Y-108708775D01*
X192949106Y-108906102D01*
X192938988Y-108912862D01*
X192823042Y-108982358D01*
X192759293Y-109000000D01*
X132024801Y-109000000D01*
X131977109Y-108990462D01*
X126075165Y-106531318D01*
X126020853Y-106487363D01*
X125998927Y-106421023D01*
X125998869Y-106418578D01*
X125997448Y-106316239D01*
X125991580Y-105893713D01*
X127649500Y-105893713D01*
X127649500Y-106106287D01*
X127682754Y-106316243D01*
X127716799Y-106421023D01*
X127748444Y-106518414D01*
X127844951Y-106707820D01*
X127969890Y-106879786D01*
X128120213Y-107030109D01*
X128292179Y-107155048D01*
X128292181Y-107155049D01*
X128292184Y-107155051D01*
X128481588Y-107251557D01*
X128683757Y-107317246D01*
X128893713Y-107350500D01*
X128893714Y-107350500D01*
X129106286Y-107350500D01*
X129106287Y-107350500D01*
X129316243Y-107317246D01*
X129518412Y-107251557D01*
X129707816Y-107155051D01*
X129729789Y-107139086D01*
X129879786Y-107030109D01*
X129879788Y-107030106D01*
X129879792Y-107030104D01*
X130030104Y-106879792D01*
X130030106Y-106879788D01*
X130030109Y-106879786D01*
X130155048Y-106707820D01*
X130155047Y-106707820D01*
X130155051Y-106707816D01*
X130251557Y-106518412D01*
X130317246Y-106316243D01*
X130350500Y-106106287D01*
X130350500Y-105893713D01*
X130317246Y-105683757D01*
X130251557Y-105481588D01*
X130155051Y-105292184D01*
X130155049Y-105292181D01*
X130155048Y-105292179D01*
X130030109Y-105120213D01*
X129879786Y-104969890D01*
X129707820Y-104844951D01*
X129518414Y-104748444D01*
X129518413Y-104748443D01*
X129518412Y-104748443D01*
X129316243Y-104682754D01*
X129316241Y-104682753D01*
X129316240Y-104682753D01*
X129154957Y-104657208D01*
X129106287Y-104649500D01*
X128893713Y-104649500D01*
X128845042Y-104657208D01*
X128683760Y-104682753D01*
X128481585Y-104748444D01*
X128292179Y-104844951D01*
X128120213Y-104969890D01*
X127969890Y-105120213D01*
X127844951Y-105292179D01*
X127748444Y-105481585D01*
X127682753Y-105683760D01*
X127649500Y-105893713D01*
X125991580Y-105893713D01*
X125832239Y-94421153D01*
X137199500Y-94421153D01*
X137199500Y-94578846D01*
X137230261Y-94733489D01*
X137230264Y-94733501D01*
X137290602Y-94879172D01*
X137290609Y-94879185D01*
X137378210Y-95010288D01*
X137378213Y-95010292D01*
X137489707Y-95121786D01*
X137489711Y-95121789D01*
X137620814Y-95209390D01*
X137620827Y-95209397D01*
X137766498Y-95269735D01*
X137766503Y-95269737D01*
X137921153Y-95300499D01*
X137921156Y-95300500D01*
X137921158Y-95300500D01*
X138078844Y-95300500D01*
X138078845Y-95300499D01*
X138233497Y-95269737D01*
X138379179Y-95209394D01*
X138510289Y-95121789D01*
X138621789Y-95010289D01*
X138709394Y-94879179D01*
X138769193Y-94734809D01*
X138796070Y-94694584D01*
X139753837Y-93736819D01*
X139815160Y-93703334D01*
X139841518Y-93700500D01*
X140574684Y-93700500D01*
X140622136Y-93709939D01*
X140672519Y-93730808D01*
X140766503Y-93769737D01*
X140921153Y-93800499D01*
X140921156Y-93800500D01*
X140921158Y-93800500D01*
X141078844Y-93800500D01*
X141078845Y-93800499D01*
X141233497Y-93769737D01*
X141328048Y-93730572D01*
X141397517Y-93723104D01*
X141459996Y-93754379D01*
X141495648Y-93814468D01*
X141499500Y-93845134D01*
X141499500Y-107565891D01*
X141533608Y-107693187D01*
X141551345Y-107723908D01*
X141599500Y-107807314D01*
X141692686Y-107900500D01*
X141806814Y-107966392D01*
X141934108Y-108000500D01*
X141934110Y-108000500D01*
X144065890Y-108000500D01*
X144065892Y-108000500D01*
X144193186Y-107966392D01*
X144307314Y-107900500D01*
X144400500Y-107807314D01*
X144466392Y-107693186D01*
X144500500Y-107565892D01*
X144500500Y-105893713D01*
X189649500Y-105893713D01*
X189649500Y-106106287D01*
X189682754Y-106316243D01*
X189716799Y-106421023D01*
X189748444Y-106518414D01*
X189844951Y-106707820D01*
X189969890Y-106879786D01*
X190120213Y-107030109D01*
X190292179Y-107155048D01*
X190292181Y-107155049D01*
X190292184Y-107155051D01*
X190481588Y-107251557D01*
X190683757Y-107317246D01*
X190893713Y-107350500D01*
X190893714Y-107350500D01*
X191106286Y-107350500D01*
X191106287Y-107350500D01*
X191316243Y-107317246D01*
X191518412Y-107251557D01*
X191707816Y-107155051D01*
X191729789Y-107139086D01*
X191879786Y-107030109D01*
X191879788Y-107030106D01*
X191879792Y-107030104D01*
X192030104Y-106879792D01*
X192030106Y-106879788D01*
X192030109Y-106879786D01*
X192155048Y-106707820D01*
X192155047Y-106707820D01*
X192155051Y-106707816D01*
X192251557Y-106518412D01*
X192317246Y-106316243D01*
X192350500Y-106106287D01*
X192350500Y-105893713D01*
X192317246Y-105683757D01*
X192251557Y-105481588D01*
X192155051Y-105292184D01*
X192155049Y-105292181D01*
X192155048Y-105292179D01*
X192030109Y-105120213D01*
X191879786Y-104969890D01*
X191707820Y-104844951D01*
X191518414Y-104748444D01*
X191518413Y-104748443D01*
X191518412Y-104748443D01*
X191316243Y-104682754D01*
X191316241Y-104682753D01*
X191316240Y-104682753D01*
X191154957Y-104657208D01*
X191106287Y-104649500D01*
X190893713Y-104649500D01*
X190845042Y-104657208D01*
X190683760Y-104682753D01*
X190481585Y-104748444D01*
X190292179Y-104844951D01*
X190120213Y-104969890D01*
X189969890Y-105120213D01*
X189844951Y-105292179D01*
X189748444Y-105481585D01*
X189682753Y-105683760D01*
X189649500Y-105893713D01*
X144500500Y-105893713D01*
X144500500Y-103709983D01*
X161199500Y-103709983D01*
X161199500Y-104910001D01*
X161199501Y-104910018D01*
X161210000Y-105012796D01*
X161210001Y-105012799D01*
X161245595Y-105120213D01*
X161265186Y-105179334D01*
X161357288Y-105328656D01*
X161481344Y-105452712D01*
X161630666Y-105544814D01*
X161797203Y-105599999D01*
X161899991Y-105610500D01*
X163100008Y-105610499D01*
X163202797Y-105599999D01*
X163369334Y-105544814D01*
X163518656Y-105452712D01*
X163642712Y-105328656D01*
X163734814Y-105179334D01*
X163789999Y-105012797D01*
X163800500Y-104910009D01*
X163800499Y-103709992D01*
X163789999Y-103607203D01*
X163734814Y-103440666D01*
X163642712Y-103291344D01*
X163518656Y-103167288D01*
X163369334Y-103075186D01*
X163202797Y-103020001D01*
X163202795Y-103020000D01*
X163100010Y-103009500D01*
X161899998Y-103009500D01*
X161899981Y-103009501D01*
X161797203Y-103020000D01*
X161797200Y-103020001D01*
X161630668Y-103075185D01*
X161630663Y-103075187D01*
X161481342Y-103167289D01*
X161357289Y-103291342D01*
X161265187Y-103440663D01*
X161265186Y-103440666D01*
X161210001Y-103607203D01*
X161210001Y-103607204D01*
X161210000Y-103607204D01*
X161199500Y-103709983D01*
X144500500Y-103709983D01*
X144500500Y-96587648D01*
X161199500Y-96587648D01*
X161199500Y-96792351D01*
X161231522Y-96994534D01*
X161294781Y-97189223D01*
X161387715Y-97371613D01*
X161508028Y-97537213D01*
X161652786Y-97681971D01*
X161806089Y-97793350D01*
X161818390Y-97802287D01*
X161934607Y-97861503D01*
X162000776Y-97895218D01*
X162000778Y-97895218D01*
X162000781Y-97895220D01*
X162105137Y-97929127D01*
X162195465Y-97958477D01*
X162296557Y-97974488D01*
X162397648Y-97990500D01*
X162397649Y-97990500D01*
X162602351Y-97990500D01*
X162602352Y-97990500D01*
X162804534Y-97958477D01*
X162999219Y-97895220D01*
X163181610Y-97802287D01*
X163312505Y-97707187D01*
X163347213Y-97681971D01*
X163347215Y-97681968D01*
X163347219Y-97681966D01*
X163491966Y-97537219D01*
X163491968Y-97537215D01*
X163491971Y-97537213D01*
X163549978Y-97457372D01*
X163612287Y-97371610D01*
X163705220Y-97189219D01*
X163768477Y-96994534D01*
X163800500Y-96792352D01*
X163800500Y-96587648D01*
X163768477Y-96385466D01*
X163705220Y-96190781D01*
X163705218Y-96190778D01*
X163705218Y-96190776D01*
X163658914Y-96099901D01*
X163612287Y-96008390D01*
X163604556Y-95997749D01*
X163491971Y-95842786D01*
X163347217Y-95698032D01*
X163215252Y-95602155D01*
X179875000Y-95602155D01*
X179875000Y-96250000D01*
X180791988Y-96250000D01*
X180759075Y-96307007D01*
X180725000Y-96434174D01*
X180725000Y-96565826D01*
X180759075Y-96692993D01*
X180791988Y-96750000D01*
X179875000Y-96750000D01*
X179875000Y-97397844D01*
X179881401Y-97457372D01*
X179881403Y-97457379D01*
X179931645Y-97592086D01*
X179931649Y-97592093D01*
X180017809Y-97707187D01*
X180017812Y-97707190D01*
X180132906Y-97793350D01*
X180132913Y-97793354D01*
X180267620Y-97843596D01*
X180267627Y-97843598D01*
X180327155Y-97849999D01*
X180327172Y-97850000D01*
X180975000Y-97850000D01*
X180975000Y-96933012D01*
X181032007Y-96965925D01*
X181159174Y-97000000D01*
X181290826Y-97000000D01*
X181417993Y-96965925D01*
X181475000Y-96933012D01*
X181475000Y-97850000D01*
X182122828Y-97850000D01*
X182122844Y-97849999D01*
X182182372Y-97843598D01*
X182182379Y-97843596D01*
X182317086Y-97793354D01*
X182317093Y-97793350D01*
X182432187Y-97707190D01*
X182432190Y-97707187D01*
X182518350Y-97592093D01*
X182518354Y-97592086D01*
X182567422Y-97460529D01*
X182609293Y-97404595D01*
X182674757Y-97380178D01*
X182743030Y-97395030D01*
X182771285Y-97416181D01*
X182885213Y-97530109D01*
X183057179Y-97655048D01*
X183057181Y-97655049D01*
X183057184Y-97655051D01*
X183246588Y-97751557D01*
X183448757Y-97817246D01*
X183658713Y-97850500D01*
X183658714Y-97850500D01*
X183871286Y-97850500D01*
X183871287Y-97850500D01*
X184081243Y-97817246D01*
X184283412Y-97751557D01*
X184472816Y-97655051D01*
X184559471Y-97592093D01*
X184644786Y-97530109D01*
X184644788Y-97530106D01*
X184644792Y-97530104D01*
X184795104Y-97379792D01*
X184795106Y-97379788D01*
X184795109Y-97379786D01*
X184920048Y-97207820D01*
X184920047Y-97207820D01*
X184920051Y-97207816D01*
X185016557Y-97018412D01*
X185082246Y-96816243D01*
X185115500Y-96606287D01*
X185115500Y-96393713D01*
X185082246Y-96183757D01*
X185016557Y-95981588D01*
X184920051Y-95792184D01*
X184920049Y-95792181D01*
X184920048Y-95792179D01*
X184795109Y-95620213D01*
X184644786Y-95469890D01*
X184472820Y-95344951D01*
X184283414Y-95248444D01*
X184283413Y-95248443D01*
X184283412Y-95248443D01*
X184081243Y-95182754D01*
X184081241Y-95182753D01*
X184081240Y-95182753D01*
X183919957Y-95157208D01*
X183871287Y-95149500D01*
X183658713Y-95149500D01*
X183610042Y-95157208D01*
X183448760Y-95182753D01*
X183246585Y-95248444D01*
X183057179Y-95344951D01*
X182885215Y-95469889D01*
X182771285Y-95583819D01*
X182709962Y-95617303D01*
X182640270Y-95612319D01*
X182584337Y-95570447D01*
X182567422Y-95539470D01*
X182518354Y-95407913D01*
X182518350Y-95407906D01*
X182432190Y-95292812D01*
X182432187Y-95292809D01*
X182317093Y-95206649D01*
X182317086Y-95206645D01*
X182182379Y-95156403D01*
X182182372Y-95156401D01*
X182122844Y-95150000D01*
X181475000Y-95150000D01*
X181475000Y-96066988D01*
X181417993Y-96034075D01*
X181290826Y-96000000D01*
X181159174Y-96000000D01*
X181032007Y-96034075D01*
X180975000Y-96066988D01*
X180975000Y-95150000D01*
X180327155Y-95150000D01*
X180267627Y-95156401D01*
X180267620Y-95156403D01*
X180132913Y-95206645D01*
X180132906Y-95206649D01*
X180017812Y-95292809D01*
X180017809Y-95292812D01*
X179931649Y-95407906D01*
X179931645Y-95407913D01*
X179881403Y-95542620D01*
X179881401Y-95542627D01*
X179875000Y-95602155D01*
X163215252Y-95602155D01*
X163181609Y-95577712D01*
X162999223Y-95484781D01*
X162804534Y-95421522D01*
X162629995Y-95393878D01*
X162602352Y-95389500D01*
X162397648Y-95389500D01*
X162373329Y-95393351D01*
X162195465Y-95421522D01*
X162000776Y-95484781D01*
X161818386Y-95577715D01*
X161652786Y-95698028D01*
X161508028Y-95842786D01*
X161387715Y-96008386D01*
X161294781Y-96190776D01*
X161231522Y-96385465D01*
X161199500Y-96587648D01*
X144500500Y-96587648D01*
X144500500Y-86743713D01*
X162729500Y-86743713D01*
X162729500Y-87256286D01*
X162762753Y-87466239D01*
X162828444Y-87668414D01*
X162924951Y-87857820D01*
X163049890Y-88029786D01*
X163200213Y-88180109D01*
X163372179Y-88305048D01*
X163372181Y-88305049D01*
X163372184Y-88305051D01*
X163561588Y-88401557D01*
X163763757Y-88467246D01*
X163973713Y-88500500D01*
X163973714Y-88500500D01*
X164186286Y-88500500D01*
X164186287Y-88500500D01*
X164396243Y-88467246D01*
X164598412Y-88401557D01*
X164787816Y-88305051D01*
X164809789Y-88289086D01*
X164959786Y-88180109D01*
X164959788Y-88180106D01*
X164959792Y-88180104D01*
X165110104Y-88029792D01*
X165110106Y-88029788D01*
X165110109Y-88029786D01*
X165235048Y-87857820D01*
X165235047Y-87857820D01*
X165235051Y-87857816D01*
X165331557Y-87668412D01*
X165397246Y-87466243D01*
X165430500Y-87256287D01*
X165430500Y-86743713D01*
X165397246Y-86533757D01*
X165331557Y-86331588D01*
X165235051Y-86142184D01*
X165235049Y-86142181D01*
X165235048Y-86142179D01*
X165110109Y-85970213D01*
X164959786Y-85819890D01*
X164787820Y-85694951D01*
X164598414Y-85598444D01*
X164598413Y-85598443D01*
X164598412Y-85598443D01*
X164396243Y-85532754D01*
X164396241Y-85532753D01*
X164396240Y-85532753D01*
X164234957Y-85507208D01*
X164186287Y-85499500D01*
X163973713Y-85499500D01*
X163925042Y-85507208D01*
X163763760Y-85532753D01*
X163561585Y-85598444D01*
X163372179Y-85694951D01*
X163200213Y-85819890D01*
X163049890Y-85970213D01*
X162924951Y-86142179D01*
X162828444Y-86331585D01*
X162762753Y-86533760D01*
X162729500Y-86743713D01*
X144500500Y-86743713D01*
X144500500Y-76421153D01*
X163279500Y-76421153D01*
X163279500Y-76578846D01*
X163310261Y-76733489D01*
X163310264Y-76733501D01*
X163370602Y-76879172D01*
X163370609Y-76879185D01*
X163458210Y-77010288D01*
X163458213Y-77010292D01*
X163569707Y-77121786D01*
X163569711Y-77121789D01*
X163700814Y-77209390D01*
X163700827Y-77209397D01*
X163846498Y-77269735D01*
X163846503Y-77269737D01*
X163911147Y-77282595D01*
X164001849Y-77300638D01*
X164063760Y-77333023D01*
X164065339Y-77334574D01*
X165595139Y-78864374D01*
X165595149Y-78864385D01*
X165599479Y-78868715D01*
X165599480Y-78868716D01*
X165711284Y-78980520D01*
X165778767Y-79019481D01*
X165848215Y-79059577D01*
X166000943Y-79100500D01*
X166920234Y-79100500D01*
X166987273Y-79120185D01*
X166989125Y-79121398D01*
X167120814Y-79209390D01*
X167120827Y-79209397D01*
X167248261Y-79262181D01*
X167266503Y-79269737D01*
X167421153Y-79300499D01*
X167421156Y-79300500D01*
X167421158Y-79300500D01*
X167578844Y-79300500D01*
X167578845Y-79300499D01*
X167733497Y-79269737D01*
X167879179Y-79209394D01*
X168010289Y-79121789D01*
X168121789Y-79010289D01*
X168209394Y-78879179D01*
X168269737Y-78733497D01*
X168300500Y-78578842D01*
X168300500Y-78421158D01*
X168300500Y-78421155D01*
X168300499Y-78421153D01*
X168292150Y-78379179D01*
X168269737Y-78266503D01*
X168249918Y-78218656D01*
X168209397Y-78120827D01*
X168209390Y-78120814D01*
X168121790Y-77989712D01*
X168121784Y-77989705D01*
X168053232Y-77921153D01*
X173199500Y-77921153D01*
X173199500Y-78078846D01*
X173230261Y-78233489D01*
X173230264Y-78233501D01*
X173290602Y-78379172D01*
X173290609Y-78379185D01*
X173378210Y-78510288D01*
X173378213Y-78510292D01*
X173489707Y-78621786D01*
X173489711Y-78621789D01*
X173620814Y-78709390D01*
X173620827Y-78709397D01*
X173766498Y-78769735D01*
X173766503Y-78769737D01*
X173921153Y-78800499D01*
X173921156Y-78800500D01*
X173921158Y-78800500D01*
X174078844Y-78800500D01*
X174078845Y-78800499D01*
X174233497Y-78769737D01*
X174379179Y-78709394D01*
X174510289Y-78621789D01*
X174621789Y-78510289D01*
X174709394Y-78379179D01*
X174709395Y-78379176D01*
X174709397Y-78379173D01*
X174712719Y-78371153D01*
X182174500Y-78371153D01*
X182174500Y-78528846D01*
X182205261Y-78683489D01*
X182205264Y-78683501D01*
X182265602Y-78829172D01*
X182265609Y-78829185D01*
X182353210Y-78960288D01*
X182353213Y-78960292D01*
X182464707Y-79071786D01*
X182464711Y-79071789D01*
X182595814Y-79159390D01*
X182595827Y-79159397D01*
X182741498Y-79219735D01*
X182741503Y-79219737D01*
X182896153Y-79250499D01*
X182896156Y-79250500D01*
X182896158Y-79250500D01*
X183053844Y-79250500D01*
X183053845Y-79250499D01*
X183208497Y-79219737D01*
X183354179Y-79159394D01*
X183410459Y-79121789D01*
X183485875Y-79071398D01*
X183503921Y-79065747D01*
X183519831Y-79055523D01*
X183550792Y-79051071D01*
X183552553Y-79050520D01*
X183554766Y-79050500D01*
X183765902Y-79050500D01*
X183832941Y-79070185D01*
X183878696Y-79122989D01*
X183888640Y-79192147D01*
X183859615Y-79255703D01*
X183853583Y-79262181D01*
X182960339Y-80155425D01*
X182899016Y-80188910D01*
X182896850Y-80189361D01*
X182741508Y-80220261D01*
X182741498Y-80220264D01*
X182595827Y-80280602D01*
X182595814Y-80280609D01*
X182464711Y-80368210D01*
X182464707Y-80368213D01*
X182353213Y-80479707D01*
X182353210Y-80479711D01*
X182265609Y-80610814D01*
X182265602Y-80610827D01*
X182205264Y-80756498D01*
X182205261Y-80756510D01*
X182174500Y-80911153D01*
X182174500Y-81068846D01*
X182205261Y-81223489D01*
X182205264Y-81223501D01*
X182265602Y-81369172D01*
X182265609Y-81369185D01*
X182353210Y-81500288D01*
X182353213Y-81500292D01*
X182464707Y-81611786D01*
X182464711Y-81611789D01*
X182595814Y-81699390D01*
X182595827Y-81699397D01*
X182678163Y-81733501D01*
X182741503Y-81759737D01*
X182896153Y-81790499D01*
X182896156Y-81790500D01*
X182896158Y-81790500D01*
X183053844Y-81790500D01*
X183053845Y-81790499D01*
X183208497Y-81759737D01*
X183354179Y-81699394D01*
X183485289Y-81611789D01*
X183596789Y-81500289D01*
X183684394Y-81369179D01*
X183744737Y-81223497D01*
X183764113Y-81126085D01*
X183775638Y-81068150D01*
X183808023Y-81006239D01*
X183809518Y-81004716D01*
X184677416Y-80136819D01*
X184738739Y-80103334D01*
X184765097Y-80100500D01*
X187420234Y-80100500D01*
X187487273Y-80120185D01*
X187489125Y-80121398D01*
X187620814Y-80209390D01*
X187620827Y-80209397D01*
X187729425Y-80254379D01*
X187766503Y-80269737D01*
X187921153Y-80300499D01*
X187921156Y-80300500D01*
X187921158Y-80300500D01*
X188078844Y-80300500D01*
X188078845Y-80300499D01*
X188233497Y-80269737D01*
X188328048Y-80230572D01*
X188397517Y-80223104D01*
X188459996Y-80254379D01*
X188495648Y-80314468D01*
X188499500Y-80345134D01*
X188499500Y-80920234D01*
X188479815Y-80987273D01*
X188478602Y-80989125D01*
X188390609Y-81120814D01*
X188390602Y-81120827D01*
X188330264Y-81266498D01*
X188330261Y-81266510D01*
X188299500Y-81421153D01*
X188299500Y-81578846D01*
X188330261Y-81733489D01*
X188330264Y-81733501D01*
X188390602Y-81879172D01*
X188390609Y-81879185D01*
X188478210Y-82010288D01*
X188478213Y-82010292D01*
X188589707Y-82121786D01*
X188589711Y-82121789D01*
X188720814Y-82209390D01*
X188720827Y-82209397D01*
X188866498Y-82269735D01*
X188866503Y-82269737D01*
X189021153Y-82300499D01*
X189021156Y-82300500D01*
X189021158Y-82300500D01*
X189178844Y-82300500D01*
X189178845Y-82300499D01*
X189333497Y-82269737D01*
X189479179Y-82209394D01*
X189610289Y-82121789D01*
X189721789Y-82010289D01*
X189809394Y-81879179D01*
X189869737Y-81733497D01*
X189900500Y-81578842D01*
X189900500Y-81421158D01*
X189900500Y-81421155D01*
X189900499Y-81421153D01*
X189882683Y-81331588D01*
X189869737Y-81266503D01*
X189851925Y-81223501D01*
X189809397Y-81120827D01*
X189809390Y-81120814D01*
X189721398Y-80989125D01*
X189700520Y-80922447D01*
X189700500Y-80920234D01*
X189700500Y-79671003D01*
X189700500Y-79671000D01*
X189675865Y-79579058D01*
X189659577Y-79518272D01*
X189603508Y-79421158D01*
X189580520Y-79381341D01*
X189468716Y-79269537D01*
X189468713Y-79269535D01*
X188287533Y-78088355D01*
X188287531Y-78088352D01*
X188168660Y-77969481D01*
X188168652Y-77969475D01*
X188053161Y-77902797D01*
X188053160Y-77902796D01*
X188038095Y-77894099D01*
X188031728Y-77890423D01*
X187879000Y-77849499D01*
X187720886Y-77849499D01*
X187713290Y-77849499D01*
X187713274Y-77849500D01*
X183554766Y-77849500D01*
X183487727Y-77829815D01*
X183485875Y-77828602D01*
X183354185Y-77740609D01*
X183354172Y-77740602D01*
X183208501Y-77680264D01*
X183208489Y-77680261D01*
X183053845Y-77649500D01*
X183053842Y-77649500D01*
X182896158Y-77649500D01*
X182896155Y-77649500D01*
X182741510Y-77680261D01*
X182741498Y-77680264D01*
X182595827Y-77740602D01*
X182595814Y-77740609D01*
X182464711Y-77828210D01*
X182464707Y-77828213D01*
X182353213Y-77939707D01*
X182353210Y-77939711D01*
X182265609Y-78070814D01*
X182265602Y-78070827D01*
X182205264Y-78216498D01*
X182205261Y-78216510D01*
X182174500Y-78371153D01*
X174712719Y-78371153D01*
X174734895Y-78317614D01*
X174734895Y-78317613D01*
X174769737Y-78233497D01*
X174798608Y-78088355D01*
X174800638Y-78078150D01*
X174833023Y-78016239D01*
X174834518Y-78014716D01*
X177712416Y-75136819D01*
X177773739Y-75103334D01*
X177800097Y-75100500D01*
X183913331Y-75100500D01*
X183913347Y-75100501D01*
X183920943Y-75100501D01*
X184079054Y-75100501D01*
X184079057Y-75100501D01*
X184231785Y-75059577D01*
X184281904Y-75030639D01*
X184368716Y-74980520D01*
X184480520Y-74868716D01*
X184480520Y-74868714D01*
X184490728Y-74858507D01*
X184490729Y-74858504D01*
X185212417Y-74136819D01*
X185273740Y-74103334D01*
X185300098Y-74100500D01*
X185579055Y-74100500D01*
X185579057Y-74100500D01*
X185731784Y-74059577D01*
X185868716Y-73980520D01*
X185980520Y-73868716D01*
X186059577Y-73731784D01*
X186100500Y-73579057D01*
X186100500Y-72420943D01*
X186059577Y-72268216D01*
X186049060Y-72250000D01*
X185980524Y-72131290D01*
X185980518Y-72131282D01*
X185868717Y-72019481D01*
X185868709Y-72019475D01*
X185731790Y-71940426D01*
X185731786Y-71940424D01*
X185731784Y-71940423D01*
X185579057Y-71899500D01*
X185579056Y-71899500D01*
X184579766Y-71899500D01*
X184512727Y-71879815D01*
X184510875Y-71878602D01*
X184379185Y-71790609D01*
X184379172Y-71790602D01*
X184233501Y-71730264D01*
X184233489Y-71730261D01*
X184078845Y-71699500D01*
X184078842Y-71699500D01*
X183921158Y-71699500D01*
X183921155Y-71699500D01*
X183766510Y-71730261D01*
X183766498Y-71730264D01*
X183620827Y-71790602D01*
X183620814Y-71790609D01*
X183489711Y-71878210D01*
X183489707Y-71878213D01*
X183378213Y-71989707D01*
X183378210Y-71989711D01*
X183290609Y-72120814D01*
X183290602Y-72120827D01*
X183230264Y-72266498D01*
X183230261Y-72266510D01*
X183199500Y-72421153D01*
X183199500Y-72578846D01*
X183230261Y-72733489D01*
X183230264Y-72733501D01*
X183290602Y-72879172D01*
X183290609Y-72879185D01*
X183378210Y-73010288D01*
X183378213Y-73010292D01*
X183489707Y-73121786D01*
X183489711Y-73121789D01*
X183620814Y-73209390D01*
X183620827Y-73209397D01*
X183766498Y-73269735D01*
X183766503Y-73269737D01*
X183921153Y-73300499D01*
X183921156Y-73300500D01*
X184050903Y-73300500D01*
X184117942Y-73320185D01*
X184163697Y-73372989D01*
X184173641Y-73442147D01*
X184144616Y-73505703D01*
X184138584Y-73512181D01*
X183787584Y-73863181D01*
X183726261Y-73896666D01*
X183699903Y-73899500D01*
X177420940Y-73899500D01*
X177380019Y-73910464D01*
X177380019Y-73910465D01*
X177342751Y-73920451D01*
X177268214Y-73940423D01*
X177268209Y-73940426D01*
X177131290Y-74019475D01*
X177131282Y-74019481D01*
X173985339Y-77165425D01*
X173924016Y-77198910D01*
X173921850Y-77199361D01*
X173766508Y-77230261D01*
X173766498Y-77230264D01*
X173620827Y-77290602D01*
X173620814Y-77290609D01*
X173489711Y-77378210D01*
X173489707Y-77378213D01*
X173378213Y-77489707D01*
X173378210Y-77489711D01*
X173290609Y-77620814D01*
X173290602Y-77620827D01*
X173230264Y-77766498D01*
X173230261Y-77766510D01*
X173199500Y-77921153D01*
X168053232Y-77921153D01*
X168010292Y-77878213D01*
X168010288Y-77878210D01*
X167879185Y-77790609D01*
X167879172Y-77790602D01*
X167733501Y-77730264D01*
X167733489Y-77730261D01*
X167578845Y-77699500D01*
X167578842Y-77699500D01*
X167421158Y-77699500D01*
X167421155Y-77699500D01*
X167266510Y-77730261D01*
X167266498Y-77730264D01*
X167120827Y-77790602D01*
X167120814Y-77790609D01*
X166989125Y-77878602D01*
X166922447Y-77899480D01*
X166920234Y-77899500D01*
X166380097Y-77899500D01*
X166313058Y-77879815D01*
X166292416Y-77863181D01*
X164914574Y-76485339D01*
X164881089Y-76424016D01*
X164880638Y-76421849D01*
X164849738Y-76266510D01*
X164849737Y-76266503D01*
X164822190Y-76199998D01*
X164789397Y-76120827D01*
X164789390Y-76120814D01*
X164701789Y-75989711D01*
X164701786Y-75989707D01*
X164590292Y-75878213D01*
X164590288Y-75878210D01*
X164459185Y-75790609D01*
X164459172Y-75790602D01*
X164313501Y-75730264D01*
X164313489Y-75730261D01*
X164158845Y-75699500D01*
X164158842Y-75699500D01*
X164001158Y-75699500D01*
X164001155Y-75699500D01*
X163846510Y-75730261D01*
X163846498Y-75730264D01*
X163700827Y-75790602D01*
X163700814Y-75790609D01*
X163569711Y-75878210D01*
X163569707Y-75878213D01*
X163458213Y-75989707D01*
X163458210Y-75989711D01*
X163370609Y-76120814D01*
X163370602Y-76120827D01*
X163310264Y-76266498D01*
X163310261Y-76266510D01*
X163279500Y-76421153D01*
X144500500Y-76421153D01*
X144500500Y-71743753D01*
X162730000Y-71743753D01*
X162730000Y-71750000D01*
X163646988Y-71750000D01*
X163614075Y-71807007D01*
X163580000Y-71934174D01*
X163580000Y-72065826D01*
X163614075Y-72192993D01*
X163646988Y-72250000D01*
X162730000Y-72250000D01*
X162730000Y-72256246D01*
X162763242Y-72466127D01*
X162763242Y-72466130D01*
X162828904Y-72668217D01*
X162925379Y-72857557D01*
X163050272Y-73029459D01*
X163050276Y-73029464D01*
X163200535Y-73179723D01*
X163200540Y-73179727D01*
X163372442Y-73304620D01*
X163561782Y-73401095D01*
X163763871Y-73466757D01*
X163830000Y-73477231D01*
X163830000Y-72433012D01*
X163887007Y-72465925D01*
X164014174Y-72500000D01*
X164145826Y-72500000D01*
X164272993Y-72465925D01*
X164330000Y-72433012D01*
X164330000Y-73477230D01*
X164396126Y-73466757D01*
X164396129Y-73466757D01*
X164598217Y-73401095D01*
X164787557Y-73304620D01*
X164959459Y-73179727D01*
X164959464Y-73179723D01*
X165109723Y-73029464D01*
X165109727Y-73029459D01*
X165234620Y-72857557D01*
X165331095Y-72668217D01*
X165396757Y-72466130D01*
X165396757Y-72466127D01*
X165430000Y-72256246D01*
X165430000Y-72250000D01*
X164513012Y-72250000D01*
X164545925Y-72192993D01*
X164580000Y-72065826D01*
X164580000Y-71934174D01*
X164545925Y-71807007D01*
X164513012Y-71750000D01*
X165430000Y-71750000D01*
X165430000Y-71743753D01*
X165396757Y-71533872D01*
X165396757Y-71533869D01*
X165331095Y-71331782D01*
X165234620Y-71142442D01*
X165109727Y-70970540D01*
X165109723Y-70970535D01*
X164959464Y-70820276D01*
X164959459Y-70820272D01*
X164787557Y-70695379D01*
X164598215Y-70598903D01*
X164396124Y-70533241D01*
X164330000Y-70522768D01*
X164330000Y-71566988D01*
X164272993Y-71534075D01*
X164145826Y-71500000D01*
X164014174Y-71500000D01*
X163887007Y-71534075D01*
X163830000Y-71566988D01*
X163830000Y-70522768D01*
X163829999Y-70522768D01*
X163763875Y-70533241D01*
X163561784Y-70598903D01*
X163372442Y-70695379D01*
X163200540Y-70820272D01*
X163200535Y-70820276D01*
X163050276Y-70970535D01*
X163050272Y-70970540D01*
X162925379Y-71142442D01*
X162828904Y-71331782D01*
X162763242Y-71533869D01*
X162763242Y-71533872D01*
X162730000Y-71743753D01*
X144500500Y-71743753D01*
X144500500Y-63934108D01*
X144466392Y-63806814D01*
X144400500Y-63692686D01*
X144307314Y-63599500D01*
X144248116Y-63565322D01*
X144193187Y-63533608D01*
X144129539Y-63516554D01*
X144065892Y-63499500D01*
X142065892Y-63499500D01*
X141934108Y-63499500D01*
X141806812Y-63533608D01*
X141692686Y-63599500D01*
X141692683Y-63599502D01*
X141599502Y-63692683D01*
X141599500Y-63692686D01*
X141533608Y-63806812D01*
X141499500Y-63934108D01*
X141499500Y-92154865D01*
X141479815Y-92221904D01*
X141427011Y-92267659D01*
X141357853Y-92277603D01*
X141328048Y-92269427D01*
X141323780Y-92267659D01*
X141233497Y-92230263D01*
X141233494Y-92230262D01*
X141233491Y-92230261D01*
X141078845Y-92199500D01*
X141078842Y-92199500D01*
X140921158Y-92199500D01*
X140921155Y-92199500D01*
X140766510Y-92230261D01*
X140766498Y-92230264D01*
X140622136Y-92290061D01*
X140574684Y-92299500D01*
X139431003Y-92299500D01*
X139333760Y-92318843D01*
X139333758Y-92318843D01*
X139322591Y-92321065D01*
X139295671Y-92326420D01*
X139242866Y-92348292D01*
X139168189Y-92379225D01*
X139168188Y-92379226D01*
X139147199Y-92393249D01*
X139147192Y-92393253D01*
X139053457Y-92455886D01*
X139053453Y-92455889D01*
X137805414Y-93703928D01*
X137765186Y-93730808D01*
X137620823Y-93790604D01*
X137620814Y-93790609D01*
X137489711Y-93878210D01*
X137489707Y-93878213D01*
X137378213Y-93989707D01*
X137378210Y-93989711D01*
X137290609Y-94120814D01*
X137290602Y-94120827D01*
X137230264Y-94266498D01*
X137230261Y-94266510D01*
X137199500Y-94421153D01*
X125832239Y-94421153D01*
X125635691Y-80269735D01*
X125608710Y-78327135D01*
X126649500Y-78327135D01*
X126649500Y-80122870D01*
X126649501Y-80122876D01*
X126655908Y-80182483D01*
X126706202Y-80317328D01*
X126706206Y-80317335D01*
X126792452Y-80432544D01*
X126792455Y-80432547D01*
X126907664Y-80518793D01*
X126907671Y-80518797D01*
X127039082Y-80567810D01*
X127095016Y-80609681D01*
X127119433Y-80675145D01*
X127104582Y-80743418D01*
X127083431Y-80771673D01*
X126969889Y-80885215D01*
X126844951Y-81057179D01*
X126748444Y-81246585D01*
X126682753Y-81448760D01*
X126656932Y-81611789D01*
X126649500Y-81658713D01*
X126649500Y-81871287D01*
X126682754Y-82081243D01*
X126739629Y-82256286D01*
X126748444Y-82283414D01*
X126844951Y-82472820D01*
X126969890Y-82644786D01*
X127120213Y-82795109D01*
X127292179Y-82920048D01*
X127292181Y-82920049D01*
X127292184Y-82920051D01*
X127481588Y-83016557D01*
X127683757Y-83082246D01*
X127893713Y-83115500D01*
X127893714Y-83115500D01*
X128106286Y-83115500D01*
X128106287Y-83115500D01*
X128316243Y-83082246D01*
X128518412Y-83016557D01*
X128707816Y-82920051D01*
X128729789Y-82904086D01*
X128879786Y-82795109D01*
X128879788Y-82795106D01*
X128879792Y-82795104D01*
X129030104Y-82644792D01*
X129030106Y-82644788D01*
X129030109Y-82644786D01*
X129155048Y-82472820D01*
X129155047Y-82472820D01*
X129155051Y-82472816D01*
X129251557Y-82283412D01*
X129317246Y-82081243D01*
X129350500Y-81871287D01*
X129350500Y-81743713D01*
X133649500Y-81743713D01*
X133649500Y-82256287D01*
X133682754Y-82466243D01*
X133740768Y-82644792D01*
X133748444Y-82668414D01*
X133844951Y-82857820D01*
X133969890Y-83029786D01*
X134120213Y-83180109D01*
X134292179Y-83305048D01*
X134292181Y-83305049D01*
X134292184Y-83305051D01*
X134481588Y-83401557D01*
X134683757Y-83467246D01*
X134893713Y-83500500D01*
X134893714Y-83500500D01*
X135106286Y-83500500D01*
X135106287Y-83500500D01*
X135316243Y-83467246D01*
X135518412Y-83401557D01*
X135707816Y-83305051D01*
X135729789Y-83289086D01*
X135879786Y-83180109D01*
X135879788Y-83180106D01*
X135879792Y-83180104D01*
X136030104Y-83029792D01*
X136030106Y-83029788D01*
X136030109Y-83029786D01*
X136155048Y-82857820D01*
X136155047Y-82857820D01*
X136155051Y-82857816D01*
X136251557Y-82668412D01*
X136317246Y-82466243D01*
X136350500Y-82256287D01*
X136350500Y-81743713D01*
X136317246Y-81533757D01*
X136251557Y-81331588D01*
X136155051Y-81142184D01*
X136155049Y-81142181D01*
X136155048Y-81142179D01*
X136030109Y-80970213D01*
X135879786Y-80819890D01*
X135707820Y-80694951D01*
X135518414Y-80598444D01*
X135518413Y-80598443D01*
X135518412Y-80598443D01*
X135316243Y-80532754D01*
X135316241Y-80532753D01*
X135316240Y-80532753D01*
X135154957Y-80507208D01*
X135106287Y-80499500D01*
X134893713Y-80499500D01*
X134845042Y-80507208D01*
X134683760Y-80532753D01*
X134683757Y-80532754D01*
X134523808Y-80584725D01*
X134481585Y-80598444D01*
X134292179Y-80694951D01*
X134120213Y-80819890D01*
X133969890Y-80970213D01*
X133844951Y-81142179D01*
X133748444Y-81331585D01*
X133682753Y-81533760D01*
X133670395Y-81611786D01*
X133649500Y-81743713D01*
X129350500Y-81743713D01*
X129350500Y-81658713D01*
X129317246Y-81448757D01*
X129251557Y-81246588D01*
X129155051Y-81057184D01*
X129155049Y-81057181D01*
X129155048Y-81057179D01*
X129030109Y-80885213D01*
X128916569Y-80771673D01*
X128883084Y-80710350D01*
X128888068Y-80640658D01*
X128929940Y-80584725D01*
X128960915Y-80567810D01*
X129092331Y-80518796D01*
X129207546Y-80432546D01*
X129293796Y-80317331D01*
X129344091Y-80182483D01*
X129350500Y-80122873D01*
X129350499Y-78327128D01*
X129344091Y-78267517D01*
X129343715Y-78266510D01*
X129293797Y-78132671D01*
X129293793Y-78132664D01*
X129207547Y-78017455D01*
X129207544Y-78017452D01*
X129092335Y-77931206D01*
X129092328Y-77931202D01*
X128957482Y-77880908D01*
X128957483Y-77880908D01*
X128897883Y-77874501D01*
X128897881Y-77874500D01*
X128897873Y-77874500D01*
X128897864Y-77874500D01*
X127102129Y-77874500D01*
X127102123Y-77874501D01*
X127042516Y-77880908D01*
X126907671Y-77931202D01*
X126907664Y-77931206D01*
X126792455Y-78017452D01*
X126792452Y-78017455D01*
X126706206Y-78132664D01*
X126706202Y-78132671D01*
X126655908Y-78267517D01*
X126649672Y-78325528D01*
X126649501Y-78327123D01*
X126649500Y-78327135D01*
X125608710Y-78327135D01*
X125608688Y-78325528D01*
X125579167Y-76199983D01*
X133649500Y-76199983D01*
X133649500Y-77800001D01*
X133649501Y-77800018D01*
X133660000Y-77902796D01*
X133660001Y-77902797D01*
X133715185Y-78069331D01*
X133715187Y-78069336D01*
X133721053Y-78078846D01*
X133807288Y-78218656D01*
X133931344Y-78342712D01*
X134080666Y-78434814D01*
X134247203Y-78489999D01*
X134349991Y-78500500D01*
X135650008Y-78500499D01*
X135752797Y-78489999D01*
X135919334Y-78434814D01*
X136068656Y-78342712D01*
X136192712Y-78218656D01*
X136284814Y-78069334D01*
X136339999Y-77902797D01*
X136350500Y-77800009D01*
X136350499Y-76199992D01*
X136339999Y-76097203D01*
X136284814Y-75930666D01*
X136192712Y-75781344D01*
X136068656Y-75657288D01*
X135919334Y-75565186D01*
X135752797Y-75510001D01*
X135752795Y-75510000D01*
X135650010Y-75499500D01*
X134349998Y-75499500D01*
X134349981Y-75499501D01*
X134247203Y-75510000D01*
X134247200Y-75510001D01*
X134080668Y-75565185D01*
X134080663Y-75565187D01*
X133931342Y-75657289D01*
X133807289Y-75781342D01*
X133715187Y-75930663D01*
X133715186Y-75930666D01*
X133660001Y-76097203D01*
X133660001Y-76097204D01*
X133660000Y-76097204D01*
X133649500Y-76199983D01*
X125579167Y-76199983D01*
X125579147Y-76198556D01*
X125500512Y-70536864D01*
X125500500Y-70535142D01*
X125500500Y-70510535D01*
X125503160Y-70484990D01*
X126584105Y-65350500D01*
X126890797Y-63893713D01*
X127649500Y-63893713D01*
X127649500Y-64106286D01*
X127682753Y-64316239D01*
X127748444Y-64518414D01*
X127844951Y-64707820D01*
X127969890Y-64879786D01*
X128120213Y-65030109D01*
X128292179Y-65155048D01*
X128292181Y-65155049D01*
X128292184Y-65155051D01*
X128481588Y-65251557D01*
X128683757Y-65317246D01*
X128893713Y-65350500D01*
X128893714Y-65350500D01*
X129106286Y-65350500D01*
X129106287Y-65350500D01*
X129316243Y-65317246D01*
X129518412Y-65251557D01*
X129707816Y-65155051D01*
X129729789Y-65139086D01*
X129879786Y-65030109D01*
X129879788Y-65030106D01*
X129879792Y-65030104D01*
X130030104Y-64879792D01*
X130030106Y-64879788D01*
X130030109Y-64879786D01*
X130155048Y-64707820D01*
X130155047Y-64707820D01*
X130155051Y-64707816D01*
X130251557Y-64518412D01*
X130317246Y-64316243D01*
X130350500Y-64106287D01*
X130350500Y-63893713D01*
X130317246Y-63683757D01*
X130251557Y-63481588D01*
X130155051Y-63292184D01*
X130155049Y-63292181D01*
X130155048Y-63292179D01*
X130030109Y-63120213D01*
X129879786Y-62969890D01*
X129707820Y-62844951D01*
X129518414Y-62748444D01*
X129518413Y-62748443D01*
X129518412Y-62748443D01*
X129316243Y-62682754D01*
X129316241Y-62682753D01*
X129316240Y-62682753D01*
X129154957Y-62657208D01*
X129106287Y-62649500D01*
X128893713Y-62649500D01*
X128845042Y-62657208D01*
X128683760Y-62682753D01*
X128481585Y-62748444D01*
X128292179Y-62844951D01*
X128120213Y-62969890D01*
X127969890Y-63120213D01*
X127844951Y-63292179D01*
X127748444Y-63481585D01*
X127682753Y-63683760D01*
X127649500Y-63893713D01*
X126890797Y-63893713D01*
X127479100Y-61099271D01*
X127512172Y-61037728D01*
X127573269Y-61003833D01*
X127601440Y-61000824D01*
X188445131Y-61495488D01*
G37*
%TD.AperFunction*%
%TD*%
M02*
