%TF.GenerationSoftware,KiCad,Pcbnew,9.0.6*%
%TF.CreationDate,2026-09-18T05:16:21+03:00*%
%TF.ProjectId,eavesdrop2,65617665-7364-4726-9f70-322e6b696361,rev?*%
%TF.SameCoordinates,Original*%
%TF.FileFunction,Paste,Top*%
%TF.FilePolarity,Positive*%
%FSLAX46Y46*%
G04 Gerber Fmt 4.6, Leading zero omitted, Abs format (unit mm)*
G04 Created by KiCad (PCBNEW 9.0.6) date 2026-09-18 05:16:21*
%MOMM*%
%LPD*%
G01*
G04 APERTURE LIST*
G04 Aperture macros list*
%AMRoundRect*
0 Rectangle with rounded corners*
0 $1 Rounding radius*
0 $2 $3 $4 $5 $6 $7 $8 $9 X,Y pos of 4 corners*
0 Add a 4 corners polygon primitive as box body*
4,1,4,$2,$3,$4,$5,$6,$7,$8,$9,$2,$3,0*
0 Add four circle primitives for the rounded corners*
1,1,$1+$1,$2,$3*
1,1,$1+$1,$4,$5*
1,1,$1+$1,$6,$7*
1,1,$1+$1,$8,$9*
0 Add four rect primitives between the rounded corners*
20,1,$1+$1,$2,$3,$4,$5,0*
20,1,$1+$1,$4,$5,$6,$7,0*
20,1,$1+$1,$6,$7,$8,$9,0*
20,1,$1+$1,$8,$9,$2,$3,0*%
G04 Aperture macros list end*
%ADD10RoundRect,0.225000X0.250000X-0.225000X0.250000X0.225000X-0.250000X0.225000X-0.250000X-0.225000X0*%
%ADD11RoundRect,0.218750X-0.218750X-0.381250X0.218750X-0.381250X0.218750X0.381250X-0.218750X0.381250X0*%
%ADD12RoundRect,0.250000X0.325000X1.100000X-0.325000X1.100000X-0.325000X-1.100000X0.325000X-1.100000X0*%
%ADD13RoundRect,0.150000X-0.587500X-0.150000X0.587500X-0.150000X0.587500X0.150000X-0.587500X0.150000X0*%
%ADD14RoundRect,0.312500X0.962500X-0.312500X0.962500X0.312500X-0.962500X0.312500X-0.962500X-0.312500X0*%
%ADD15RoundRect,0.200000X0.200000X0.275000X-0.200000X0.275000X-0.200000X-0.275000X0.200000X-0.275000X0*%
%ADD16RoundRect,0.200000X-0.275000X0.200000X-0.275000X-0.200000X0.275000X-0.200000X0.275000X0.200000X0*%
%ADD17RoundRect,0.150000X-0.825000X-0.150000X0.825000X-0.150000X0.825000X0.150000X-0.825000X0.150000X0*%
%ADD18RoundRect,0.225000X-0.225000X-0.250000X0.225000X-0.250000X0.225000X0.250000X-0.225000X0.250000X0*%
G04 APERTURE END LIST*
D10*
%TO.C,C3*%
X172510000Y-80775000D03*
X172510000Y-79225000D03*
%TD*%
D11*
%TO.C,L1*%
X170412500Y-75500000D03*
X172537500Y-75500000D03*
%TD*%
D12*
%TO.C,C11*%
X180975000Y-72500000D03*
X178025000Y-72500000D03*
%TD*%
D13*
%TO.C,RN1*%
X167125000Y-99550000D03*
X167125000Y-101450000D03*
X169000000Y-100500000D03*
%TD*%
D10*
%TO.C,C12*%
X187000000Y-82275000D03*
X187000000Y-80725000D03*
%TD*%
D14*
%TO.C,T1*%
X150825000Y-97500000D03*
X150825000Y-102500000D03*
X138175000Y-102500000D03*
X138175000Y-97500000D03*
%TD*%
D15*
%TO.C,R1*%
X133100000Y-101500000D03*
X131450000Y-101500000D03*
%TD*%
D12*
%TO.C,C4*%
X189975000Y-86000000D03*
X187025000Y-86000000D03*
%TD*%
D10*
%TO.C,C1*%
X170000000Y-80775000D03*
X170000000Y-79225000D03*
%TD*%
D16*
%TO.C,R4*%
X188500000Y-77350000D03*
X188500000Y-79000000D03*
%TD*%
D12*
%TO.C,C2*%
X189975000Y-72500000D03*
X187025000Y-72500000D03*
%TD*%
D17*
%TO.C,U3*%
X178025000Y-77180000D03*
X178025000Y-78450000D03*
X178025000Y-79720000D03*
X178025000Y-80990000D03*
X182975000Y-80990000D03*
X182975000Y-79720000D03*
X182975000Y-78450000D03*
X182975000Y-77180000D03*
%TD*%
D15*
%TO.C,R2*%
X157150000Y-106500000D03*
X155500000Y-106500000D03*
%TD*%
D18*
%TO.C,C43*%
X155725000Y-102500000D03*
X157275000Y-102500000D03*
%TD*%
%TO.C,C5*%
X155725000Y-98000000D03*
X157275000Y-98000000D03*
%TD*%
D10*
%TO.C,C26*%
X190000000Y-82275000D03*
X190000000Y-80725000D03*
%TD*%
D18*
%TO.C,CY4*%
X131500000Y-98500000D03*
X133050000Y-98500000D03*
%TD*%
M02*
