%TF.GenerationSoftware,KiCad,Pcbnew,9.0.6*%
%TF.CreationDate,2026-09-18T05:16:21+03:00*%
%TF.ProjectId,eavesdrop2,65617665-7364-4726-9f70-322e6b696361,rev?*%
%TF.SameCoordinates,Original*%
%TF.FileFunction,Legend,Top*%
%TF.FilePolarity,Positive*%
%FSLAX46Y46*%
G04 Gerber Fmt 4.6, Leading zero omitted, Abs format (unit mm)*
G04 Created by KiCad (PCBNEW 9.0.6) date 2026-09-18 05:16:21*
%MOMM*%
%LPD*%
G01*
G04 APERTURE LIST*
%ADD10C,0.250000*%
%ADD11C,0.150000*%
%ADD12C,0.120000*%
G04 APERTURE END LIST*
D10*
X135902568Y-61340809D02*
X136235901Y-61340809D01*
X136378758Y-61864619D02*
X135902568Y-61864619D01*
X135902568Y-61864619D02*
X135902568Y-60864619D01*
X135902568Y-60864619D02*
X136378758Y-60864619D01*
X137235901Y-61864619D02*
X137235901Y-61340809D01*
X137235901Y-61340809D02*
X137188282Y-61245571D01*
X137188282Y-61245571D02*
X137093044Y-61197952D01*
X137093044Y-61197952D02*
X136902568Y-61197952D01*
X136902568Y-61197952D02*
X136807330Y-61245571D01*
X137235901Y-61817000D02*
X137140663Y-61864619D01*
X137140663Y-61864619D02*
X136902568Y-61864619D01*
X136902568Y-61864619D02*
X136807330Y-61817000D01*
X136807330Y-61817000D02*
X136759711Y-61721761D01*
X136759711Y-61721761D02*
X136759711Y-61626523D01*
X136759711Y-61626523D02*
X136807330Y-61531285D01*
X136807330Y-61531285D02*
X136902568Y-61483666D01*
X136902568Y-61483666D02*
X137140663Y-61483666D01*
X137140663Y-61483666D02*
X137235901Y-61436047D01*
X137616854Y-61197952D02*
X137854949Y-61864619D01*
X137854949Y-61864619D02*
X138093044Y-61197952D01*
X138854949Y-61817000D02*
X138759711Y-61864619D01*
X138759711Y-61864619D02*
X138569235Y-61864619D01*
X138569235Y-61864619D02*
X138473997Y-61817000D01*
X138473997Y-61817000D02*
X138426378Y-61721761D01*
X138426378Y-61721761D02*
X138426378Y-61340809D01*
X138426378Y-61340809D02*
X138473997Y-61245571D01*
X138473997Y-61245571D02*
X138569235Y-61197952D01*
X138569235Y-61197952D02*
X138759711Y-61197952D01*
X138759711Y-61197952D02*
X138854949Y-61245571D01*
X138854949Y-61245571D02*
X138902568Y-61340809D01*
X138902568Y-61340809D02*
X138902568Y-61436047D01*
X138902568Y-61436047D02*
X138426378Y-61531285D01*
X139283521Y-61817000D02*
X139378759Y-61864619D01*
X139378759Y-61864619D02*
X139569235Y-61864619D01*
X139569235Y-61864619D02*
X139664473Y-61817000D01*
X139664473Y-61817000D02*
X139712092Y-61721761D01*
X139712092Y-61721761D02*
X139712092Y-61674142D01*
X139712092Y-61674142D02*
X139664473Y-61578904D01*
X139664473Y-61578904D02*
X139569235Y-61531285D01*
X139569235Y-61531285D02*
X139426378Y-61531285D01*
X139426378Y-61531285D02*
X139331140Y-61483666D01*
X139331140Y-61483666D02*
X139283521Y-61388428D01*
X139283521Y-61388428D02*
X139283521Y-61340809D01*
X139283521Y-61340809D02*
X139331140Y-61245571D01*
X139331140Y-61245571D02*
X139426378Y-61197952D01*
X139426378Y-61197952D02*
X139569235Y-61197952D01*
X139569235Y-61197952D02*
X139664473Y-61245571D01*
X140569235Y-61864619D02*
X140569235Y-60864619D01*
X140569235Y-61817000D02*
X140473997Y-61864619D01*
X140473997Y-61864619D02*
X140283521Y-61864619D01*
X140283521Y-61864619D02*
X140188283Y-61817000D01*
X140188283Y-61817000D02*
X140140664Y-61769380D01*
X140140664Y-61769380D02*
X140093045Y-61674142D01*
X140093045Y-61674142D02*
X140093045Y-61388428D01*
X140093045Y-61388428D02*
X140140664Y-61293190D01*
X140140664Y-61293190D02*
X140188283Y-61245571D01*
X140188283Y-61245571D02*
X140283521Y-61197952D01*
X140283521Y-61197952D02*
X140473997Y-61197952D01*
X140473997Y-61197952D02*
X140569235Y-61245571D01*
X141045426Y-61864619D02*
X141045426Y-61197952D01*
X141045426Y-61388428D02*
X141093045Y-61293190D01*
X141093045Y-61293190D02*
X141140664Y-61245571D01*
X141140664Y-61245571D02*
X141235902Y-61197952D01*
X141235902Y-61197952D02*
X141331140Y-61197952D01*
X141807331Y-61864619D02*
X141712093Y-61817000D01*
X141712093Y-61817000D02*
X141664474Y-61769380D01*
X141664474Y-61769380D02*
X141616855Y-61674142D01*
X141616855Y-61674142D02*
X141616855Y-61388428D01*
X141616855Y-61388428D02*
X141664474Y-61293190D01*
X141664474Y-61293190D02*
X141712093Y-61245571D01*
X141712093Y-61245571D02*
X141807331Y-61197952D01*
X141807331Y-61197952D02*
X141950188Y-61197952D01*
X141950188Y-61197952D02*
X142045426Y-61245571D01*
X142045426Y-61245571D02*
X142093045Y-61293190D01*
X142093045Y-61293190D02*
X142140664Y-61388428D01*
X142140664Y-61388428D02*
X142140664Y-61674142D01*
X142140664Y-61674142D02*
X142093045Y-61769380D01*
X142093045Y-61769380D02*
X142045426Y-61817000D01*
X142045426Y-61817000D02*
X141950188Y-61864619D01*
X141950188Y-61864619D02*
X141807331Y-61864619D01*
X142569236Y-61197952D02*
X142569236Y-62197952D01*
X142569236Y-61245571D02*
X142664474Y-61197952D01*
X142664474Y-61197952D02*
X142854950Y-61197952D01*
X142854950Y-61197952D02*
X142950188Y-61245571D01*
X142950188Y-61245571D02*
X142997807Y-61293190D01*
X142997807Y-61293190D02*
X143045426Y-61388428D01*
X143045426Y-61388428D02*
X143045426Y-61674142D01*
X143045426Y-61674142D02*
X142997807Y-61769380D01*
X142997807Y-61769380D02*
X142950188Y-61817000D01*
X142950188Y-61817000D02*
X142854950Y-61864619D01*
X142854950Y-61864619D02*
X142664474Y-61864619D01*
X142664474Y-61864619D02*
X142569236Y-61817000D01*
X144807331Y-61864619D02*
X144473998Y-61388428D01*
X144235903Y-61864619D02*
X144235903Y-60864619D01*
X144235903Y-60864619D02*
X144616855Y-60864619D01*
X144616855Y-60864619D02*
X144712093Y-60912238D01*
X144712093Y-60912238D02*
X144759712Y-60959857D01*
X144759712Y-60959857D02*
X144807331Y-61055095D01*
X144807331Y-61055095D02*
X144807331Y-61197952D01*
X144807331Y-61197952D02*
X144759712Y-61293190D01*
X144759712Y-61293190D02*
X144712093Y-61340809D01*
X144712093Y-61340809D02*
X144616855Y-61388428D01*
X144616855Y-61388428D02*
X144235903Y-61388428D01*
X145616855Y-61817000D02*
X145521617Y-61864619D01*
X145521617Y-61864619D02*
X145331141Y-61864619D01*
X145331141Y-61864619D02*
X145235903Y-61817000D01*
X145235903Y-61817000D02*
X145188284Y-61721761D01*
X145188284Y-61721761D02*
X145188284Y-61340809D01*
X145188284Y-61340809D02*
X145235903Y-61245571D01*
X145235903Y-61245571D02*
X145331141Y-61197952D01*
X145331141Y-61197952D02*
X145521617Y-61197952D01*
X145521617Y-61197952D02*
X145616855Y-61245571D01*
X145616855Y-61245571D02*
X145664474Y-61340809D01*
X145664474Y-61340809D02*
X145664474Y-61436047D01*
X145664474Y-61436047D02*
X145188284Y-61531285D01*
X146521617Y-61817000D02*
X146426379Y-61864619D01*
X146426379Y-61864619D02*
X146235903Y-61864619D01*
X146235903Y-61864619D02*
X146140665Y-61817000D01*
X146140665Y-61817000D02*
X146093046Y-61769380D01*
X146093046Y-61769380D02*
X146045427Y-61674142D01*
X146045427Y-61674142D02*
X146045427Y-61388428D01*
X146045427Y-61388428D02*
X146093046Y-61293190D01*
X146093046Y-61293190D02*
X146140665Y-61245571D01*
X146140665Y-61245571D02*
X146235903Y-61197952D01*
X146235903Y-61197952D02*
X146426379Y-61197952D01*
X146426379Y-61197952D02*
X146521617Y-61245571D01*
X147331141Y-61817000D02*
X147235903Y-61864619D01*
X147235903Y-61864619D02*
X147045427Y-61864619D01*
X147045427Y-61864619D02*
X146950189Y-61817000D01*
X146950189Y-61817000D02*
X146902570Y-61721761D01*
X146902570Y-61721761D02*
X146902570Y-61340809D01*
X146902570Y-61340809D02*
X146950189Y-61245571D01*
X146950189Y-61245571D02*
X147045427Y-61197952D01*
X147045427Y-61197952D02*
X147235903Y-61197952D01*
X147235903Y-61197952D02*
X147331141Y-61245571D01*
X147331141Y-61245571D02*
X147378760Y-61340809D01*
X147378760Y-61340809D02*
X147378760Y-61436047D01*
X147378760Y-61436047D02*
X146902570Y-61531285D01*
X147807332Y-61864619D02*
X147807332Y-61197952D01*
X147807332Y-60864619D02*
X147759713Y-60912238D01*
X147759713Y-60912238D02*
X147807332Y-60959857D01*
X147807332Y-60959857D02*
X147854951Y-60912238D01*
X147854951Y-60912238D02*
X147807332Y-60864619D01*
X147807332Y-60864619D02*
X147807332Y-60959857D01*
X148188284Y-61197952D02*
X148426379Y-61864619D01*
X148426379Y-61864619D02*
X148664474Y-61197952D01*
X149426379Y-61817000D02*
X149331141Y-61864619D01*
X149331141Y-61864619D02*
X149140665Y-61864619D01*
X149140665Y-61864619D02*
X149045427Y-61817000D01*
X149045427Y-61817000D02*
X148997808Y-61721761D01*
X148997808Y-61721761D02*
X148997808Y-61340809D01*
X148997808Y-61340809D02*
X149045427Y-61245571D01*
X149045427Y-61245571D02*
X149140665Y-61197952D01*
X149140665Y-61197952D02*
X149331141Y-61197952D01*
X149331141Y-61197952D02*
X149426379Y-61245571D01*
X149426379Y-61245571D02*
X149473998Y-61340809D01*
X149473998Y-61340809D02*
X149473998Y-61436047D01*
X149473998Y-61436047D02*
X148997808Y-61531285D01*
X149902570Y-61864619D02*
X149902570Y-61197952D01*
X149902570Y-61388428D02*
X149950189Y-61293190D01*
X149950189Y-61293190D02*
X149997808Y-61245571D01*
X149997808Y-61245571D02*
X150093046Y-61197952D01*
X150093046Y-61197952D02*
X150188284Y-61197952D01*
X151140666Y-60864619D02*
X151473999Y-61864619D01*
X151473999Y-61864619D02*
X151807332Y-60864619D01*
X152664475Y-61864619D02*
X152093047Y-61864619D01*
X152378761Y-61864619D02*
X152378761Y-60864619D01*
X152378761Y-60864619D02*
X152283523Y-61007476D01*
X152283523Y-61007476D02*
X152188285Y-61102714D01*
X152188285Y-61102714D02*
X152093047Y-61150333D01*
X153093047Y-61769380D02*
X153140666Y-61817000D01*
X153140666Y-61817000D02*
X153093047Y-61864619D01*
X153093047Y-61864619D02*
X153045428Y-61817000D01*
X153045428Y-61817000D02*
X153093047Y-61769380D01*
X153093047Y-61769380D02*
X153093047Y-61864619D01*
X153759713Y-60864619D02*
X153854951Y-60864619D01*
X153854951Y-60864619D02*
X153950189Y-60912238D01*
X153950189Y-60912238D02*
X153997808Y-60959857D01*
X153997808Y-60959857D02*
X154045427Y-61055095D01*
X154045427Y-61055095D02*
X154093046Y-61245571D01*
X154093046Y-61245571D02*
X154093046Y-61483666D01*
X154093046Y-61483666D02*
X154045427Y-61674142D01*
X154045427Y-61674142D02*
X153997808Y-61769380D01*
X153997808Y-61769380D02*
X153950189Y-61817000D01*
X153950189Y-61817000D02*
X153854951Y-61864619D01*
X153854951Y-61864619D02*
X153759713Y-61864619D01*
X153759713Y-61864619D02*
X153664475Y-61817000D01*
X153664475Y-61817000D02*
X153616856Y-61769380D01*
X153616856Y-61769380D02*
X153569237Y-61674142D01*
X153569237Y-61674142D02*
X153521618Y-61483666D01*
X153521618Y-61483666D02*
X153521618Y-61245571D01*
X153521618Y-61245571D02*
X153569237Y-61055095D01*
X153569237Y-61055095D02*
X153616856Y-60959857D01*
X153616856Y-60959857D02*
X153664475Y-60912238D01*
X153664475Y-60912238D02*
X153759713Y-60864619D01*
X155283523Y-61483666D02*
X156045428Y-61483666D01*
X157235904Y-61817000D02*
X157378761Y-61864619D01*
X157378761Y-61864619D02*
X157616856Y-61864619D01*
X157616856Y-61864619D02*
X157712094Y-61817000D01*
X157712094Y-61817000D02*
X157759713Y-61769380D01*
X157759713Y-61769380D02*
X157807332Y-61674142D01*
X157807332Y-61674142D02*
X157807332Y-61578904D01*
X157807332Y-61578904D02*
X157759713Y-61483666D01*
X157759713Y-61483666D02*
X157712094Y-61436047D01*
X157712094Y-61436047D02*
X157616856Y-61388428D01*
X157616856Y-61388428D02*
X157426380Y-61340809D01*
X157426380Y-61340809D02*
X157331142Y-61293190D01*
X157331142Y-61293190D02*
X157283523Y-61245571D01*
X157283523Y-61245571D02*
X157235904Y-61150333D01*
X157235904Y-61150333D02*
X157235904Y-61055095D01*
X157235904Y-61055095D02*
X157283523Y-60959857D01*
X157283523Y-60959857D02*
X157331142Y-60912238D01*
X157331142Y-60912238D02*
X157426380Y-60864619D01*
X157426380Y-60864619D02*
X157664475Y-60864619D01*
X157664475Y-60864619D02*
X157807332Y-60912238D01*
X158664475Y-61864619D02*
X158664475Y-61340809D01*
X158664475Y-61340809D02*
X158616856Y-61245571D01*
X158616856Y-61245571D02*
X158521618Y-61197952D01*
X158521618Y-61197952D02*
X158331142Y-61197952D01*
X158331142Y-61197952D02*
X158235904Y-61245571D01*
X158664475Y-61817000D02*
X158569237Y-61864619D01*
X158569237Y-61864619D02*
X158331142Y-61864619D01*
X158331142Y-61864619D02*
X158235904Y-61817000D01*
X158235904Y-61817000D02*
X158188285Y-61721761D01*
X158188285Y-61721761D02*
X158188285Y-61626523D01*
X158188285Y-61626523D02*
X158235904Y-61531285D01*
X158235904Y-61531285D02*
X158331142Y-61483666D01*
X158331142Y-61483666D02*
X158569237Y-61483666D01*
X158569237Y-61483666D02*
X158664475Y-61436047D01*
X159140666Y-61864619D02*
X159140666Y-61197952D01*
X159140666Y-61293190D02*
X159188285Y-61245571D01*
X159188285Y-61245571D02*
X159283523Y-61197952D01*
X159283523Y-61197952D02*
X159426380Y-61197952D01*
X159426380Y-61197952D02*
X159521618Y-61245571D01*
X159521618Y-61245571D02*
X159569237Y-61340809D01*
X159569237Y-61340809D02*
X159569237Y-61864619D01*
X159569237Y-61340809D02*
X159616856Y-61245571D01*
X159616856Y-61245571D02*
X159712094Y-61197952D01*
X159712094Y-61197952D02*
X159854951Y-61197952D01*
X159854951Y-61197952D02*
X159950190Y-61245571D01*
X159950190Y-61245571D02*
X159997809Y-61340809D01*
X159997809Y-61340809D02*
X159997809Y-61864619D01*
X160378761Y-61197952D02*
X160616856Y-61864619D01*
X160854951Y-61197952D02*
X160616856Y-61864619D01*
X160616856Y-61864619D02*
X160521618Y-62102714D01*
X160521618Y-62102714D02*
X160473999Y-62150333D01*
X160473999Y-62150333D02*
X160378761Y-62197952D01*
X161235904Y-61864619D02*
X161235904Y-60864619D01*
X161902570Y-60864619D02*
X162093046Y-60864619D01*
X162093046Y-60864619D02*
X162188284Y-60912238D01*
X162188284Y-60912238D02*
X162283522Y-61007476D01*
X162283522Y-61007476D02*
X162331141Y-61197952D01*
X162331141Y-61197952D02*
X162331141Y-61531285D01*
X162331141Y-61531285D02*
X162283522Y-61721761D01*
X162283522Y-61721761D02*
X162188284Y-61817000D01*
X162188284Y-61817000D02*
X162093046Y-61864619D01*
X162093046Y-61864619D02*
X161902570Y-61864619D01*
X161902570Y-61864619D02*
X161807332Y-61817000D01*
X161807332Y-61817000D02*
X161712094Y-61721761D01*
X161712094Y-61721761D02*
X161664475Y-61531285D01*
X161664475Y-61531285D02*
X161664475Y-61197952D01*
X161664475Y-61197952D02*
X161712094Y-61007476D01*
X161712094Y-61007476D02*
X161807332Y-60912238D01*
X161807332Y-60912238D02*
X161902570Y-60864619D01*
X162902570Y-61864619D02*
X162807332Y-61817000D01*
X162807332Y-61817000D02*
X162759713Y-61769380D01*
X162759713Y-61769380D02*
X162712094Y-61674142D01*
X162712094Y-61674142D02*
X162712094Y-61388428D01*
X162712094Y-61388428D02*
X162759713Y-61293190D01*
X162759713Y-61293190D02*
X162807332Y-61245571D01*
X162807332Y-61245571D02*
X162902570Y-61197952D01*
X162902570Y-61197952D02*
X163045427Y-61197952D01*
X163045427Y-61197952D02*
X163140665Y-61245571D01*
X163140665Y-61245571D02*
X163188284Y-61293190D01*
X163188284Y-61293190D02*
X163235903Y-61388428D01*
X163235903Y-61388428D02*
X163235903Y-61674142D01*
X163235903Y-61674142D02*
X163188284Y-61769380D01*
X163188284Y-61769380D02*
X163140665Y-61817000D01*
X163140665Y-61817000D02*
X163045427Y-61864619D01*
X163045427Y-61864619D02*
X162902570Y-61864619D01*
X163854951Y-60864619D02*
X164045427Y-60864619D01*
X164045427Y-60864619D02*
X164140665Y-60912238D01*
X164140665Y-60912238D02*
X164235903Y-61007476D01*
X164235903Y-61007476D02*
X164283522Y-61197952D01*
X164283522Y-61197952D02*
X164283522Y-61531285D01*
X164283522Y-61531285D02*
X164235903Y-61721761D01*
X164235903Y-61721761D02*
X164140665Y-61817000D01*
X164140665Y-61817000D02*
X164045427Y-61864619D01*
X164045427Y-61864619D02*
X163854951Y-61864619D01*
X163854951Y-61864619D02*
X163759713Y-61817000D01*
X163759713Y-61817000D02*
X163664475Y-61721761D01*
X163664475Y-61721761D02*
X163616856Y-61531285D01*
X163616856Y-61531285D02*
X163616856Y-61197952D01*
X163616856Y-61197952D02*
X163664475Y-61007476D01*
X163664475Y-61007476D02*
X163759713Y-60912238D01*
X163759713Y-60912238D02*
X163854951Y-60864619D01*
X164712094Y-61864619D02*
X164712094Y-60864619D01*
X166093046Y-61864619D02*
X165997808Y-61817000D01*
X165997808Y-61817000D02*
X165950189Y-61769380D01*
X165950189Y-61769380D02*
X165902570Y-61674142D01*
X165902570Y-61674142D02*
X165902570Y-61388428D01*
X165902570Y-61388428D02*
X165950189Y-61293190D01*
X165950189Y-61293190D02*
X165997808Y-61245571D01*
X165997808Y-61245571D02*
X166093046Y-61197952D01*
X166093046Y-61197952D02*
X166235903Y-61197952D01*
X166235903Y-61197952D02*
X166331141Y-61245571D01*
X166331141Y-61245571D02*
X166378760Y-61293190D01*
X166378760Y-61293190D02*
X166426379Y-61388428D01*
X166426379Y-61388428D02*
X166426379Y-61674142D01*
X166426379Y-61674142D02*
X166378760Y-61769380D01*
X166378760Y-61769380D02*
X166331141Y-61817000D01*
X166331141Y-61817000D02*
X166235903Y-61864619D01*
X166235903Y-61864619D02*
X166093046Y-61864619D01*
X166854951Y-61197952D02*
X166854951Y-61864619D01*
X166854951Y-61293190D02*
X166902570Y-61245571D01*
X166902570Y-61245571D02*
X166997808Y-61197952D01*
X166997808Y-61197952D02*
X167140665Y-61197952D01*
X167140665Y-61197952D02*
X167235903Y-61245571D01*
X167235903Y-61245571D02*
X167283522Y-61340809D01*
X167283522Y-61340809D02*
X167283522Y-61864619D01*
X169045427Y-60912238D02*
X168950189Y-60864619D01*
X168950189Y-60864619D02*
X168807332Y-60864619D01*
X168807332Y-60864619D02*
X168664475Y-60912238D01*
X168664475Y-60912238D02*
X168569237Y-61007476D01*
X168569237Y-61007476D02*
X168521618Y-61102714D01*
X168521618Y-61102714D02*
X168473999Y-61293190D01*
X168473999Y-61293190D02*
X168473999Y-61436047D01*
X168473999Y-61436047D02*
X168521618Y-61626523D01*
X168521618Y-61626523D02*
X168569237Y-61721761D01*
X168569237Y-61721761D02*
X168664475Y-61817000D01*
X168664475Y-61817000D02*
X168807332Y-61864619D01*
X168807332Y-61864619D02*
X168902570Y-61864619D01*
X168902570Y-61864619D02*
X169045427Y-61817000D01*
X169045427Y-61817000D02*
X169093046Y-61769380D01*
X169093046Y-61769380D02*
X169093046Y-61436047D01*
X169093046Y-61436047D02*
X168902570Y-61436047D01*
X169521618Y-61864619D02*
X169521618Y-61197952D01*
X169521618Y-60864619D02*
X169473999Y-60912238D01*
X169473999Y-60912238D02*
X169521618Y-60959857D01*
X169521618Y-60959857D02*
X169569237Y-60912238D01*
X169569237Y-60912238D02*
X169521618Y-60864619D01*
X169521618Y-60864619D02*
X169521618Y-60959857D01*
X169854951Y-61197952D02*
X170235903Y-61197952D01*
X169997808Y-60864619D02*
X169997808Y-61721761D01*
X169997808Y-61721761D02*
X170045427Y-61817000D01*
X170045427Y-61817000D02*
X170140665Y-61864619D01*
X170140665Y-61864619D02*
X170235903Y-61864619D01*
X170569237Y-61864619D02*
X170569237Y-60864619D01*
X170997808Y-61864619D02*
X170997808Y-61340809D01*
X170997808Y-61340809D02*
X170950189Y-61245571D01*
X170950189Y-61245571D02*
X170854951Y-61197952D01*
X170854951Y-61197952D02*
X170712094Y-61197952D01*
X170712094Y-61197952D02*
X170616856Y-61245571D01*
X170616856Y-61245571D02*
X170569237Y-61293190D01*
X171902570Y-61197952D02*
X171902570Y-61864619D01*
X171473999Y-61197952D02*
X171473999Y-61721761D01*
X171473999Y-61721761D02*
X171521618Y-61817000D01*
X171521618Y-61817000D02*
X171616856Y-61864619D01*
X171616856Y-61864619D02*
X171759713Y-61864619D01*
X171759713Y-61864619D02*
X171854951Y-61817000D01*
X171854951Y-61817000D02*
X171902570Y-61769380D01*
X172378761Y-61864619D02*
X172378761Y-60864619D01*
X172378761Y-61245571D02*
X172473999Y-61197952D01*
X172473999Y-61197952D02*
X172664475Y-61197952D01*
X172664475Y-61197952D02*
X172759713Y-61245571D01*
X172759713Y-61245571D02*
X172807332Y-61293190D01*
X172807332Y-61293190D02*
X172854951Y-61388428D01*
X172854951Y-61388428D02*
X172854951Y-61674142D01*
X172854951Y-61674142D02*
X172807332Y-61769380D01*
X172807332Y-61769380D02*
X172759713Y-61817000D01*
X172759713Y-61817000D02*
X172664475Y-61864619D01*
X172664475Y-61864619D02*
X172473999Y-61864619D01*
X172473999Y-61864619D02*
X172378761Y-61817000D01*
X173283523Y-61769380D02*
X173331142Y-61817000D01*
X173331142Y-61817000D02*
X173283523Y-61864619D01*
X173283523Y-61864619D02*
X173235904Y-61817000D01*
X173235904Y-61817000D02*
X173283523Y-61769380D01*
X173283523Y-61769380D02*
X173283523Y-61864619D01*
D11*
X126404762Y-84954819D02*
X126404762Y-83954819D01*
X126404762Y-83954819D02*
X126976190Y-84954819D01*
X126976190Y-84954819D02*
X126976190Y-83954819D01*
X128166667Y-84669104D02*
X128642857Y-84669104D01*
X128071429Y-84954819D02*
X128404762Y-83954819D01*
X128404762Y-83954819D02*
X128738095Y-84954819D01*
X129642857Y-84859580D02*
X129595238Y-84907200D01*
X129595238Y-84907200D02*
X129452381Y-84954819D01*
X129452381Y-84954819D02*
X129357143Y-84954819D01*
X129357143Y-84954819D02*
X129214286Y-84907200D01*
X129214286Y-84907200D02*
X129119048Y-84811961D01*
X129119048Y-84811961D02*
X129071429Y-84716723D01*
X129071429Y-84716723D02*
X129023810Y-84526247D01*
X129023810Y-84526247D02*
X129023810Y-84383390D01*
X129023810Y-84383390D02*
X129071429Y-84192914D01*
X129071429Y-84192914D02*
X129119048Y-84097676D01*
X129119048Y-84097676D02*
X129214286Y-84002438D01*
X129214286Y-84002438D02*
X129357143Y-83954819D01*
X129357143Y-83954819D02*
X129452381Y-83954819D01*
X129452381Y-83954819D02*
X129595238Y-84002438D01*
X129595238Y-84002438D02*
X129642857Y-84050057D01*
G36*
X133646106Y-64585555D02*
G01*
X133692383Y-64603682D01*
X133732135Y-64633644D01*
X133762637Y-64672888D01*
X133781046Y-64718644D01*
X133787456Y-64772862D01*
X133787456Y-65456376D01*
X133781010Y-65510568D01*
X133762488Y-65556324D01*
X133731769Y-65595594D01*
X133691807Y-65625605D01*
X133645628Y-65643710D01*
X133591391Y-65650000D01*
X133346842Y-65650000D01*
X133346842Y-65564026D01*
X133441853Y-65564026D01*
X133568187Y-65564026D01*
X133603839Y-65560264D01*
X133633338Y-65549611D01*
X133658008Y-65532336D01*
X133676834Y-65509177D01*
X133688400Y-65480737D01*
X133692507Y-65445446D01*
X133692507Y-64782449D01*
X133688617Y-64748839D01*
X133677540Y-64720981D01*
X133659351Y-64697575D01*
X133635552Y-64679830D01*
X133607411Y-64669009D01*
X133573683Y-64665212D01*
X133441853Y-64665212D01*
X133441853Y-65564026D01*
X133346842Y-65564026D01*
X133346842Y-64579239D01*
X133591391Y-64579239D01*
X133646106Y-64585555D01*
G37*
G36*
X134385607Y-65650000D02*
G01*
X134291329Y-65650000D01*
X134253777Y-65415526D01*
X134041286Y-65415526D01*
X134003734Y-65650000D01*
X133912204Y-65650000D01*
X133912204Y-65647252D01*
X133968892Y-65329553D01*
X134053620Y-65329553D01*
X134241443Y-65329553D01*
X134147898Y-64750087D01*
X134053620Y-65329553D01*
X133968892Y-65329553D01*
X134102774Y-64579239D01*
X134196380Y-64579239D01*
X134385607Y-65650000D01*
G37*
G36*
X134954937Y-65650000D02*
G01*
X134889358Y-65650000D01*
X134603838Y-64862500D01*
X134603838Y-65650000D01*
X134514323Y-65650000D01*
X134514323Y-64579239D01*
X134585398Y-64579239D01*
X134865483Y-65353061D01*
X134865483Y-64579239D01*
X134954937Y-64579239D01*
X134954937Y-65650000D01*
G37*
G36*
X135558339Y-65570743D02*
G01*
X135552860Y-65603010D01*
X135537151Y-65627896D01*
X135513209Y-65644345D01*
X135482502Y-65650000D01*
X135201745Y-65650000D01*
X135171037Y-65644345D01*
X135147095Y-65627896D01*
X135131386Y-65603010D01*
X135125907Y-65570743D01*
X135125907Y-64658496D01*
X135131388Y-64626238D01*
X135147095Y-64601404D01*
X135171042Y-64584907D01*
X135201745Y-64579239D01*
X135482502Y-64579239D01*
X135513204Y-64584907D01*
X135537151Y-64601404D01*
X135552858Y-64626238D01*
X135558339Y-64658496D01*
X135558339Y-64907501D01*
X135462718Y-64907501D01*
X135462718Y-64665212D01*
X135220918Y-64665212D01*
X135220918Y-65564026D01*
X135462718Y-65564026D01*
X135462718Y-65196685D01*
X135348657Y-65196685D01*
X135348657Y-65114619D01*
X135558339Y-65114619D01*
X135558339Y-65570743D01*
G37*
G36*
X136078882Y-65650000D02*
G01*
X135727722Y-65650000D01*
X135727722Y-64579239D01*
X136074791Y-64579239D01*
X136074791Y-64665212D01*
X135822732Y-64665212D01*
X135822732Y-65063817D01*
X136052259Y-65063817D01*
X136052259Y-65149790D01*
X135822732Y-65149790D01*
X135822732Y-65564026D01*
X136078882Y-65564026D01*
X136078882Y-65650000D01*
G37*
G36*
X136681917Y-65650000D02*
G01*
X136582205Y-65650000D01*
X136383392Y-65075235D01*
X136396398Y-65056001D01*
X136565780Y-65056001D01*
X136565780Y-64665212D01*
X136321964Y-64665212D01*
X136321964Y-65650000D01*
X136226954Y-65650000D01*
X136226954Y-64579239D01*
X136584953Y-64579239D01*
X136615655Y-64584907D01*
X136639602Y-64601404D01*
X136655309Y-64626238D01*
X136660790Y-64658496D01*
X136660790Y-65058810D01*
X136654539Y-65092927D01*
X136637075Y-65116457D01*
X136606569Y-65131964D01*
X136556926Y-65138066D01*
X136526823Y-65137028D01*
X136498186Y-65135990D01*
X136681917Y-65650000D01*
G37*
G36*
X132749058Y-67330000D02*
G01*
X132653376Y-67330000D01*
X132653376Y-66587501D01*
X132611733Y-66587501D01*
X132611733Y-66585547D01*
X132671878Y-66259239D01*
X132749058Y-66259239D01*
X132749058Y-67330000D01*
G37*
G36*
X133316906Y-66264884D02*
G01*
X133341408Y-66281404D01*
X133357635Y-66306293D01*
X133363268Y-66338496D01*
X133363268Y-67250743D01*
X133357637Y-67282956D01*
X133341408Y-67307896D01*
X133316911Y-67324368D01*
X133286087Y-67330000D01*
X133002582Y-67330000D01*
X132971875Y-67324345D01*
X132947933Y-67307896D01*
X132932224Y-67283010D01*
X132926745Y-67250743D01*
X132926745Y-67244026D01*
X133021756Y-67244026D01*
X133268319Y-67244026D01*
X133268319Y-66345212D01*
X133021756Y-66345212D01*
X133021756Y-67244026D01*
X132926745Y-67244026D01*
X132926745Y-66338496D01*
X132932226Y-66306238D01*
X132947933Y-66281404D01*
X132971880Y-66264907D01*
X133002582Y-66259239D01*
X133286087Y-66259239D01*
X133316906Y-66264884D01*
G37*
G36*
X133924582Y-66264884D02*
G01*
X133949085Y-66281404D01*
X133965311Y-66306293D01*
X133970944Y-66338496D01*
X133970944Y-67250743D01*
X133965313Y-67282956D01*
X133949085Y-67307896D01*
X133924587Y-67324368D01*
X133893764Y-67330000D01*
X133610259Y-67330000D01*
X133579551Y-67324345D01*
X133555609Y-67307896D01*
X133539900Y-67283010D01*
X133534421Y-67250743D01*
X133534421Y-67244026D01*
X133629432Y-67244026D01*
X133875995Y-67244026D01*
X133875995Y-66345212D01*
X133629432Y-66345212D01*
X133629432Y-67244026D01*
X133534421Y-67244026D01*
X133534421Y-66338496D01*
X133539902Y-66306238D01*
X133555609Y-66281404D01*
X133579556Y-66264907D01*
X133610259Y-66259239D01*
X133893764Y-66259239D01*
X133924582Y-66264884D01*
G37*
G36*
X134559508Y-66259239D02*
G01*
X134374372Y-67333907D01*
X134284918Y-67333907D01*
X134099782Y-66259239D01*
X134194060Y-66259239D01*
X134326562Y-67111707D01*
X134330653Y-67181500D01*
X134335416Y-67111707D01*
X134467978Y-66259239D01*
X134559508Y-66259239D01*
G37*
G36*
X135176710Y-66265406D02*
G01*
X134724433Y-67330000D01*
X134633575Y-67330000D01*
X134633575Y-67324504D01*
X135085852Y-66259239D01*
X135176710Y-66259239D01*
X135176710Y-66265406D01*
G37*
G36*
X135690597Y-67330000D02*
G01*
X135266347Y-67330000D01*
X135266347Y-67279197D01*
X135593572Y-66599530D01*
X135593572Y-66345212D01*
X135375646Y-66345212D01*
X135375646Y-66583593D01*
X135280025Y-66583593D01*
X135280025Y-66338496D01*
X135285506Y-66306238D01*
X135301213Y-66281404D01*
X135325160Y-66264907D01*
X135355862Y-66259239D01*
X135613355Y-66259239D01*
X135644058Y-66264907D01*
X135668005Y-66281404D01*
X135683712Y-66306238D01*
X135689193Y-66338496D01*
X135689193Y-66561612D01*
X135683445Y-66603337D01*
X135663914Y-66655218D01*
X135381141Y-67244026D01*
X135690597Y-67244026D01*
X135690597Y-67330000D01*
G37*
G36*
X136255836Y-67052540D02*
G01*
X136174564Y-67052540D01*
X136174564Y-67330000D01*
X136085049Y-67330000D01*
X136085049Y-67052540D01*
X135783104Y-67052540D01*
X135783104Y-67003874D01*
X136042002Y-66259239D01*
X136131517Y-66259239D01*
X136131517Y-66263330D01*
X135885564Y-66970474D01*
X136085049Y-66970474D01*
X136085049Y-66579685D01*
X136174564Y-66579685D01*
X136174564Y-66970474D01*
X136255836Y-66970474D01*
X136255836Y-67052540D01*
G37*
G36*
X136764638Y-66264884D02*
G01*
X136789140Y-66281404D01*
X136805367Y-66306293D01*
X136811000Y-66338496D01*
X136811000Y-67250743D01*
X136805369Y-67282956D01*
X136789140Y-67307896D01*
X136764643Y-67324368D01*
X136733819Y-67330000D01*
X136450314Y-67330000D01*
X136419607Y-67324345D01*
X136395665Y-67307896D01*
X136379956Y-67283010D01*
X136374477Y-67250743D01*
X136374477Y-67244026D01*
X136469488Y-67244026D01*
X136716051Y-67244026D01*
X136716051Y-66345212D01*
X136469488Y-66345212D01*
X136469488Y-67244026D01*
X136374477Y-67244026D01*
X136374477Y-66338496D01*
X136379958Y-66306238D01*
X136395665Y-66281404D01*
X136419612Y-66264907D01*
X136450314Y-66259239D01*
X136733819Y-66259239D01*
X136764638Y-66264884D01*
G37*
G36*
X137399564Y-66259239D02*
G01*
X137214428Y-67333907D01*
X137124974Y-67333907D01*
X136939838Y-66259239D01*
X137034116Y-66259239D01*
X137166618Y-67111707D01*
X137170709Y-67181500D01*
X137175471Y-67111707D01*
X137308034Y-66259239D01*
X137399564Y-66259239D01*
G37*
G36*
X182442577Y-100570743D02*
G01*
X182437167Y-100603035D01*
X182421694Y-100627896D01*
X182398055Y-100644333D01*
X182367411Y-100650000D01*
X182098255Y-100650000D01*
X182067484Y-100644358D01*
X182043240Y-100627896D01*
X182027295Y-100602985D01*
X182021746Y-100570743D01*
X182021746Y-100306106D01*
X182116696Y-100306106D01*
X182116696Y-100564026D01*
X182347627Y-100564026D01*
X182347627Y-100311967D01*
X182052460Y-99954396D01*
X182029275Y-99915116D01*
X182021746Y-99872880D01*
X182021746Y-99658496D01*
X182027297Y-99626263D01*
X182043240Y-99601404D01*
X182067489Y-99584894D01*
X182098255Y-99579239D01*
X182367411Y-99579239D01*
X182398050Y-99584919D01*
X182421694Y-99601404D01*
X182437165Y-99626213D01*
X182442577Y-99658496D01*
X182442577Y-99903593D01*
X182347627Y-99903593D01*
X182347627Y-99665212D01*
X182116696Y-99665212D01*
X182116696Y-99889916D01*
X182413207Y-100247487D01*
X182435303Y-100285549D01*
X182442577Y-100327660D01*
X182442577Y-100570743D01*
G37*
G36*
X183041155Y-100650000D02*
G01*
X182946877Y-100650000D01*
X182909325Y-100415526D01*
X182696834Y-100415526D01*
X182659281Y-100650000D01*
X182567751Y-100650000D01*
X182567751Y-100647252D01*
X182624440Y-100329553D01*
X182709168Y-100329553D01*
X182896991Y-100329553D01*
X182803446Y-99750087D01*
X182709168Y-100329553D01*
X182624440Y-100329553D01*
X182758322Y-99579239D01*
X182851928Y-99579239D01*
X183041155Y-100650000D01*
G37*
G36*
X183514192Y-99665212D02*
G01*
X183264881Y-99665212D01*
X183264881Y-100067725D01*
X183494409Y-100067725D01*
X183494409Y-100153698D01*
X183264881Y-100153698D01*
X183264881Y-100650000D01*
X183169871Y-100650000D01*
X183169871Y-99579239D01*
X183514192Y-99579239D01*
X183514192Y-99665212D01*
G37*
G36*
X183996816Y-100650000D02*
G01*
X183645656Y-100650000D01*
X183645656Y-99579239D01*
X183992725Y-99579239D01*
X183992725Y-99665212D01*
X183740666Y-99665212D01*
X183740666Y-100063817D01*
X183970194Y-100063817D01*
X183970194Y-100149790D01*
X183740666Y-100149790D01*
X183740666Y-100564026D01*
X183996816Y-100564026D01*
X183996816Y-100650000D01*
G37*
G36*
X182032126Y-102250743D02*
G01*
X182026647Y-102283010D01*
X182010938Y-102307896D01*
X181987047Y-102324343D01*
X181956350Y-102330000D01*
X181693300Y-102330000D01*
X181662657Y-102324333D01*
X181639017Y-102307896D01*
X181623591Y-102283040D01*
X181618196Y-102250743D01*
X181618196Y-101986106D01*
X181713145Y-101986106D01*
X181713145Y-102244026D01*
X181937177Y-102244026D01*
X181937177Y-101743817D01*
X181620882Y-101743817D01*
X181633217Y-101259239D01*
X182023944Y-101259239D01*
X182023944Y-101345212D01*
X181726090Y-101345212D01*
X181714488Y-101657843D01*
X181956350Y-101657843D01*
X181987157Y-101663198D01*
X182010938Y-101678604D01*
X182026689Y-101701974D01*
X182032126Y-101732093D01*
X182032126Y-102250743D01*
G37*
G36*
X182613730Y-101259239D02*
G01*
X182428593Y-102333907D01*
X182339140Y-102333907D01*
X182154003Y-101259239D01*
X182248281Y-101259239D01*
X182380783Y-102111707D01*
X182384874Y-102181500D01*
X182389637Y-102111707D01*
X182522200Y-101259239D01*
X182613730Y-101259239D01*
G37*
G36*
X183277643Y-101966566D02*
G01*
X182996214Y-101966566D01*
X182996214Y-101880593D01*
X183277643Y-101880593D01*
X183277643Y-101966566D01*
G37*
G36*
X183839523Y-102250743D02*
G01*
X183834044Y-102283010D01*
X183818335Y-102307896D01*
X183794444Y-102324343D01*
X183763747Y-102330000D01*
X183500697Y-102330000D01*
X183470054Y-102324333D01*
X183446414Y-102307896D01*
X183430988Y-102283040D01*
X183425593Y-102250743D01*
X183425593Y-101986106D01*
X183520542Y-101986106D01*
X183520542Y-102244026D01*
X183744574Y-102244026D01*
X183744574Y-101743817D01*
X183428279Y-101743817D01*
X183440614Y-101259239D01*
X183831341Y-101259239D01*
X183831341Y-101345212D01*
X183533487Y-101345212D01*
X183521886Y-101657843D01*
X183763747Y-101657843D01*
X183794554Y-101663198D01*
X183818335Y-101678604D01*
X183834086Y-101701974D01*
X183839523Y-101732093D01*
X183839523Y-102250743D01*
G37*
G36*
X184421127Y-101259239D02*
G01*
X184235991Y-102333907D01*
X184146537Y-102333907D01*
X183961401Y-101259239D01*
X184055678Y-101259239D01*
X184188180Y-102111707D01*
X184192271Y-102181500D01*
X184197034Y-102111707D01*
X184329597Y-101259239D01*
X184421127Y-101259239D01*
G37*
G36*
X132146106Y-92585555D02*
G01*
X132192383Y-92603682D01*
X132232135Y-92633644D01*
X132262637Y-92672888D01*
X132281046Y-92718644D01*
X132287456Y-92772862D01*
X132287456Y-93456376D01*
X132281010Y-93510568D01*
X132262488Y-93556324D01*
X132231769Y-93595594D01*
X132191807Y-93625605D01*
X132145628Y-93643710D01*
X132091391Y-93650000D01*
X131846842Y-93650000D01*
X131846842Y-93564026D01*
X131941853Y-93564026D01*
X132068187Y-93564026D01*
X132103839Y-93560264D01*
X132133338Y-93549611D01*
X132158008Y-93532336D01*
X132176834Y-93509177D01*
X132188400Y-93480737D01*
X132192507Y-93445446D01*
X132192507Y-92782449D01*
X132188617Y-92748839D01*
X132177540Y-92720981D01*
X132159351Y-92697575D01*
X132135552Y-92679830D01*
X132107411Y-92669009D01*
X132073683Y-92665212D01*
X131941853Y-92665212D01*
X131941853Y-93564026D01*
X131846842Y-93564026D01*
X131846842Y-92579239D01*
X132091391Y-92579239D01*
X132146106Y-92585555D01*
G37*
G36*
X132885607Y-93650000D02*
G01*
X132791329Y-93650000D01*
X132753777Y-93415526D01*
X132541286Y-93415526D01*
X132503734Y-93650000D01*
X132412204Y-93650000D01*
X132412204Y-93647252D01*
X132468892Y-93329553D01*
X132553620Y-93329553D01*
X132741443Y-93329553D01*
X132647898Y-92750087D01*
X132553620Y-93329553D01*
X132468892Y-93329553D01*
X132602774Y-92579239D01*
X132696380Y-92579239D01*
X132885607Y-93650000D01*
G37*
G36*
X133454937Y-93650000D02*
G01*
X133389358Y-93650000D01*
X133103838Y-92862500D01*
X133103838Y-93650000D01*
X133014323Y-93650000D01*
X133014323Y-92579239D01*
X133085398Y-92579239D01*
X133365483Y-93353061D01*
X133365483Y-92579239D01*
X133454937Y-92579239D01*
X133454937Y-93650000D01*
G37*
G36*
X134058339Y-93570743D02*
G01*
X134052860Y-93603010D01*
X134037151Y-93627896D01*
X134013209Y-93644345D01*
X133982502Y-93650000D01*
X133701745Y-93650000D01*
X133671037Y-93644345D01*
X133647095Y-93627896D01*
X133631386Y-93603010D01*
X133625907Y-93570743D01*
X133625907Y-92658496D01*
X133631388Y-92626238D01*
X133647095Y-92601404D01*
X133671042Y-92584907D01*
X133701745Y-92579239D01*
X133982502Y-92579239D01*
X134013204Y-92584907D01*
X134037151Y-92601404D01*
X134052858Y-92626238D01*
X134058339Y-92658496D01*
X134058339Y-92907501D01*
X133962718Y-92907501D01*
X133962718Y-92665212D01*
X133720918Y-92665212D01*
X133720918Y-93564026D01*
X133962718Y-93564026D01*
X133962718Y-93196685D01*
X133848657Y-93196685D01*
X133848657Y-93114619D01*
X134058339Y-93114619D01*
X134058339Y-93570743D01*
G37*
G36*
X134578882Y-93650000D02*
G01*
X134227722Y-93650000D01*
X134227722Y-92579239D01*
X134574791Y-92579239D01*
X134574791Y-92665212D01*
X134322732Y-92665212D01*
X134322732Y-93063817D01*
X134552259Y-93063817D01*
X134552259Y-93149790D01*
X134322732Y-93149790D01*
X134322732Y-93564026D01*
X134578882Y-93564026D01*
X134578882Y-93650000D01*
G37*
G36*
X135181917Y-93650000D02*
G01*
X135082205Y-93650000D01*
X134883392Y-93075235D01*
X134896398Y-93056001D01*
X135065780Y-93056001D01*
X135065780Y-92665212D01*
X134821964Y-92665212D01*
X134821964Y-93650000D01*
X134726954Y-93650000D01*
X134726954Y-92579239D01*
X135084953Y-92579239D01*
X135115655Y-92584907D01*
X135139602Y-92601404D01*
X135155309Y-92626238D01*
X135160790Y-92658496D01*
X135160790Y-93058810D01*
X135154539Y-93092927D01*
X135137075Y-93116457D01*
X135106569Y-93131964D01*
X135056926Y-93138066D01*
X135026823Y-93137028D01*
X134998186Y-93135990D01*
X135181917Y-93650000D01*
G37*
G36*
X131249058Y-95330000D02*
G01*
X131153376Y-95330000D01*
X131153376Y-94587501D01*
X131111733Y-94587501D01*
X131111733Y-94585547D01*
X131171878Y-94259239D01*
X131249058Y-94259239D01*
X131249058Y-95330000D01*
G37*
G36*
X131816906Y-94264884D02*
G01*
X131841408Y-94281404D01*
X131857635Y-94306293D01*
X131863268Y-94338496D01*
X131863268Y-95250743D01*
X131857637Y-95282956D01*
X131841408Y-95307896D01*
X131816911Y-95324368D01*
X131786087Y-95330000D01*
X131502582Y-95330000D01*
X131471875Y-95324345D01*
X131447933Y-95307896D01*
X131432224Y-95283010D01*
X131426745Y-95250743D01*
X131426745Y-95244026D01*
X131521756Y-95244026D01*
X131768319Y-95244026D01*
X131768319Y-94345212D01*
X131521756Y-94345212D01*
X131521756Y-95244026D01*
X131426745Y-95244026D01*
X131426745Y-94338496D01*
X131432226Y-94306238D01*
X131447933Y-94281404D01*
X131471880Y-94264907D01*
X131502582Y-94259239D01*
X131786087Y-94259239D01*
X131816906Y-94264884D01*
G37*
G36*
X132424582Y-94264884D02*
G01*
X132449085Y-94281404D01*
X132465311Y-94306293D01*
X132470944Y-94338496D01*
X132470944Y-95250743D01*
X132465313Y-95282956D01*
X132449085Y-95307896D01*
X132424587Y-95324368D01*
X132393764Y-95330000D01*
X132110259Y-95330000D01*
X132079551Y-95324345D01*
X132055609Y-95307896D01*
X132039900Y-95283010D01*
X132034421Y-95250743D01*
X132034421Y-95244026D01*
X132129432Y-95244026D01*
X132375995Y-95244026D01*
X132375995Y-94345212D01*
X132129432Y-94345212D01*
X132129432Y-95244026D01*
X132034421Y-95244026D01*
X132034421Y-94338496D01*
X132039902Y-94306238D01*
X132055609Y-94281404D01*
X132079556Y-94264907D01*
X132110259Y-94259239D01*
X132393764Y-94259239D01*
X132424582Y-94264884D01*
G37*
G36*
X133059508Y-94259239D02*
G01*
X132874372Y-95333907D01*
X132784918Y-95333907D01*
X132599782Y-94259239D01*
X132694060Y-94259239D01*
X132826562Y-95111707D01*
X132830653Y-95181500D01*
X132835416Y-95111707D01*
X132967978Y-94259239D01*
X133059508Y-94259239D01*
G37*
G36*
X133676710Y-94265406D02*
G01*
X133224433Y-95330000D01*
X133133575Y-95330000D01*
X133133575Y-95324504D01*
X133585852Y-94259239D01*
X133676710Y-94259239D01*
X133676710Y-94265406D01*
G37*
G36*
X134190597Y-95330000D02*
G01*
X133766347Y-95330000D01*
X133766347Y-95279197D01*
X134093572Y-94599530D01*
X134093572Y-94345212D01*
X133875646Y-94345212D01*
X133875646Y-94583593D01*
X133780025Y-94583593D01*
X133780025Y-94338496D01*
X133785506Y-94306238D01*
X133801213Y-94281404D01*
X133825160Y-94264907D01*
X133855862Y-94259239D01*
X134113355Y-94259239D01*
X134144058Y-94264907D01*
X134168005Y-94281404D01*
X134183712Y-94306238D01*
X134189193Y-94338496D01*
X134189193Y-94561612D01*
X134183445Y-94603337D01*
X134163914Y-94655218D01*
X133881141Y-95244026D01*
X134190597Y-95244026D01*
X134190597Y-95330000D01*
G37*
G36*
X134755836Y-95052540D02*
G01*
X134674564Y-95052540D01*
X134674564Y-95330000D01*
X134585049Y-95330000D01*
X134585049Y-95052540D01*
X134283104Y-95052540D01*
X134283104Y-95003874D01*
X134542002Y-94259239D01*
X134631517Y-94259239D01*
X134631517Y-94263330D01*
X134385564Y-94970474D01*
X134585049Y-94970474D01*
X134585049Y-94579685D01*
X134674564Y-94579685D01*
X134674564Y-94970474D01*
X134755836Y-94970474D01*
X134755836Y-95052540D01*
G37*
G36*
X135264638Y-94264884D02*
G01*
X135289140Y-94281404D01*
X135305367Y-94306293D01*
X135311000Y-94338496D01*
X135311000Y-95250743D01*
X135305369Y-95282956D01*
X135289140Y-95307896D01*
X135264643Y-95324368D01*
X135233819Y-95330000D01*
X134950314Y-95330000D01*
X134919607Y-95324345D01*
X134895665Y-95307896D01*
X134879956Y-95283010D01*
X134874477Y-95250743D01*
X134874477Y-95244026D01*
X134969488Y-95244026D01*
X135216051Y-95244026D01*
X135216051Y-94345212D01*
X134969488Y-94345212D01*
X134969488Y-95244026D01*
X134874477Y-95244026D01*
X134874477Y-94338496D01*
X134879958Y-94306238D01*
X134895665Y-94281404D01*
X134919612Y-94264907D01*
X134950314Y-94259239D01*
X135233819Y-94259239D01*
X135264638Y-94264884D01*
G37*
G36*
X135899564Y-94259239D02*
G01*
X135714428Y-95333907D01*
X135624974Y-95333907D01*
X135439838Y-94259239D01*
X135534116Y-94259239D01*
X135666618Y-95111707D01*
X135670709Y-95181500D01*
X135675471Y-95111707D01*
X135808034Y-94259239D01*
X135899564Y-94259239D01*
G37*
X174359580Y-80166666D02*
X174407200Y-80214285D01*
X174407200Y-80214285D02*
X174454819Y-80357142D01*
X174454819Y-80357142D02*
X174454819Y-80452380D01*
X174454819Y-80452380D02*
X174407200Y-80595237D01*
X174407200Y-80595237D02*
X174311961Y-80690475D01*
X174311961Y-80690475D02*
X174216723Y-80738094D01*
X174216723Y-80738094D02*
X174026247Y-80785713D01*
X174026247Y-80785713D02*
X173883390Y-80785713D01*
X173883390Y-80785713D02*
X173692914Y-80738094D01*
X173692914Y-80738094D02*
X173597676Y-80690475D01*
X173597676Y-80690475D02*
X173502438Y-80595237D01*
X173502438Y-80595237D02*
X173454819Y-80452380D01*
X173454819Y-80452380D02*
X173454819Y-80357142D01*
X173454819Y-80357142D02*
X173502438Y-80214285D01*
X173502438Y-80214285D02*
X173550057Y-80166666D01*
X173454819Y-79833332D02*
X173454819Y-79214285D01*
X173454819Y-79214285D02*
X173835771Y-79547618D01*
X173835771Y-79547618D02*
X173835771Y-79404761D01*
X173835771Y-79404761D02*
X173883390Y-79309523D01*
X173883390Y-79309523D02*
X173931009Y-79261904D01*
X173931009Y-79261904D02*
X174026247Y-79214285D01*
X174026247Y-79214285D02*
X174264342Y-79214285D01*
X174264342Y-79214285D02*
X174359580Y-79261904D01*
X174359580Y-79261904D02*
X174407200Y-79309523D01*
X174407200Y-79309523D02*
X174454819Y-79404761D01*
X174454819Y-79404761D02*
X174454819Y-79690475D01*
X174454819Y-79690475D02*
X174407200Y-79785713D01*
X174407200Y-79785713D02*
X174359580Y-79833332D01*
X171308333Y-74404819D02*
X170832143Y-74404819D01*
X170832143Y-74404819D02*
X170832143Y-73404819D01*
X172165476Y-74404819D02*
X171594048Y-74404819D01*
X171879762Y-74404819D02*
X171879762Y-73404819D01*
X171879762Y-73404819D02*
X171784524Y-73547676D01*
X171784524Y-73547676D02*
X171689286Y-73642914D01*
X171689286Y-73642914D02*
X171594048Y-73690533D01*
X178857142Y-75159580D02*
X178809523Y-75207200D01*
X178809523Y-75207200D02*
X178666666Y-75254819D01*
X178666666Y-75254819D02*
X178571428Y-75254819D01*
X178571428Y-75254819D02*
X178428571Y-75207200D01*
X178428571Y-75207200D02*
X178333333Y-75111961D01*
X178333333Y-75111961D02*
X178285714Y-75016723D01*
X178285714Y-75016723D02*
X178238095Y-74826247D01*
X178238095Y-74826247D02*
X178238095Y-74683390D01*
X178238095Y-74683390D02*
X178285714Y-74492914D01*
X178285714Y-74492914D02*
X178333333Y-74397676D01*
X178333333Y-74397676D02*
X178428571Y-74302438D01*
X178428571Y-74302438D02*
X178571428Y-74254819D01*
X178571428Y-74254819D02*
X178666666Y-74254819D01*
X178666666Y-74254819D02*
X178809523Y-74302438D01*
X178809523Y-74302438D02*
X178857142Y-74350057D01*
X179809523Y-75254819D02*
X179238095Y-75254819D01*
X179523809Y-75254819D02*
X179523809Y-74254819D01*
X179523809Y-74254819D02*
X179428571Y-74397676D01*
X179428571Y-74397676D02*
X179333333Y-74492914D01*
X179333333Y-74492914D02*
X179238095Y-74540533D01*
X180761904Y-75254819D02*
X180190476Y-75254819D01*
X180476190Y-75254819D02*
X180476190Y-74254819D01*
X180476190Y-74254819D02*
X180380952Y-74397676D01*
X180380952Y-74397676D02*
X180285714Y-74492914D01*
X180285714Y-74492914D02*
X180190476Y-74540533D01*
X167372023Y-98554819D02*
X167038690Y-98078628D01*
X166800595Y-98554819D02*
X166800595Y-97554819D01*
X166800595Y-97554819D02*
X167181547Y-97554819D01*
X167181547Y-97554819D02*
X167276785Y-97602438D01*
X167276785Y-97602438D02*
X167324404Y-97650057D01*
X167324404Y-97650057D02*
X167372023Y-97745295D01*
X167372023Y-97745295D02*
X167372023Y-97888152D01*
X167372023Y-97888152D02*
X167324404Y-97983390D01*
X167324404Y-97983390D02*
X167276785Y-98031009D01*
X167276785Y-98031009D02*
X167181547Y-98078628D01*
X167181547Y-98078628D02*
X166800595Y-98078628D01*
X167800595Y-98554819D02*
X167800595Y-97554819D01*
X167800595Y-97554819D02*
X168372023Y-98554819D01*
X168372023Y-98554819D02*
X168372023Y-97554819D01*
X169372023Y-98554819D02*
X168800595Y-98554819D01*
X169086309Y-98554819D02*
X169086309Y-97554819D01*
X169086309Y-97554819D02*
X168991071Y-97697676D01*
X168991071Y-97697676D02*
X168895833Y-97792914D01*
X168895833Y-97792914D02*
X168800595Y-97840533D01*
X132604819Y-64809523D02*
X131604819Y-64809523D01*
X131604819Y-64809523D02*
X132319104Y-64476190D01*
X132319104Y-64476190D02*
X131604819Y-64142857D01*
X131604819Y-64142857D02*
X132604819Y-64142857D01*
X131700057Y-63714285D02*
X131652438Y-63666666D01*
X131652438Y-63666666D02*
X131604819Y-63571428D01*
X131604819Y-63571428D02*
X131604819Y-63333333D01*
X131604819Y-63333333D02*
X131652438Y-63238095D01*
X131652438Y-63238095D02*
X131700057Y-63190476D01*
X131700057Y-63190476D02*
X131795295Y-63142857D01*
X131795295Y-63142857D02*
X131890533Y-63142857D01*
X131890533Y-63142857D02*
X132033390Y-63190476D01*
X132033390Y-63190476D02*
X132604819Y-63761904D01*
X132604819Y-63761904D02*
X132604819Y-63142857D01*
X185929580Y-82142857D02*
X185977200Y-82190476D01*
X185977200Y-82190476D02*
X186024819Y-82333333D01*
X186024819Y-82333333D02*
X186024819Y-82428571D01*
X186024819Y-82428571D02*
X185977200Y-82571428D01*
X185977200Y-82571428D02*
X185881961Y-82666666D01*
X185881961Y-82666666D02*
X185786723Y-82714285D01*
X185786723Y-82714285D02*
X185596247Y-82761904D01*
X185596247Y-82761904D02*
X185453390Y-82761904D01*
X185453390Y-82761904D02*
X185262914Y-82714285D01*
X185262914Y-82714285D02*
X185167676Y-82666666D01*
X185167676Y-82666666D02*
X185072438Y-82571428D01*
X185072438Y-82571428D02*
X185024819Y-82428571D01*
X185024819Y-82428571D02*
X185024819Y-82333333D01*
X185024819Y-82333333D02*
X185072438Y-82190476D01*
X185072438Y-82190476D02*
X185120057Y-82142857D01*
X186024819Y-81190476D02*
X186024819Y-81761904D01*
X186024819Y-81476190D02*
X185024819Y-81476190D01*
X185024819Y-81476190D02*
X185167676Y-81571428D01*
X185167676Y-81571428D02*
X185262914Y-81666666D01*
X185262914Y-81666666D02*
X185310533Y-81761904D01*
X185120057Y-80809523D02*
X185072438Y-80761904D01*
X185072438Y-80761904D02*
X185024819Y-80666666D01*
X185024819Y-80666666D02*
X185024819Y-80428571D01*
X185024819Y-80428571D02*
X185072438Y-80333333D01*
X185072438Y-80333333D02*
X185120057Y-80285714D01*
X185120057Y-80285714D02*
X185215295Y-80238095D01*
X185215295Y-80238095D02*
X185310533Y-80238095D01*
X185310533Y-80238095D02*
X185453390Y-80285714D01*
X185453390Y-80285714D02*
X186024819Y-80857142D01*
X186024819Y-80857142D02*
X186024819Y-80238095D01*
X148325714Y-67754819D02*
X148325714Y-66754819D01*
X148325714Y-66754819D02*
X148706666Y-66754819D01*
X148706666Y-66754819D02*
X148801904Y-66802438D01*
X148801904Y-66802438D02*
X148849523Y-66850057D01*
X148849523Y-66850057D02*
X148897142Y-66945295D01*
X148897142Y-66945295D02*
X148897142Y-67088152D01*
X148897142Y-67088152D02*
X148849523Y-67183390D01*
X148849523Y-67183390D02*
X148801904Y-67231009D01*
X148801904Y-67231009D02*
X148706666Y-67278628D01*
X148706666Y-67278628D02*
X148325714Y-67278628D01*
X149278095Y-67707200D02*
X149420952Y-67754819D01*
X149420952Y-67754819D02*
X149659047Y-67754819D01*
X149659047Y-67754819D02*
X149754285Y-67707200D01*
X149754285Y-67707200D02*
X149801904Y-67659580D01*
X149801904Y-67659580D02*
X149849523Y-67564342D01*
X149849523Y-67564342D02*
X149849523Y-67469104D01*
X149849523Y-67469104D02*
X149801904Y-67373866D01*
X149801904Y-67373866D02*
X149754285Y-67326247D01*
X149754285Y-67326247D02*
X149659047Y-67278628D01*
X149659047Y-67278628D02*
X149468571Y-67231009D01*
X149468571Y-67231009D02*
X149373333Y-67183390D01*
X149373333Y-67183390D02*
X149325714Y-67135771D01*
X149325714Y-67135771D02*
X149278095Y-67040533D01*
X149278095Y-67040533D02*
X149278095Y-66945295D01*
X149278095Y-66945295D02*
X149325714Y-66850057D01*
X149325714Y-66850057D02*
X149373333Y-66802438D01*
X149373333Y-66802438D02*
X149468571Y-66754819D01*
X149468571Y-66754819D02*
X149706666Y-66754819D01*
X149706666Y-66754819D02*
X149849523Y-66802438D01*
X150801904Y-67754819D02*
X150230476Y-67754819D01*
X150516190Y-67754819D02*
X150516190Y-66754819D01*
X150516190Y-66754819D02*
X150420952Y-66897676D01*
X150420952Y-66897676D02*
X150325714Y-66992914D01*
X150325714Y-66992914D02*
X150230476Y-67040533D01*
X145693922Y-98954819D02*
X146265350Y-98954819D01*
X145979636Y-99954819D02*
X145979636Y-98954819D01*
X147122493Y-99954819D02*
X146551065Y-99954819D01*
X146836779Y-99954819D02*
X146836779Y-98954819D01*
X146836779Y-98954819D02*
X146741541Y-99097676D01*
X146741541Y-99097676D02*
X146646303Y-99192914D01*
X146646303Y-99192914D02*
X146551065Y-99240533D01*
X132604819Y-106809523D02*
X131604819Y-106809523D01*
X131604819Y-106809523D02*
X132319104Y-106476190D01*
X132319104Y-106476190D02*
X131604819Y-106142857D01*
X131604819Y-106142857D02*
X132604819Y-106142857D01*
X131700057Y-105714285D02*
X131652438Y-105666666D01*
X131652438Y-105666666D02*
X131604819Y-105571428D01*
X131604819Y-105571428D02*
X131604819Y-105333333D01*
X131604819Y-105333333D02*
X131652438Y-105238095D01*
X131652438Y-105238095D02*
X131700057Y-105190476D01*
X131700057Y-105190476D02*
X131795295Y-105142857D01*
X131795295Y-105142857D02*
X131890533Y-105142857D01*
X131890533Y-105142857D02*
X132033390Y-105190476D01*
X132033390Y-105190476D02*
X132604819Y-105761904D01*
X132604819Y-105761904D02*
X132604819Y-105142857D01*
X188304819Y-64809523D02*
X187304819Y-64809523D01*
X187304819Y-64809523D02*
X188019104Y-64476190D01*
X188019104Y-64476190D02*
X187304819Y-64142857D01*
X187304819Y-64142857D02*
X188304819Y-64142857D01*
X187400057Y-63714285D02*
X187352438Y-63666666D01*
X187352438Y-63666666D02*
X187304819Y-63571428D01*
X187304819Y-63571428D02*
X187304819Y-63333333D01*
X187304819Y-63333333D02*
X187352438Y-63238095D01*
X187352438Y-63238095D02*
X187400057Y-63190476D01*
X187400057Y-63190476D02*
X187495295Y-63142857D01*
X187495295Y-63142857D02*
X187590533Y-63142857D01*
X187590533Y-63142857D02*
X187733390Y-63190476D01*
X187733390Y-63190476D02*
X188304819Y-63761904D01*
X188304819Y-63761904D02*
X188304819Y-63142857D01*
X127666666Y-75954819D02*
X127666666Y-76669104D01*
X127666666Y-76669104D02*
X127619047Y-76811961D01*
X127619047Y-76811961D02*
X127523809Y-76907200D01*
X127523809Y-76907200D02*
X127380952Y-76954819D01*
X127380952Y-76954819D02*
X127285714Y-76954819D01*
X128666666Y-76954819D02*
X128095238Y-76954819D01*
X128380952Y-76954819D02*
X128380952Y-75954819D01*
X128380952Y-75954819D02*
X128285714Y-76097676D01*
X128285714Y-76097676D02*
X128190476Y-76192914D01*
X128190476Y-76192914D02*
X128095238Y-76240533D01*
X160834819Y-101238094D02*
X159834819Y-101238094D01*
X159834819Y-101238094D02*
X159834819Y-100999999D01*
X159834819Y-100999999D02*
X159882438Y-100857142D01*
X159882438Y-100857142D02*
X159977676Y-100761904D01*
X159977676Y-100761904D02*
X160072914Y-100714285D01*
X160072914Y-100714285D02*
X160263390Y-100666666D01*
X160263390Y-100666666D02*
X160406247Y-100666666D01*
X160406247Y-100666666D02*
X160596723Y-100714285D01*
X160596723Y-100714285D02*
X160691961Y-100761904D01*
X160691961Y-100761904D02*
X160787200Y-100857142D01*
X160787200Y-100857142D02*
X160834819Y-100999999D01*
X160834819Y-100999999D02*
X160834819Y-101238094D01*
X160834819Y-99714285D02*
X160834819Y-100285713D01*
X160834819Y-99999999D02*
X159834819Y-99999999D01*
X159834819Y-99999999D02*
X159977676Y-100095237D01*
X159977676Y-100095237D02*
X160072914Y-100190475D01*
X160072914Y-100190475D02*
X160120533Y-100285713D01*
X161154819Y-104571904D02*
X160154819Y-104571904D01*
X161154819Y-104000476D02*
X160583390Y-104429047D01*
X160154819Y-104000476D02*
X160726247Y-104571904D01*
X132108333Y-103454819D02*
X131775000Y-102978628D01*
X131536905Y-103454819D02*
X131536905Y-102454819D01*
X131536905Y-102454819D02*
X131917857Y-102454819D01*
X131917857Y-102454819D02*
X132013095Y-102502438D01*
X132013095Y-102502438D02*
X132060714Y-102550057D01*
X132060714Y-102550057D02*
X132108333Y-102645295D01*
X132108333Y-102645295D02*
X132108333Y-102788152D01*
X132108333Y-102788152D02*
X132060714Y-102883390D01*
X132060714Y-102883390D02*
X132013095Y-102931009D01*
X132013095Y-102931009D02*
X131917857Y-102978628D01*
X131917857Y-102978628D02*
X131536905Y-102978628D01*
X133060714Y-103454819D02*
X132489286Y-103454819D01*
X132775000Y-103454819D02*
X132775000Y-102454819D01*
X132775000Y-102454819D02*
X132679762Y-102597676D01*
X132679762Y-102597676D02*
X132584524Y-102692914D01*
X132584524Y-102692914D02*
X132489286Y-102740533D01*
X188333333Y-88659580D02*
X188285714Y-88707200D01*
X188285714Y-88707200D02*
X188142857Y-88754819D01*
X188142857Y-88754819D02*
X188047619Y-88754819D01*
X188047619Y-88754819D02*
X187904762Y-88707200D01*
X187904762Y-88707200D02*
X187809524Y-88611961D01*
X187809524Y-88611961D02*
X187761905Y-88516723D01*
X187761905Y-88516723D02*
X187714286Y-88326247D01*
X187714286Y-88326247D02*
X187714286Y-88183390D01*
X187714286Y-88183390D02*
X187761905Y-87992914D01*
X187761905Y-87992914D02*
X187809524Y-87897676D01*
X187809524Y-87897676D02*
X187904762Y-87802438D01*
X187904762Y-87802438D02*
X188047619Y-87754819D01*
X188047619Y-87754819D02*
X188142857Y-87754819D01*
X188142857Y-87754819D02*
X188285714Y-87802438D01*
X188285714Y-87802438D02*
X188333333Y-87850057D01*
X189190476Y-88088152D02*
X189190476Y-88754819D01*
X188952381Y-87707200D02*
X188714286Y-88421485D01*
X188714286Y-88421485D02*
X189333333Y-88421485D01*
X179299819Y-97142857D02*
X179299819Y-97619047D01*
X179299819Y-97619047D02*
X178299819Y-97619047D01*
X179252200Y-96857142D02*
X179299819Y-96714285D01*
X179299819Y-96714285D02*
X179299819Y-96476190D01*
X179299819Y-96476190D02*
X179252200Y-96380952D01*
X179252200Y-96380952D02*
X179204580Y-96333333D01*
X179204580Y-96333333D02*
X179109342Y-96285714D01*
X179109342Y-96285714D02*
X179014104Y-96285714D01*
X179014104Y-96285714D02*
X178918866Y-96333333D01*
X178918866Y-96333333D02*
X178871247Y-96380952D01*
X178871247Y-96380952D02*
X178823628Y-96476190D01*
X178823628Y-96476190D02*
X178776009Y-96666666D01*
X178776009Y-96666666D02*
X178728390Y-96761904D01*
X178728390Y-96761904D02*
X178680771Y-96809523D01*
X178680771Y-96809523D02*
X178585533Y-96857142D01*
X178585533Y-96857142D02*
X178490295Y-96857142D01*
X178490295Y-96857142D02*
X178395057Y-96809523D01*
X178395057Y-96809523D02*
X178347438Y-96761904D01*
X178347438Y-96761904D02*
X178299819Y-96666666D01*
X178299819Y-96666666D02*
X178299819Y-96428571D01*
X178299819Y-96428571D02*
X178347438Y-96285714D01*
X179299819Y-95333333D02*
X179299819Y-95904761D01*
X179299819Y-95619047D02*
X178299819Y-95619047D01*
X178299819Y-95619047D02*
X178442676Y-95714285D01*
X178442676Y-95714285D02*
X178537914Y-95809523D01*
X178537914Y-95809523D02*
X178585533Y-95904761D01*
X168929580Y-80166666D02*
X168977200Y-80214285D01*
X168977200Y-80214285D02*
X169024819Y-80357142D01*
X169024819Y-80357142D02*
X169024819Y-80452380D01*
X169024819Y-80452380D02*
X168977200Y-80595237D01*
X168977200Y-80595237D02*
X168881961Y-80690475D01*
X168881961Y-80690475D02*
X168786723Y-80738094D01*
X168786723Y-80738094D02*
X168596247Y-80785713D01*
X168596247Y-80785713D02*
X168453390Y-80785713D01*
X168453390Y-80785713D02*
X168262914Y-80738094D01*
X168262914Y-80738094D02*
X168167676Y-80690475D01*
X168167676Y-80690475D02*
X168072438Y-80595237D01*
X168072438Y-80595237D02*
X168024819Y-80452380D01*
X168024819Y-80452380D02*
X168024819Y-80357142D01*
X168024819Y-80357142D02*
X168072438Y-80214285D01*
X168072438Y-80214285D02*
X168120057Y-80166666D01*
X169024819Y-79214285D02*
X169024819Y-79785713D01*
X169024819Y-79499999D02*
X168024819Y-79499999D01*
X168024819Y-79499999D02*
X168167676Y-79595237D01*
X168167676Y-79595237D02*
X168262914Y-79690475D01*
X168262914Y-79690475D02*
X168310533Y-79785713D01*
X190384819Y-78341666D02*
X189908628Y-78674999D01*
X190384819Y-78913094D02*
X189384819Y-78913094D01*
X189384819Y-78913094D02*
X189384819Y-78532142D01*
X189384819Y-78532142D02*
X189432438Y-78436904D01*
X189432438Y-78436904D02*
X189480057Y-78389285D01*
X189480057Y-78389285D02*
X189575295Y-78341666D01*
X189575295Y-78341666D02*
X189718152Y-78341666D01*
X189718152Y-78341666D02*
X189813390Y-78389285D01*
X189813390Y-78389285D02*
X189861009Y-78436904D01*
X189861009Y-78436904D02*
X189908628Y-78532142D01*
X189908628Y-78532142D02*
X189908628Y-78913094D01*
X189718152Y-77484523D02*
X190384819Y-77484523D01*
X189337200Y-77722618D02*
X190051485Y-77960713D01*
X190051485Y-77960713D02*
X190051485Y-77341666D01*
X188333333Y-75159580D02*
X188285714Y-75207200D01*
X188285714Y-75207200D02*
X188142857Y-75254819D01*
X188142857Y-75254819D02*
X188047619Y-75254819D01*
X188047619Y-75254819D02*
X187904762Y-75207200D01*
X187904762Y-75207200D02*
X187809524Y-75111961D01*
X187809524Y-75111961D02*
X187761905Y-75016723D01*
X187761905Y-75016723D02*
X187714286Y-74826247D01*
X187714286Y-74826247D02*
X187714286Y-74683390D01*
X187714286Y-74683390D02*
X187761905Y-74492914D01*
X187761905Y-74492914D02*
X187809524Y-74397676D01*
X187809524Y-74397676D02*
X187904762Y-74302438D01*
X187904762Y-74302438D02*
X188047619Y-74254819D01*
X188047619Y-74254819D02*
X188142857Y-74254819D01*
X188142857Y-74254819D02*
X188285714Y-74302438D01*
X188285714Y-74302438D02*
X188333333Y-74350057D01*
X188714286Y-74350057D02*
X188761905Y-74302438D01*
X188761905Y-74302438D02*
X188857143Y-74254819D01*
X188857143Y-74254819D02*
X189095238Y-74254819D01*
X189095238Y-74254819D02*
X189190476Y-74302438D01*
X189190476Y-74302438D02*
X189238095Y-74350057D01*
X189238095Y-74350057D02*
X189285714Y-74445295D01*
X189285714Y-74445295D02*
X189285714Y-74540533D01*
X189285714Y-74540533D02*
X189238095Y-74683390D01*
X189238095Y-74683390D02*
X188666667Y-75254819D01*
X188666667Y-75254819D02*
X189285714Y-75254819D01*
X179954819Y-79761904D02*
X180764342Y-79761904D01*
X180764342Y-79761904D02*
X180859580Y-79714285D01*
X180859580Y-79714285D02*
X180907200Y-79666666D01*
X180907200Y-79666666D02*
X180954819Y-79571428D01*
X180954819Y-79571428D02*
X180954819Y-79380952D01*
X180954819Y-79380952D02*
X180907200Y-79285714D01*
X180907200Y-79285714D02*
X180859580Y-79238095D01*
X180859580Y-79238095D02*
X180764342Y-79190476D01*
X180764342Y-79190476D02*
X179954819Y-79190476D01*
X179954819Y-78809523D02*
X179954819Y-78190476D01*
X179954819Y-78190476D02*
X180335771Y-78523809D01*
X180335771Y-78523809D02*
X180335771Y-78380952D01*
X180335771Y-78380952D02*
X180383390Y-78285714D01*
X180383390Y-78285714D02*
X180431009Y-78238095D01*
X180431009Y-78238095D02*
X180526247Y-78190476D01*
X180526247Y-78190476D02*
X180764342Y-78190476D01*
X180764342Y-78190476D02*
X180859580Y-78238095D01*
X180859580Y-78238095D02*
X180907200Y-78285714D01*
X180907200Y-78285714D02*
X180954819Y-78380952D01*
X180954819Y-78380952D02*
X180954819Y-78666666D01*
X180954819Y-78666666D02*
X180907200Y-78761904D01*
X180907200Y-78761904D02*
X180859580Y-78809523D01*
X156158333Y-108384819D02*
X155825000Y-107908628D01*
X155586905Y-108384819D02*
X155586905Y-107384819D01*
X155586905Y-107384819D02*
X155967857Y-107384819D01*
X155967857Y-107384819D02*
X156063095Y-107432438D01*
X156063095Y-107432438D02*
X156110714Y-107480057D01*
X156110714Y-107480057D02*
X156158333Y-107575295D01*
X156158333Y-107575295D02*
X156158333Y-107718152D01*
X156158333Y-107718152D02*
X156110714Y-107813390D01*
X156110714Y-107813390D02*
X156063095Y-107861009D01*
X156063095Y-107861009D02*
X155967857Y-107908628D01*
X155967857Y-107908628D02*
X155586905Y-107908628D01*
X156539286Y-107480057D02*
X156586905Y-107432438D01*
X156586905Y-107432438D02*
X156682143Y-107384819D01*
X156682143Y-107384819D02*
X156920238Y-107384819D01*
X156920238Y-107384819D02*
X157015476Y-107432438D01*
X157015476Y-107432438D02*
X157063095Y-107480057D01*
X157063095Y-107480057D02*
X157110714Y-107575295D01*
X157110714Y-107575295D02*
X157110714Y-107670533D01*
X157110714Y-107670533D02*
X157063095Y-107813390D01*
X157063095Y-107813390D02*
X156491667Y-108384819D01*
X156491667Y-108384819D02*
X157110714Y-108384819D01*
X155857142Y-101429580D02*
X155809523Y-101477200D01*
X155809523Y-101477200D02*
X155666666Y-101524819D01*
X155666666Y-101524819D02*
X155571428Y-101524819D01*
X155571428Y-101524819D02*
X155428571Y-101477200D01*
X155428571Y-101477200D02*
X155333333Y-101381961D01*
X155333333Y-101381961D02*
X155285714Y-101286723D01*
X155285714Y-101286723D02*
X155238095Y-101096247D01*
X155238095Y-101096247D02*
X155238095Y-100953390D01*
X155238095Y-100953390D02*
X155285714Y-100762914D01*
X155285714Y-100762914D02*
X155333333Y-100667676D01*
X155333333Y-100667676D02*
X155428571Y-100572438D01*
X155428571Y-100572438D02*
X155571428Y-100524819D01*
X155571428Y-100524819D02*
X155666666Y-100524819D01*
X155666666Y-100524819D02*
X155809523Y-100572438D01*
X155809523Y-100572438D02*
X155857142Y-100620057D01*
X156714285Y-100858152D02*
X156714285Y-101524819D01*
X156476190Y-100477200D02*
X156238095Y-101191485D01*
X156238095Y-101191485D02*
X156857142Y-101191485D01*
X157142857Y-100524819D02*
X157761904Y-100524819D01*
X157761904Y-100524819D02*
X157428571Y-100905771D01*
X157428571Y-100905771D02*
X157571428Y-100905771D01*
X157571428Y-100905771D02*
X157666666Y-100953390D01*
X157666666Y-100953390D02*
X157714285Y-101001009D01*
X157714285Y-101001009D02*
X157761904Y-101096247D01*
X157761904Y-101096247D02*
X157761904Y-101334342D01*
X157761904Y-101334342D02*
X157714285Y-101429580D01*
X157714285Y-101429580D02*
X157666666Y-101477200D01*
X157666666Y-101477200D02*
X157571428Y-101524819D01*
X157571428Y-101524819D02*
X157285714Y-101524819D01*
X157285714Y-101524819D02*
X157190476Y-101477200D01*
X157190476Y-101477200D02*
X157142857Y-101429580D01*
X156333333Y-96929580D02*
X156285714Y-96977200D01*
X156285714Y-96977200D02*
X156142857Y-97024819D01*
X156142857Y-97024819D02*
X156047619Y-97024819D01*
X156047619Y-97024819D02*
X155904762Y-96977200D01*
X155904762Y-96977200D02*
X155809524Y-96881961D01*
X155809524Y-96881961D02*
X155761905Y-96786723D01*
X155761905Y-96786723D02*
X155714286Y-96596247D01*
X155714286Y-96596247D02*
X155714286Y-96453390D01*
X155714286Y-96453390D02*
X155761905Y-96262914D01*
X155761905Y-96262914D02*
X155809524Y-96167676D01*
X155809524Y-96167676D02*
X155904762Y-96072438D01*
X155904762Y-96072438D02*
X156047619Y-96024819D01*
X156047619Y-96024819D02*
X156142857Y-96024819D01*
X156142857Y-96024819D02*
X156285714Y-96072438D01*
X156285714Y-96072438D02*
X156333333Y-96120057D01*
X157238095Y-96024819D02*
X156761905Y-96024819D01*
X156761905Y-96024819D02*
X156714286Y-96501009D01*
X156714286Y-96501009D02*
X156761905Y-96453390D01*
X156761905Y-96453390D02*
X156857143Y-96405771D01*
X156857143Y-96405771D02*
X157095238Y-96405771D01*
X157095238Y-96405771D02*
X157190476Y-96453390D01*
X157190476Y-96453390D02*
X157238095Y-96501009D01*
X157238095Y-96501009D02*
X157285714Y-96596247D01*
X157285714Y-96596247D02*
X157285714Y-96834342D01*
X157285714Y-96834342D02*
X157238095Y-96929580D01*
X157238095Y-96929580D02*
X157190476Y-96977200D01*
X157190476Y-96977200D02*
X157095238Y-97024819D01*
X157095238Y-97024819D02*
X156857143Y-97024819D01*
X156857143Y-97024819D02*
X156761905Y-96977200D01*
X156761905Y-96977200D02*
X156714286Y-96929580D01*
X191859580Y-82142857D02*
X191907200Y-82190476D01*
X191907200Y-82190476D02*
X191954819Y-82333333D01*
X191954819Y-82333333D02*
X191954819Y-82428571D01*
X191954819Y-82428571D02*
X191907200Y-82571428D01*
X191907200Y-82571428D02*
X191811961Y-82666666D01*
X191811961Y-82666666D02*
X191716723Y-82714285D01*
X191716723Y-82714285D02*
X191526247Y-82761904D01*
X191526247Y-82761904D02*
X191383390Y-82761904D01*
X191383390Y-82761904D02*
X191192914Y-82714285D01*
X191192914Y-82714285D02*
X191097676Y-82666666D01*
X191097676Y-82666666D02*
X191002438Y-82571428D01*
X191002438Y-82571428D02*
X190954819Y-82428571D01*
X190954819Y-82428571D02*
X190954819Y-82333333D01*
X190954819Y-82333333D02*
X191002438Y-82190476D01*
X191002438Y-82190476D02*
X191050057Y-82142857D01*
X191050057Y-81761904D02*
X191002438Y-81714285D01*
X191002438Y-81714285D02*
X190954819Y-81619047D01*
X190954819Y-81619047D02*
X190954819Y-81380952D01*
X190954819Y-81380952D02*
X191002438Y-81285714D01*
X191002438Y-81285714D02*
X191050057Y-81238095D01*
X191050057Y-81238095D02*
X191145295Y-81190476D01*
X191145295Y-81190476D02*
X191240533Y-81190476D01*
X191240533Y-81190476D02*
X191383390Y-81238095D01*
X191383390Y-81238095D02*
X191954819Y-81809523D01*
X191954819Y-81809523D02*
X191954819Y-81190476D01*
X190954819Y-80333333D02*
X190954819Y-80523809D01*
X190954819Y-80523809D02*
X191002438Y-80619047D01*
X191002438Y-80619047D02*
X191050057Y-80666666D01*
X191050057Y-80666666D02*
X191192914Y-80761904D01*
X191192914Y-80761904D02*
X191383390Y-80809523D01*
X191383390Y-80809523D02*
X191764342Y-80809523D01*
X191764342Y-80809523D02*
X191859580Y-80761904D01*
X191859580Y-80761904D02*
X191907200Y-80714285D01*
X191907200Y-80714285D02*
X191954819Y-80619047D01*
X191954819Y-80619047D02*
X191954819Y-80428571D01*
X191954819Y-80428571D02*
X191907200Y-80333333D01*
X191907200Y-80333333D02*
X191859580Y-80285714D01*
X191859580Y-80285714D02*
X191764342Y-80238095D01*
X191764342Y-80238095D02*
X191526247Y-80238095D01*
X191526247Y-80238095D02*
X191431009Y-80285714D01*
X191431009Y-80285714D02*
X191383390Y-80333333D01*
X191383390Y-80333333D02*
X191335771Y-80428571D01*
X191335771Y-80428571D02*
X191335771Y-80619047D01*
X191335771Y-80619047D02*
X191383390Y-80714285D01*
X191383390Y-80714285D02*
X191431009Y-80761904D01*
X191431009Y-80761904D02*
X191526247Y-80809523D01*
X188304819Y-106809523D02*
X187304819Y-106809523D01*
X187304819Y-106809523D02*
X188019104Y-106476190D01*
X188019104Y-106476190D02*
X187304819Y-106142857D01*
X187304819Y-106142857D02*
X188304819Y-106142857D01*
X187400057Y-105714285D02*
X187352438Y-105666666D01*
X187352438Y-105666666D02*
X187304819Y-105571428D01*
X187304819Y-105571428D02*
X187304819Y-105333333D01*
X187304819Y-105333333D02*
X187352438Y-105238095D01*
X187352438Y-105238095D02*
X187400057Y-105190476D01*
X187400057Y-105190476D02*
X187495295Y-105142857D01*
X187495295Y-105142857D02*
X187590533Y-105142857D01*
X187590533Y-105142857D02*
X187733390Y-105190476D01*
X187733390Y-105190476D02*
X188304819Y-105761904D01*
X188304819Y-105761904D02*
X188304819Y-105142857D01*
X131679761Y-97429580D02*
X131632142Y-97477200D01*
X131632142Y-97477200D02*
X131489285Y-97524819D01*
X131489285Y-97524819D02*
X131394047Y-97524819D01*
X131394047Y-97524819D02*
X131251190Y-97477200D01*
X131251190Y-97477200D02*
X131155952Y-97381961D01*
X131155952Y-97381961D02*
X131108333Y-97286723D01*
X131108333Y-97286723D02*
X131060714Y-97096247D01*
X131060714Y-97096247D02*
X131060714Y-96953390D01*
X131060714Y-96953390D02*
X131108333Y-96762914D01*
X131108333Y-96762914D02*
X131155952Y-96667676D01*
X131155952Y-96667676D02*
X131251190Y-96572438D01*
X131251190Y-96572438D02*
X131394047Y-96524819D01*
X131394047Y-96524819D02*
X131489285Y-96524819D01*
X131489285Y-96524819D02*
X131632142Y-96572438D01*
X131632142Y-96572438D02*
X131679761Y-96620057D01*
X132298809Y-97048628D02*
X132298809Y-97524819D01*
X131965476Y-96524819D02*
X132298809Y-97048628D01*
X132298809Y-97048628D02*
X132632142Y-96524819D01*
X133394047Y-96858152D02*
X133394047Y-97524819D01*
X133155952Y-96477200D02*
X132917857Y-97191485D01*
X132917857Y-97191485D02*
X133536904Y-97191485D01*
D12*
%TO.C,C3*%
X172000000Y-80140580D02*
X172000000Y-79859420D01*
X173020000Y-80140580D02*
X173020000Y-79859420D01*
%TO.C,L1*%
X171075378Y-74940000D02*
X171874622Y-74940000D01*
X171075378Y-76060000D02*
X171874622Y-76060000D01*
%TO.C,C11*%
X180211252Y-71140000D02*
X178788748Y-71140000D01*
X180211252Y-73860000D02*
X178788748Y-73860000D01*
%TO.C,RN1*%
X167302500Y-98940000D02*
X168822500Y-98940000D01*
X167302500Y-98990000D02*
X167302500Y-98940000D01*
X167302500Y-100890000D02*
X167302500Y-100110000D01*
X167302500Y-102060000D02*
X167302500Y-102010000D01*
X168822500Y-98940000D02*
X168822500Y-99940000D01*
X168822500Y-101060000D02*
X168822500Y-102060000D01*
X168822500Y-102060000D02*
X167302500Y-102060000D01*
X167002500Y-100450000D02*
X166522500Y-100450000D01*
X166762500Y-100120000D01*
X167002500Y-100450000D01*
G36*
X167002500Y-100450000D02*
G01*
X166522500Y-100450000D01*
X166762500Y-100120000D01*
X167002500Y-100450000D01*
G37*
%TO.C,C12*%
X186490000Y-81640580D02*
X186490000Y-81359420D01*
X187510000Y-81640580D02*
X187510000Y-81359420D01*
%TO.C,PS1*%
X131030000Y-68140000D02*
X168050000Y-68140000D01*
X131030000Y-76704000D02*
X131030000Y-68140000D01*
X131030000Y-90860000D02*
X131030000Y-77296000D01*
X168050000Y-68140000D02*
X168050000Y-90860000D01*
X168050000Y-90860000D02*
X131030000Y-90860000D01*
X131030000Y-77000000D02*
X130420000Y-77440000D01*
X130420000Y-76560000D01*
X131030000Y-77000000D01*
G36*
X131030000Y-77000000D02*
G01*
X130420000Y-77440000D01*
X130420000Y-76560000D01*
X131030000Y-77000000D01*
G37*
%TO.C,T1*%
X138890000Y-99000000D02*
X139140000Y-99000000D01*
X138890000Y-101250000D02*
X138890000Y-99000000D01*
X139140000Y-95890000D02*
X149860000Y-95890000D01*
X139140000Y-96590000D02*
X139140000Y-95890000D01*
X139140000Y-101250000D02*
X138890000Y-101250000D01*
X139140000Y-101590000D02*
X139140000Y-98410000D01*
X139140000Y-103410000D02*
X139140000Y-104110000D01*
X139140000Y-104110000D02*
X149860000Y-104110000D01*
X149860000Y-95890000D02*
X149860000Y-96590000D01*
X149860000Y-100250000D02*
X150110000Y-100250000D01*
X149860000Y-101590000D02*
X149860000Y-98410000D01*
X149860000Y-104110000D02*
X149860000Y-103410000D01*
X150110000Y-99750000D02*
X149860000Y-99750000D01*
X150110000Y-100250000D02*
X150110000Y-99750000D01*
X150824600Y-96590000D02*
X150584600Y-96260000D01*
X151064600Y-96260000D01*
X150824600Y-96590000D01*
G36*
X150824600Y-96590000D02*
G01*
X150584600Y-96260000D01*
X151064600Y-96260000D01*
X150824600Y-96590000D01*
G37*
%TO.C,J1*%
X126620000Y-77845000D02*
X128000000Y-77845000D01*
X126620000Y-79225000D02*
X126620000Y-77845000D01*
X126620000Y-80495000D02*
X126620000Y-83145000D01*
X126620000Y-80495000D02*
X129380000Y-80495000D01*
X126620000Y-83145000D02*
X129380000Y-83145000D01*
X129380000Y-80495000D02*
X129380000Y-83145000D01*
%TO.C,D1*%
X161380000Y-101780000D02*
X163620000Y-101780000D01*
X161380000Y-101900000D02*
X163620000Y-101900000D01*
X161380000Y-102020000D02*
X163620000Y-102020000D01*
X162500000Y-97730000D02*
X162500000Y-98380000D01*
X162500000Y-103270000D02*
X162500000Y-102620000D01*
X161380000Y-102620000D02*
X163620000Y-102620000D01*
X163620000Y-98380000D01*
X161380000Y-98380000D01*
X161380000Y-102620000D01*
%TO.C,R1*%
X132512258Y-100977500D02*
X132037742Y-100977500D01*
X132512258Y-102022500D02*
X132037742Y-102022500D01*
%TO.C,C4*%
X189211252Y-84640000D02*
X187788748Y-84640000D01*
X189211252Y-87360000D02*
X187788748Y-87360000D01*
%TO.C,LS1*%
X179845000Y-97880000D02*
X179845000Y-96500000D01*
X181225000Y-97880000D02*
X179845000Y-97880000D01*
X182495000Y-95120000D02*
X185145000Y-95120000D01*
X182495000Y-97880000D02*
X182495000Y-95120000D01*
X182495000Y-97880000D02*
X185145000Y-97880000D01*
X185145000Y-97880000D02*
X185145000Y-95120000D01*
%TO.C,C1*%
X169490000Y-80140580D02*
X169490000Y-79859420D01*
X170510000Y-80140580D02*
X170510000Y-79859420D01*
%TO.C,R4*%
X187977500Y-77937742D02*
X187977500Y-78412258D01*
X189022500Y-77937742D02*
X189022500Y-78412258D01*
%TO.C,C2*%
X189211252Y-71140000D02*
X187788748Y-71140000D01*
X189211252Y-73860000D02*
X187788748Y-73860000D01*
%TO.C,U3*%
X178440000Y-76525000D02*
X182560000Y-76525000D01*
X178440000Y-76620000D02*
X178440000Y-76525000D01*
X178440000Y-81645000D02*
X178440000Y-81550000D01*
X182560000Y-76525000D02*
X182560000Y-76620000D01*
X182560000Y-81550000D02*
X182560000Y-81645000D01*
X182560000Y-81645000D02*
X178440000Y-81645000D01*
X177900000Y-76615000D02*
X177660000Y-76285000D01*
X178140000Y-76285000D01*
X177900000Y-76615000D01*
G36*
X177900000Y-76615000D02*
G01*
X177660000Y-76285000D01*
X178140000Y-76285000D01*
X177900000Y-76615000D01*
G37*
%TO.C,R2*%
X156562258Y-105977500D02*
X156087742Y-105977500D01*
X156562258Y-107022500D02*
X156087742Y-107022500D01*
%TO.C,C43*%
X156359420Y-101990000D02*
X156640580Y-101990000D01*
X156359420Y-103010000D02*
X156640580Y-103010000D01*
%TO.C,C5*%
X156359420Y-97490000D02*
X156640580Y-97490000D01*
X156359420Y-98510000D02*
X156640580Y-98510000D01*
%TO.C,C26*%
X189490000Y-81640580D02*
X189490000Y-81359420D01*
X190510000Y-81640580D02*
X190510000Y-81359420D01*
%TO.C,CY4*%
X132134420Y-97990000D02*
X132415580Y-97990000D01*
X132134420Y-99010000D02*
X132415580Y-99010000D01*
%TD*%
M02*
