%TF.GenerationSoftware,KiCad,Pcbnew,9.0.6*%
%TF.CreationDate,2026-09-18T05:16:20+03:00*%
%TF.ProjectId,eavesdrop2,65617665-7364-4726-9f70-322e6b696361,rev?*%
%TF.SameCoordinates,Original*%
%TF.FileFunction,Copper,L1,Top*%
%TF.FilePolarity,Positive*%
%FSLAX46Y46*%
G04 Gerber Fmt 4.6, Leading zero omitted, Abs format (unit mm)*
G04 Created by KiCad (PCBNEW 9.0.6) date 2026-09-18 05:16:20*
%MOMM*%
%LPD*%
G01*
G04 APERTURE LIST*
G04 Aperture macros list*
%AMRoundRect*
0 Rectangle with rounded corners*
0 $1 Rounding radius*
0 $2 $3 $4 $5 $6 $7 $8 $9 X,Y pos of 4 corners*
0 Add a 4 corners polygon primitive as box body*
4,1,4,$2,$3,$4,$5,$6,$7,$8,$9,$2,$3,0*
0 Add four circle primitives for the rounded corners*
1,1,$1+$1,$2,$3*
1,1,$1+$1,$4,$5*
1,1,$1+$1,$6,$7*
1,1,$1+$1,$8,$9*
0 Add four rect primitives between the rounded corners*
20,1,$1+$1,$2,$3,$4,$5,0*
20,1,$1+$1,$4,$5,$6,$7,0*
20,1,$1+$1,$6,$7,$8,$9,0*
20,1,$1+$1,$8,$9,$2,$3,0*%
G04 Aperture macros list end*
%TA.AperFunction,SMDPad,CuDef*%
%ADD10RoundRect,0.225000X0.250000X-0.225000X0.250000X0.225000X-0.250000X0.225000X-0.250000X-0.225000X0*%
%TD*%
%TA.AperFunction,SMDPad,CuDef*%
%ADD11RoundRect,0.218750X-0.218750X-0.381250X0.218750X-0.381250X0.218750X0.381250X-0.218750X0.381250X0*%
%TD*%
%TA.AperFunction,SMDPad,CuDef*%
%ADD12RoundRect,0.250000X0.325000X1.100000X-0.325000X1.100000X-0.325000X-1.100000X0.325000X-1.100000X0*%
%TD*%
%TA.AperFunction,SMDPad,CuDef*%
%ADD13RoundRect,0.150000X-0.587500X-0.150000X0.587500X-0.150000X0.587500X0.150000X-0.587500X0.150000X0*%
%TD*%
%TA.AperFunction,ComponentPad*%
%ADD14RoundRect,0.250000X-0.600000X-0.750000X0.600000X-0.750000X0.600000X0.750000X-0.600000X0.750000X0*%
%TD*%
%TA.AperFunction,ComponentPad*%
%ADD15O,1.700000X2.000000*%
%TD*%
%TA.AperFunction,SMDPad,CuDef*%
%ADD16RoundRect,0.312500X0.962500X-0.312500X0.962500X0.312500X-0.962500X0.312500X-0.962500X-0.312500X0*%
%TD*%
%TA.AperFunction,ComponentPad*%
%ADD17R,1.700000X1.700000*%
%TD*%
%TA.AperFunction,ComponentPad*%
%ADD18C,1.700000*%
%TD*%
%TA.AperFunction,ComponentPad*%
%ADD19RoundRect,0.250000X0.550000X-0.550000X0.550000X0.550000X-0.550000X0.550000X-0.550000X-0.550000X0*%
%TD*%
%TA.AperFunction,ComponentPad*%
%ADD20C,1.600000*%
%TD*%
%TA.AperFunction,SMDPad,CuDef*%
%ADD21RoundRect,0.200000X0.200000X0.275000X-0.200000X0.275000X-0.200000X-0.275000X0.200000X-0.275000X0*%
%TD*%
%TA.AperFunction,SMDPad,CuDef*%
%ADD22RoundRect,0.200000X-0.275000X0.200000X-0.275000X-0.200000X0.275000X-0.200000X0.275000X0.200000X0*%
%TD*%
%TA.AperFunction,SMDPad,CuDef*%
%ADD23RoundRect,0.150000X-0.825000X-0.150000X0.825000X-0.150000X0.825000X0.150000X-0.825000X0.150000X0*%
%TD*%
%TA.AperFunction,SMDPad,CuDef*%
%ADD24RoundRect,0.225000X-0.225000X-0.250000X0.225000X-0.250000X0.225000X0.250000X-0.225000X0.250000X0*%
%TD*%
%TA.AperFunction,ViaPad*%
%ADD25C,0.600000*%
%TD*%
%TA.AperFunction,Conductor*%
%ADD26C,0.200000*%
%TD*%
%TA.AperFunction,Conductor*%
%ADD27C,0.400000*%
%TD*%
G04 APERTURE END LIST*
D10*
%TO.P,C3,1*%
%TO.N,GND*%
X172510000Y-80775000D03*
%TO.P,C3,2*%
%TO.N,/VCC*%
X172510000Y-79225000D03*
%TD*%
D11*
%TO.P,L1,1,1*%
%TO.N,Net-(PS1-+Vout)*%
X170412500Y-75500000D03*
%TO.P,L1,2,2*%
%TO.N,/VCC*%
X172537500Y-75500000D03*
%TD*%
D12*
%TO.P,C11,1*%
%TO.N,GND*%
X180975000Y-72500000D03*
%TO.P,C11,2*%
%TO.N,Net-(PS1-+Vout)*%
X178025000Y-72500000D03*
%TD*%
D13*
%TO.P,RN1,1*%
%TO.N,Net-(D1-K)*%
X167125000Y-99550000D03*
%TO.P,RN1,2*%
%TO.N,/AUDW*%
X167125000Y-101450000D03*
%TO.P,RN1,3*%
%TO.N,GND*%
X169000000Y-100500000D03*
%TD*%
D10*
%TO.P,C12,1*%
%TO.N,GND*%
X187000000Y-82275000D03*
%TO.P,C12,2*%
%TO.N,Net-(C12-Pad2)*%
X187000000Y-80725000D03*
%TD*%
D14*
%TO.P,PS1,1,AC/L*%
%TO.N,/AC_HOT*%
X135000000Y-77000000D03*
D15*
%TO.P,PS1,2,AC/N*%
%TO.N,/AC_NEUTRAL*%
X135000000Y-82000000D03*
%TO.P,PS1,3,-Vout*%
%TO.N,GND*%
X164080000Y-72000000D03*
%TO.P,PS1,4,+Vout*%
%TO.N,Net-(PS1-+Vout)*%
X164080000Y-87000000D03*
%TD*%
D16*
%TO.P,T1,1*%
%TO.N,Net-(D1-A)*%
X150825000Y-97500000D03*
%TO.P,T1,2*%
%TO.N,GND*%
X150825000Y-102500000D03*
%TO.P,T1,3*%
%TO.N,/AC_NEUTRAL*%
X138175000Y-102500000D03*
%TO.P,T1,4*%
%TO.N,Net-(R1-Pad1)*%
X138175000Y-97500000D03*
%TD*%
D17*
%TO.P,J1,1,Pin_1*%
%TO.N,/AC_HOT*%
X128000000Y-79225000D03*
D18*
%TO.P,J1,2,Pin_2*%
%TO.N,/AC_NEUTRAL*%
X128000000Y-81765000D03*
%TD*%
D19*
%TO.P,D1,1,K*%
%TO.N,Net-(D1-K)*%
X162500000Y-104310000D03*
D20*
%TO.P,D1,2,A*%
%TO.N,Net-(D1-A)*%
X162500000Y-96690000D03*
%TD*%
D21*
%TO.P,R1,1*%
%TO.N,Net-(R1-Pad1)*%
X133100000Y-101500000D03*
%TO.P,R1,2*%
%TO.N,Net-(CY4-Pad1)*%
X131450000Y-101500000D03*
%TD*%
D12*
%TO.P,C4,1*%
%TO.N,Net-(C4-Pad1)*%
X189975000Y-86000000D03*
%TO.P,C4,2*%
%TO.N,Net-(C4-Pad2)*%
X187025000Y-86000000D03*
%TD*%
D17*
%TO.P,LS1,1,1*%
%TO.N,GND*%
X181225000Y-96500000D03*
D18*
%TO.P,LS1,2,2*%
%TO.N,Net-(C4-Pad2)*%
X183765000Y-96500000D03*
%TD*%
D10*
%TO.P,C1,1*%
%TO.N,GND*%
X170000000Y-80775000D03*
%TO.P,C1,2*%
%TO.N,Net-(PS1-+Vout)*%
X170000000Y-79225000D03*
%TD*%
D22*
%TO.P,R4,1*%
%TO.N,Net-(C12-Pad2)*%
X188500000Y-77350000D03*
%TO.P,R4,2*%
%TO.N,Net-(C4-Pad1)*%
X188500000Y-79000000D03*
%TD*%
D12*
%TO.P,C2,1*%
%TO.N,GND*%
X189975000Y-72500000D03*
%TO.P,C2,2*%
%TO.N,/VCC*%
X187025000Y-72500000D03*
%TD*%
D23*
%TO.P,U3,1,GAIN*%
%TO.N,unconnected-(U3-GAIN-Pad1)*%
X178025000Y-77180000D03*
%TO.P,U3,2,-*%
%TO.N,GND*%
X178025000Y-78450000D03*
%TO.P,U3,3,+*%
%TO.N,/AUDW*%
X178025000Y-79720000D03*
%TO.P,U3,4,GND*%
%TO.N,GND*%
X178025000Y-80990000D03*
%TO.P,U3,5*%
%TO.N,Net-(C4-Pad1)*%
X182975000Y-80990000D03*
%TO.P,U3,6,V+*%
%TO.N,/VCC*%
X182975000Y-79720000D03*
%TO.P,U3,7,BYPASS*%
%TO.N,Net-(U3-BYPASS)*%
X182975000Y-78450000D03*
%TO.P,U3,8,GAIN*%
%TO.N,unconnected-(U3-GAIN-Pad8)*%
X182975000Y-77180000D03*
%TD*%
D21*
%TO.P,R2,1*%
%TO.N,Net-(D1-K)*%
X157150000Y-106500000D03*
%TO.P,R2,2*%
%TO.N,GND*%
X155500000Y-106500000D03*
%TD*%
D24*
%TO.P,C43,1*%
%TO.N,GND*%
X155725000Y-102500000D03*
%TO.P,C43,2*%
%TO.N,Net-(D1-K)*%
X157275000Y-102500000D03*
%TD*%
%TO.P,C5,1*%
%TO.N,Net-(D1-A)*%
X155725000Y-98000000D03*
%TO.P,C5,2*%
%TO.N,GND*%
X157275000Y-98000000D03*
%TD*%
D10*
%TO.P,C26,1*%
%TO.N,Net-(U3-BYPASS)*%
X190000000Y-82275000D03*
%TO.P,C26,2*%
%TO.N,GND*%
X190000000Y-80725000D03*
%TD*%
D24*
%TO.P,CY4,1*%
%TO.N,Net-(CY4-Pad1)*%
X131500000Y-98500000D03*
%TO.P,CY4,2*%
%TO.N,/AC_HOT*%
X133050000Y-98500000D03*
%TD*%
D25*
%TO.N,Net-(PS1-+Vout)*%
X167500000Y-78500000D03*
X164080000Y-76500000D03*
%TO.N,/VCC*%
X174000000Y-78000000D03*
X184000000Y-72500000D03*
X184000000Y-72500000D03*
%TO.N,Net-(C4-Pad1)*%
X188000000Y-79500000D03*
X182975000Y-80990000D03*
%TO.N,Net-(U3-BYPASS)*%
X189100000Y-81500000D03*
X182975000Y-78450000D03*
%TO.N,/AC_HOT*%
X141000000Y-93000000D03*
X138000000Y-94500000D03*
%TD*%
D26*
%TO.N,Net-(PS1-+Vout)*%
X177025000Y-73500000D02*
X167500000Y-73500000D01*
X170000000Y-79225000D02*
X168225000Y-79225000D01*
X164080000Y-87000000D02*
X164080000Y-80500000D01*
X167500000Y-73500000D02*
X167500000Y-77080000D01*
X168225000Y-79225000D02*
X167500000Y-78500000D01*
X178025000Y-72500000D02*
X177025000Y-73500000D01*
X164080000Y-80500000D02*
X164080000Y-77500000D01*
X164160000Y-75500000D02*
X164080000Y-75580000D01*
X164080000Y-76500000D02*
X164080000Y-75580000D01*
X164080000Y-77500000D02*
X164080000Y-76500000D01*
X170412500Y-75500000D02*
X164160000Y-75500000D01*
X167500000Y-77080000D02*
X164080000Y-80500000D01*
%TO.N,/VCC*%
X172510000Y-79225000D02*
X172775000Y-79225000D01*
X178000000Y-76000000D02*
X181500000Y-76000000D01*
X185000000Y-76000000D02*
X181500000Y-76000000D01*
X177500000Y-75500000D02*
X178000000Y-76000000D01*
X172537500Y-75500000D02*
X177500000Y-75500000D01*
X187025000Y-72500000D02*
X187025000Y-73975000D01*
X182000001Y-79720000D02*
X181699000Y-79418999D01*
X182975000Y-79720000D02*
X182000001Y-79720000D01*
X187025000Y-73975000D02*
X185000000Y-76000000D01*
X181699000Y-74801000D02*
X184000000Y-72500000D01*
X172775000Y-79225000D02*
X174000000Y-78000000D01*
X184000000Y-73500000D02*
X184000000Y-72500000D01*
X181699000Y-79418999D02*
X181699000Y-74801000D01*
X181500000Y-76000000D02*
X184000000Y-73500000D01*
%TO.N,Net-(C4-Pad1)*%
X189975000Y-86000000D02*
X189975000Y-84475000D01*
X189975000Y-84475000D02*
X188500000Y-83000000D01*
X188500000Y-83000000D02*
X188500000Y-79000000D01*
X188500000Y-79000000D02*
X188000000Y-79500000D01*
%TO.N,Net-(C4-Pad2)*%
X183765000Y-96500000D02*
X183765000Y-90735000D01*
X187025000Y-87475000D02*
X187025000Y-86000000D01*
X183765000Y-90735000D02*
X187025000Y-87475000D01*
%TO.N,Net-(D1-A)*%
X157035000Y-96690000D02*
X162500000Y-96690000D01*
X155725000Y-98000000D02*
X157035000Y-96690000D01*
X155225000Y-97500000D02*
X155725000Y-98000000D01*
X150825000Y-97500000D02*
X155225000Y-97500000D01*
%TO.N,Net-(C12-Pad2)*%
X188500000Y-77350000D02*
X187000000Y-78850000D01*
X187000000Y-78850000D02*
X187000000Y-80725000D01*
%TO.N,Net-(U3-BYPASS)*%
X189875000Y-82275000D02*
X189100000Y-81500000D01*
X190000000Y-82275000D02*
X189875000Y-82275000D01*
%TO.N,Net-(D1-K)*%
X162500000Y-104175000D02*
X162500000Y-104310000D01*
X161000000Y-107000000D02*
X162500000Y-107000000D01*
X160500000Y-107500000D02*
X161000000Y-107000000D01*
X167125000Y-99550000D02*
X162500000Y-104175000D01*
X162500000Y-104310000D02*
X162500000Y-106000000D01*
X157275000Y-106375000D02*
X157150000Y-106500000D01*
X157150000Y-106500000D02*
X159500000Y-106500000D01*
X162500000Y-106000000D02*
X162500000Y-107000000D01*
X157275000Y-102500000D02*
X160775000Y-106000000D01*
X159500000Y-106500000D02*
X160500000Y-107500000D01*
X160775000Y-106000000D02*
X162500000Y-106000000D01*
D27*
%TO.N,/AC_HOT*%
X138000000Y-94500000D02*
X134000000Y-98500000D01*
X141000000Y-83000000D02*
X141000000Y-93000000D01*
X128000000Y-79225000D02*
X132775000Y-79225000D01*
X132775000Y-79225000D02*
X135000000Y-77000000D01*
X135000000Y-77000000D02*
X141000000Y-83000000D01*
X134000000Y-98500000D02*
X133050000Y-98500000D01*
D26*
%TO.N,Net-(CY4-Pad1)*%
X131500000Y-101450000D02*
X131450000Y-101500000D01*
X131500000Y-98500000D02*
X131500000Y-101450000D01*
D27*
%TO.N,/AC_NEUTRAL*%
X141000000Y-99675000D02*
X138175000Y-102500000D01*
X134765000Y-81765000D02*
X135000000Y-82000000D01*
X135000000Y-89500000D02*
X141000000Y-95500000D01*
X128000000Y-81765000D02*
X134765000Y-81765000D01*
X135000000Y-82000000D02*
X135000000Y-89500000D01*
X141000000Y-95500000D02*
X141000000Y-99675000D01*
D26*
%TO.N,Net-(R1-Pad1)*%
X133100000Y-101500000D02*
X134175000Y-101500000D01*
X134175000Y-101500000D02*
X138175000Y-97500000D01*
%TO.N,/AUDW*%
X175500000Y-88500000D02*
X175500000Y-81270001D01*
X172000000Y-92000000D02*
X175500000Y-88500000D01*
X167125000Y-101450000D02*
X167500000Y-101825000D01*
X177050001Y-79720000D02*
X178025000Y-79720000D01*
X172000000Y-101000000D02*
X172000000Y-92000000D01*
X167500000Y-101825000D02*
X167500000Y-103500000D01*
X167500000Y-103500000D02*
X170000000Y-101000000D01*
X170000000Y-101000000D02*
X172000000Y-101000000D01*
X175500000Y-81270001D02*
X177050001Y-79720000D01*
%TD*%
M02*
